/* XPM */
static char *result[] = {
/* columns rows colors chars-per-pixel */
"32 32 163 2 ",
"   c #472C0F",
".  c #4C2710",
"X  c #592D12",
"o  c #553212",
"O  c #653314",
"+  c #0B6906",
"@  c #1C6B09",
"#  c #2D6C0C",
"$  c #3E6E4F",
"%  c #3F614B",
"&  c #326A51",
"*  c #3D725A",
"=  c #5D5A43",
"-  c #486A4C",
";  c #467448",
":  c #426E50",
">  c #4B7153",
",  c #437B56",
"<  c #4C7953",
"1  c #537C52",
"2  c #527652",
"3  c #59694B",
"4  c #437660",
"5  c #567D61",
"6  c #DA1D16",
"7  c #DD1713",
"8  c #FF0606",
"9  c #F00D0B",
"0  c #ED150F",
"q  c #FF1506",
"w  c #E61611",
"e  c #E81913",
"r  c #F21A11",
"t  c #BA7338",
"y  c #D57433",
"u  c #DB7734",
"i  c #DC7A34",
"p  c #CA7635",
"a  c #E2732F",
"s  c #EE7D2D",
"d  c #F2792E",
"f  c #E27A31",
"g  c #ED7F36",
"h  c #E27C3E",
"j  c #F27F33",
"k  c #FF7F30",
"l  c #5A884E",
"z  c #54824D",
"x  c #4B815D",
"c  c #548D5C",
"v  c #57825A",
"b  c #628D59",
"n  c #758654",
"m  c #62975F",
"M  c #69975D",
"N  c #66995A",
"B  c #71975B",
"V  c #7B9D5D",
"C  c #7AA05F",
"Z  c #518368",
"A  c #56896A",
"S  c #5C8C70",
"D  c #688764",
"F  c #688B6B",
"G  c #6B8C63",
"H  c #629B61",
"J  c #61936D",
"K  c #6C9369",
"L  c #6C9966",
"P  c #779466",
"I  c #749C63",
"U  c #6BA368",
"Y  c #7DA561",
"T  c #73AC66",
"R  c #7DAC63",
"E  c #76B067",
"W  c #FFBA06",
"Q  c #DA853B",
"!  c #FF852D",
"~  c #EE8135",
"^  c #E58138",
"/  c #ED8639",
"(  c #EE8838",
")  c #F58234",
"_  c #FD8433",
"`  c #FF8A33",
"'  c #F48738",
"]  c #FD873C",
"[  c #F38D3D",
"{  c #FF883F",
"}  c #FD9035",
"|  c #FFD806",
" . c #F2D20C",
".. c #80AF5B",
"X. c #8EBD5F",
"o. c #80A460",
"O. c #81AC63",
"+. c #8AAE63",
"@. c #8EB465",
"#. c #81BB6A",
"$. c #8EBC68",
"%. c #80B265",
"&. c #97B764",
"*. c #92BA66",
"=. c #80A17C",
"-. c #8AB473",
";. c #81B478",
":. c #81B477",
">. c #F68C42",
",. c #FF8D46",
"<. c #FE9146",
"1. c #D5B846",
"2. c #E4BD46",
"3. c #ECBF46",
"4. c #F7B940",
"5. c #FBBF41",
"6. c #86C06C",
"7. c #8FC169",
"8. c #8DC473",
"9. c #97CA7F",
"0. c #97C573",
"q. c #A3C87F",
"w. c #A2C377",
"e. c #EBC446",
"r. c #EDC548",
"t. c #FEC643",
"y. c #FFCC44",
"u. c #F3C648",
"i. c #F8C648",
"p. c #F6CC49",
"a. c #77A381",
"s. c #9EB38D",
"d. c #9DB490",
"f. c #98BF99",
"g. c #93B997",
"h. c #A0B58A",
"j. c #B6BA87",
"k. c #B0BF8E",
"l. c #9CCE85",
"z. c #A2CF8F",
"x. c #A8CA89",
"c. c #A2D08F",
"v. c #ADC292",
"b. c #A9C997",
"n. c #A3C99D",
"m. c #B8C79C",
"M. c #BED89C",
"N. c #AED3A5",
"B. c #B9DFA4",
"V. c #B4D4AF",
"C. c #B9E0A4",
"Z. c #C0D598",
"A. c #CFDFA8",
"S. c #CDE2AD",
"D. c #C9EAB6",
"F. c #DBE5E1",
"G. c #E9EFEC",
"H. c #F2EAE3",
"J. c #F7F2E6",
"K. c #F2F0EE",
"L. c #FEF6F0",
"P. c white",
"I. c #F6FBF5",
/* pixels */
"6.6.6.6.6.6.6.6.#.T , & & , T #.7.8.#.6.6.6.6.6.6.T , & & , T 6.",
"6.#.E T T E #.#.E U J S S J U E #.#.E T T E #.#.T U J S A J U T ",
"6.T c , , c T E c J f.V.V.f.J c E E c , x c T T c J f.V.V.f.J , ",
"T U J S S J U H , A v.A.A.v.D 1 H U J S S J U m , A n.D.D.n.A & ",
", J f.V.V.n.S * & v ( ) ' ) ) f < J f.V.V.f.J , $ x ;.l.l.E Z & ",
"& A n.D.D.N.E Z * 1 ) _ k k k j : A n.D.D.N.a.Z * , T #.T U c , ",
"& x ;.l.l.l.V.d.g k k k k k k k _ k -.l.l.z.N.g.Z , T T c c H T ",
"x x U E E l.M.k.~ k k k k k k k k k V R #.9.B.n.A * m m > 2 T #.",
"T H c c E 8.' ' k k k k k k k k k k g ^ E 8.9.;.x $ $ 3 6 6 C 6.",
"6.T x * H T k k k k k k ] ] d d k k k j H T #.T x & % = w e C 6.",
"6.E , & , c k k k k k k L.H.X O d k k j * c T T , & 9 6 n C 6.6.",
"6.E c $ & , k k k k k k P.K.. X d k ! ) & , H H * & 8 7 C 6.6.6.",
"6.#.E B j k k k k k k k . . . X d k k ) , & , z  .| 8 8 q r @.6.",
"6.6.#...) k k k k k k k       o d k k ) c , & ;  .| q q 8 r *.6.",
"6.6.6.X.) k k k k k k k + + + @ s k k ) E H , ;  .| | W q r @.#.",
"6.6.6.7./ ) k k k k k k @ @ @ # s k ) ( #.T c z  .| | W q r ..6.",
"6.6.6.6.$.@.k k k k k k s s s s k k &.$.6.#.E R  .| | W q 0 Y 6.",
"6.E E T T T k ! k k k ! k k k k k k C T T E #.X. .| | W q r I T ",
"6.E c x , c O.O.b P i.t.k k k k k k b x , c E E N U ! [ k.s.J , ",
"T U J S S J I M < G p.t.k k k k k ! P G F K U m $ A ! >.S.n.A & ",
"x J f.V.V.n.y a a f t.y.k k u a k k k k k j K , & x k ' x.:.x & ",
"& A n.D.D.N.y y f f t.y.k k a a j k k k ] >.=.Z > 1 k ( O.L c , ",
"& , E l.l.c.m.s.3.t.y.y.k k k k a a a f x.x.V.s.^ ) k ( b c H T ",
", c U E E l.C.b.e.y.y.y._ _ k k a a a f @.&.Z.j.) k ~ Q < , T #.",
"T L z c E 6.l.#.r.y.y.y.t.5.k k k k k k ) ) ) ) k k , < & , T 6.",
"6.T x x H T #.T r.y.y.y.y.t.k k k k k k k k k ! k k & $ , c E 6.",
"6.T , & * c E Y p f t.y.y.t._ k k k k k k k ! _ t.y.& * H E #.6.",
"6.E c * $ * H M t p 4.5.y.t.` ` k k k _ ` ` ! } 2.2.& , T 6.6.6.",
"6.#.E H , & , * $ - y f y.y.t.t._ k k ! y.y.y.3.1 $ & x T 6.6.6.",
"6.6.6.E c , & & 4 5 y a t.t.p.i.,.,.k _ r.r.e.1.$ & * c T 6.6.6.",
"6.6.6.#.E H , * F.H.i a u i 7.0.J.L.] ) E N z $ & $ H T #.6.6.6.",
"6.6.6.6.6.T x * G.L.h a a u #.8.I.P.] ' #.T , & & x T 6.6.6.6.6."
};
