/* XPM */
static char *result[] = {
/* columns rows colors chars-per-pixel */
"32 32 167 2 ",
"   c #4C2710",
".  c #592D12",
"X  c #5F3013",
"o  c #6B3615",
"O  c #593621",
"+  c #653C22",
"@  c #0B6906",
"#  c #1C6B09",
"$  c #2D6C0C",
"%  c #3F6F4F",
"&  c #3F614B",
"*  c #326A51",
"=  c #3D725A",
"-  c #45694D",
";  c #426E50",
":  c #437451",
">  c #437C56",
",  c #4D7A53",
"<  c #527C53",
"1  c #596A4A",
"2  c #616D4B",
"3  c #656246",
"4  c #617A4F",
"5  c #437660",
"6  c #567D61",
"7  c #D81A15",
"8  c #FF0606",
"9  c #F00D0B",
"0  c #EB120E",
"q  c #FF1506",
"w  c #F5120D",
"e  c #F41E0D",
"r  c #EA1A12",
"t  c #F21A11",
"y  c #D22119",
"u  c #FF2306",
"i  c #FF2F06",
"p  c #E82316",
"a  c #BA7338",
"s  c #D47433",
"d  c #DC7B36",
"f  c #DD7938",
"g  c #D97633",
"h  c #CA7635",
"j  c #E2732F",
"k  c #EF7E2D",
"l  c #F3792E",
"z  c #E27C33",
"x  c #E27C3E",
"c  c #ED7E33",
"v  c #F27F33",
"b  c #FF7F30",
"n  c #4D804F",
"m  c #4B825D",
"M  c #5C8857",
"N  c #58815A",
"B  c #558D5C",
"V  c #5B8858",
"C  c #5A8353",
"Z  c #78804A",
"A  c #618657",
"S  c #6B8C57",
"D  c #628D59",
"F  c #6A925B",
"G  c #6B9D5E",
"H  c #76995B",
"J  c #518368",
"K  c #56896A",
"L  c #5D8C6F",
"P  c #5C8C70",
"I  c #688764",
"U  c #688B6B",
"Y  c #658A6C",
"T  c #629C61",
"R  c #61946D",
"E  c #6C9369",
"W  c #7B9F62",
"Q  c #6BA268",
"!  c #7AA761",
"~  c #73AC66",
"^  c #7FAC64",
"/  c #75A064",
"(  c #76B067",
")  c #FFAF06",
"_  c #FFBB06",
"`  c #FFB908",
"'  c #DD8239",
"]  c #EC8336",
"[  c #EC8939",
"{  c #E5863A",
"}  c #F58234",
"|  c #FD8432",
" . c #F08937",
".. c #FF8B33",
"X. c #F38639",
"o. c #FF873E",
"O. c #F5893D",
"+. c #FF883F",
"@. c #FFC206",
"#. c #FFCA06",
"$. c #FFD706",
"%. c #FFD806",
"&. c #FFD20A",
"*. c #F9D711",
"=. c #FCD811",
"-. c #84A95F",
";. c #9AAE5F",
":. c #81AC63",
">. c #89AF63",
",. c #8CB665",
"<. c #8ABC67",
"1. c #81BB6A",
"2. c #8FBC68",
"3. c #80B265",
"4. c #92BA66",
"5. c #81B478",
"6. c #8AB173",
"7. c #DD8242",
"8. c #ED8A42",
"9. c #FF8D46",
"0. c #FE9146",
"q. c #DFBE47",
"w. c #E2BE46",
"e. c #F7B940",
"r. c #FBBF41",
"t. c #86C06C",
"y. c #8FC169",
"u. c #8EC474",
"i. c #97C372",
"p. c #97CA7F",
"a. c #A1C87F",
"s. c #A6C479",
"d. c #ECC447",
"f. c #E7C347",
"g. c #F2C245",
"h. c #FEC543",
"j. c #FFCC44",
"k. c #F3C648",
"l. c #F1CA48",
"z. c #77A381",
"x. c #93B997",
"c. c #98BF99",
"v. c #A0BA92",
"b. c #9CCE85",
"n. c #AFC08E",
"m. c #A4CC8C",
"M. c #A2D08F",
"N. c #A3CA9D",
"B. c #ADC191",
"V. c #B9CAA1",
"C. c #AED2A5",
"Z. c #B4D4AF",
"A. c #B9E0A4",
"S. c #C0D598",
"D. c #CBDEA9",
"F. c #CDE3AD",
"G. c #C9EAB6",
"H. c #FFE9DC",
"J. c #DBE5E1",
"K. c #E9EFEC",
"L. c #F2EAE3",
"P. c #F7F2E6",
"I. c #FFF1E9",
"U. c #F2F0EE",
"Y. c #FEF6F0",
"T. c white",
"R. c #F6FBF5",
/* pixels */
"t.t.t.t.t.t.t.t.1.~ > * * > ~ 1.t.t.t.t.t.t.t.t.t.~ > * * > ~ t.",
"t.1.( ~ ~ ~ 1.1.^ W E U U E Q ( 1.1.( ~ ~ ( ( t.( Q R P P R Q ~ ",
"t.~ B > > B ( :.' ] X.O.O.8.R B ( ( B > m B ( ~ B R N.C.C.N.R > ",
"~ Q R P L R W H c b b b | | I < T Q R P P R Q T = K N.G.G.N.J * ",
"> R N.Z.Z.c.} v b b b b b b v z , R c.Z.Z.c.R > * m 5.p.b.5.m * ",
"* J N.G.G.C.b b b b b b b b b v ; K N.G.G.C.z.J = n ~ 1.~ T m > ",
"* m 5.s.} b b b b b b b b b b b b b 6.b.b.M.C.x.J m ~ ~ B B Q ~ ",
"m m T >.} b b b b | o.o.l l b b b b W ~ ( b.A.N.K = F F = > ~ t.",
"~ G m D } b b b b o.H.I.. o | b | | M B ( u.b.( m * 0 y - > ~ t.",
"t.~ n 4 } b b b b o.H.U.  . b b | | n = T ( 1.~ n * 9 7 1 C ( t.",
"<.! { l b b b b | l O O   . b b b b n = = B ~ ~ m * * 3 r p ,.<.",
"t.:.] | b b b b b l .     . b b b b B > * > T T % * * 2 w t ,.t.",
"t.<.X.b b b b b b k # @ @ # b b b b -.T % % > > * * % 2 w 8 8 8 ",
"1.<.[ } b b b b b k $ # # $ b | } } <.( B = * * * * < 4 w 8 8 8 ",
"t.t.t.4.} b b b b b b b b b b } 2.t.t.1.( T % * * : $._ q 8 8 8 ",
"t.t.t.4.[ } v v | | b b b b b } 2.t.t.t.t.( B m > B #.) u q 8 8 ",
"t.t.t.<.2.<.:.-.g.r.| b j j b } 2.<.t.t.t.( ( ( ~ G q i @.` q 8 ",
"t.( ( ~ ~ ( 1.<.l.j.| b j j b c ,.1.( ~ ~ ( t.( ( Q 8 u #.@.q 8 ",
"t.( B > > B g d r.j.| b j j b b } } M m m B ( ( B T #.#.%.@.q 8 ",
"( Q R L Y E z z r.h.| b j j b b b | E K K R Q T = K *.=.&.` e 9 ",
"m R c.V.f j j.j.j.h.| | b b j j b b v.Z.Z.N.R = % m 5.s.X.X.< * ",
"* K N.D.' g j.j.j.j.| | b b j j b b v.F.F.C.z.m = > ! ;. .{ A > ",
"* > ( b.a.m.j.j.j.j.j.h.b b b b j j }  .b.m.C.N.J > } { S V Q ~ ",
"> B Q ( 1.p.r.h.j.j.j.j.b b b b j j b } ,.s.V.n.I < | ] , > ~ 1.",
"~ T B B ( u.g z r.j.j.j.b b b b b b b b } } } } v v b z ; > ~ t.",
"u.~ > > T ( j z h.j.j.j.b b b b b b b b b b | | b b b z , B ( t.",
"1.~ > * = B ~ ! s f h.j.j.h.| | b b b b b | j.j.j.j.* > T ( 1.t.",
"t.( B > * > T F a h e.r.j.h...| b b b | ....d.f.w.w.* > ~ t.t.t.",
"t.1.( T > * > : % - g z j.j.j.h.| b b | h.g.C n : % * > ~ t.t.t.",
"t.t.t.( B > * * 5 6 s j l.l.l.l.0.9.}  .l.w.% * * * > B ( 1.t.t.",
"t.t.t.( ~ T m = J.L.x j <.y.y.i.P.I.i.,.( G % * * = T ( 1.t.t.t.",
"t.t.t.t.t.~ m = K.Y.x j t.1.t.u.R.T.u.t.1.~ m * * m ~ t.t.t.t.t."
};
