/* XPM */
static char *result[] = {
/* columns rows colors chars-per-pixel */
"91 91 51 1 ",
"  c #3C380E",
". c #4C2710",
"X c #0B6906",
"o c #FF0606",
"O c #FF2006",
"+ c #FF3B06",
"@ c #9D5B1F",
"# c #85741B",
"$ c #A65320",
"% c #FF6F06",
"& c #FF791F",
"* c #D26928",
"= c #C27A26",
"- c #E0722F",
"; c #F07930",
": c #F27930",
"> c #F77C30",
", c #F97C30",
"< c #FB7D30",
"1 c #FD7E30",
"2 c #FF7F30",
"3 c #FF9526",
"4 c #E68433",
"5 c #E88934",
"6 c #EA8E35",
"7 c #FF8532",
"8 c #FF8933",
"9 c #EA9036",
"0 c #FF9235",
"q c #F09F3A",
"w c #FFA63A",
"e c #FFAA3B",
"r c #FFAD3C",
"t c #F7B63F",
"y c #FFB93F",
"u c #FFD806",
"i c #FF9757",
"p c #F9BA40",
"a c #FFBD40",
"s c #FF9F64",
"d c #E9A47A",
"f c #FFC242",
"g c #FFCC44",
"h c #EDAE88",
"j c #F0B997",
"k c #FFBF98",
"l c #FFDBB0",
"z c #D2C9C3",
"x c #FFDFCB",
"c c white",
"v c None",
/* pixels */
"vvvvvvvvvvvvvvvvvvvvvvvvvvvvvvvvvvvvvvvvvvvvvvvvvvvvvvvvvvvvvvvvvvvvvvvvvvvvvvvvvvvvvvvvvvv",
"vvvvvvvvvvvvvvvvvvvvvvvvvvvvvvvvvvvvvvvvvvvvvvvvvvvvvvvvvvvvvvvvvvvvvvvvvvvvvvvvvvvvvvvvvvv",
"vvvvvvvvvvvvvvvvvvvvvvvvvvvvvvvvvvvvvvvvvvvvvvvvvvvvvvvvvvvvvvvvvvvvvvvvvvvvvvvvvvvvvvvvvvv",
"vvvvvvvvvvvvvvvvvvvvvvvvvvvvvvvvvvvvvvvvvvvvvvvvvvvvvvvvvvvvvvvvvvvvvvvvvvvvvvvvvvvvvvvvvvv",
"vvvvvvvvvvvvvvvvvvvvvvvvvvvvvvvvvvvvvvvvvvvvvvvvvvvvvvvvvvvvvvvvvvvvvvvvvvvvvvvvvvvvvvvvvvv",
"vvvvvvvvvvvvvvvvvvvvvvvvvvvvvvvvvvvvvvvvvvvvvvvvvvvvvvvvvvvvvvvvvvvvvvvvvvvvvvvvvvvvvvvvvvv",
"vvvvvvvvvvvvvvvvvvvvvvvvvvvvvvvvvvvvvvvvvvvvvvvvvvvvvvvvvvvvvvvvvvvvvvvvvvvvvvvvvvvvvvvvvvv",
"vvvvvvvvvvvvvvvvvvvvvvvvvvvvvvvvvvvvvvvvvvvvvvvvvvvvvvvvvvvvvvvvvvvvvvvvvvvvvvvvvvvvvvvvvvv",
"vvvvvvvvvvvvvvvvvvvvvvvvvvvvvvvvvvvvvvvvvvvvvvvvvvvvvvvvvvvvvvvvvvvvvvvvvvvvvvvvvvvvvvvvvvv",
"vvvvvvvvvvvvvvvvvvvvvvvvvvvvvvvvvvvvvvvvvvvvvvvvvvvvvvvvvvvvvvvvvvvvvvvvvvvvvvvvvvvvvvvvvvv",
"vvvvvvvvvvvvvvvvvvvvvvvvvvvvvvvvvvvvvvvvvvvvvvvvvvvvvvvvvvvvvvvvvvvvvvvvvvvvvvvvvvvvvvvvvvv",
"vvvvvvvvvvvvvvvvvvvvvvvvvvvvv2222222222222222vvvvvvvvvvvvvvvvvvvvvvvvvvvvvvvvvvvvvvvvvvvvvv",
"vvvvvvvvvvvvvvvvvvvvvvvvvvvv222222222222222222vvvvvvvvvvvvvvvvvvvvvvvvvvvvvvvvvvvvvvvvvvvvv",
"vvvvvvvvvvvvvvvvvvvvvvvvvvvv222222222222222222vvvvvvvvvvvvvvvvvvvvvvvvvvvvvvvvvvvvvvvvvvvvv",
"vvvvvvvvvvvvvvvvvvvvvvvvvvvv222222222222222222vvvvvvvvvvvvvvvvvvvvvvvvvvvvvvvvvvvvvvvvvvvvv",
"vvvvvvvvvvvvvvvvvvvvvvvvvvvv222222222222222222vvvvvvvvvvvvvvvvvvvvvvvvvvvvvvvvvvvvvvvvvvvvv",
"vvvvvvvvvvvvvvvvvvvvvvvvvvvv222222222222222222vvvvvvvvvvvvvvvvvvvvvvvvvvvvvvvvvvvvvvvvvvvvv",
"vvvvvvvvvvvvvvvvvvvvvvv2222222222222222222222222222vvvvvvvvvvvvvvvvvvvvvvvvvvvvvvvvvvvvvvvv",
"vvvvvvvvvvvvvvvvvvvvvvv2222222222222222222222222222vvvvvvvvvvvvvvvvvvvvvvvvvvvvvvvvvvvvvvvv",
"vvvvvvvvvvvvvvvvvvvvvvv2222222222222222222222222222vvvvvvvvvvvvvvvvvvvvvvvvvvvvvvvvvvvvvvvv",
"vvvvvvvvvvvvvvvvvvvvvvv2222222222222222222222222222vvvvvvvvvvvvvvvvvvvvvvvvvvvvvvvvvvvvvvvv",
"vvvvvvvvvvvvvvvvvvvvvvv2222222222222222222222222222vvvvvvvvvvvvvvvvvvvvvvvvvvvvvvvvvvvvvvvv",
"vvvvvvvvvvvvvvvvvvvvvvv2222222222222222222222222222vvvvvvvvvvvvvvvvvvvvvvvvvvvvvvvvvvvvvvvv",
"vvvvvvvvvvvvvvvvv2222222222222222222222222222222222222222vvvvvvvvvvvvvvvvvvvvvvoooooovvvvvv",
"vvvvvvvvvvvvvvvvv2222222222222222222222222222222222222222vvvvvvvvvvvvvvvvvvvvvvoooooovvvvvv",
"vvvvvvvvvvvvvvvvv2222222222222222222222222222222222222222vvvvvvvvvvvvvvvvvvvvvvoooooovvvvvv",
"vvvvvvvvvvvvvvvvv2222222222222222222222222222222222222222vvvvvvvvvvvvvvvvvvvvvvoooooovvvvvv",
"vvvvvvvvvvvvvvvvv2222222222222222222222222222222222222222vvvvvvvvvvvvvvvvvvvvvvoooooovvvvvv",
"vvvvvvvvvvvvvvvvv22222222222222222kkkkkd$$$$$*22222222222vvvvvvvvvvvvvvvvvooooooooooovvvvvv",
"vvvvvvvvvvvvvvvvv22222222222222222cccccz.....$22222222222vvvvvvvvvvvvvvvvvoooooovvvvvvvvvvv",
"vvvvvvvvvvvvvvvvv22222222222222222cccccz.....$22222222222vvvvvvvvvvvvvvvvvoooooovvvvvvvvvvv",
"vvvvvvvvvvvvvvvvv22222222222222222cccccz.....$22222222222vvvvvvvvvvvvvvvvvoooooovvvvvvvvvvv",
"vvvvvvvvvvvvvvvvv22222222222222222cccccz.....$22222222222vvvvvvvvvvvvvvvvvoooooovvvvvvvvvvv",
"vvvvvvvvvvvvvvvvv22222222222222222cccccz.....$22222222222vvvvvvvvvvvvvvvvvoooooovvvvvvvvvvv",
"vvvvvvvvvvv22222222222222222222222...........$22222222222vvvvvvvvvvvuuuuuuooooooooooovvvvvv",
"vvvvvvvvvvv22222222222222222222222...........$22222222222vvvvvvvvvvvuuuuuuooooooooooovvvvvv",
"vvvvvvvvvvv22222222222222222222222...........$22222222222vvvvvvvvvvvuuuuuuooooooooooovvvvvv",
"vvvvvvvvvvv22222222222222222222222...........$22222222222vvvvvvvvvvvuuuuuuooooooooooovvvvvv",
"vvvvvvvvvvv22222222222222222222222...........$22222222222vvvvvvvvvvvuuuuuuooooooooooovvvvvv",
"vvvvvvvvvvv22222222222222222222222           @22222222222vvvvvvvvvvvuuuuuu+++++Oooooovvvvvv",
"vvvvvvvvvvv22222222222222222222222XXXXXXXXXXX#22222222222vvvvvvvvvvvuuuuuuuuuuu%ooooovvvvvv",
"vvvvvvvvvvv22222222222222222222222XXXXXXXXXXX#22222222222vvvvvvvvvvvuuuuuuuuuuu%ooooovvvvvv",
"vvvvvvvvvvv22222222222222222222222XXXXXXXXXXX#22222222222vvvvvvvvvvvuuuuuuuuuuu%ooooovvvvvv",
"vvvvvvvvvvv22222222222222222222222XXXXXXXXXXX#22222222222vvvvvvvvvvvuuuuuuuuuuu%ooooovvvvvv",
"vvvvvvvvvvv22222222222222222222222XXXXXXXXXXX#22222222222vvvvvvvvvvvuuuuuuuuuuu%ooooovvvvvv",
"vvvvvvvvvvvv2222222222222222222222###########=2222222222vvvvvvvvvvvvuuuuuuuuuuu%ooooovvvvvv",
"vvvvvvvvvvvvvvvvv2222222222222222222222222222222222vvvvvvvvvvvvvvvvvuuuuuuuuuuu%ooooovvvvvv",
"vvvvvvvvvvvvvvvvv2222222222222222222222222222222222vvvvvvvvvvvvvvvvvuuuuuuuuuuu%ooooovvvvvv",
"vvvvvvvvvvvvvvvvv2222222222222222222222222222222222vvvvvvvvvvvvvvvvvuuuuuuuuuuu%ooooovvvvvv",
"vvvvvvvvvvvvvvvvv2222222222222222222222222222222222vvvvvvvvvvvvvvvvvuuuuuuuuuuu%ooooovvvvvv",
"vvvvvvvvvvvvvvvvv2222222222222222222222222222222222vvvvvvvvvvvvvvvvvuuuuuuuuuuu%ooooovvvvvv",
"vvvvvvvvvvvvvvvvvvvvvvvvvvvvryyyyy22222222222222222vvvvvvvvvvvvvvvvvvvvvvv33333&vvvvvvvvvvv",
"vvvvvvvvvvvvvvvvvvvvvvvvvvvvgggggg22222222222222222vvvvvvvvvvvvvvvvvvvvvvv222222vvvvvvvvvvv",
"vvvvvvvvvvvvvvvvvvvvvvvvvvvvgggggg22222222222222222vvvvvvvvvvvvvvvvvvvvvvv222222vvvvvvvvvvv",
"vvvvvvvvvvvvvvvvvvvvvvvvvvvvgggggg22222222222222222vvvvvvvvvvvvvvvvvvvvvvv222222vvvvvvvvvvv",
"vvvvvvvvvvvvvvvvvvvvvvvvvvvvgggggg22222222222222222vvvvvvvvvvvvvvvvvvvvvvv222222vvvvvvvvvvv",
"vvvvvvvvvvvvvvvvvvvvvvvvvvvvpggggg222221>>>>><22222vvvvvvvvvvvvvvvvvvvvvvv222222vvvvvvvvvvv",
"vvvvvvvvvvvvvvvvv-----------qggggg22222>-----;22222222222222222vvvvvvvvvvv222222vvvvvvvvvvv",
"vvvvvvvvvvvvvvvvv-----------qggggg22222>-----;22222222222222222vvvvvvvvvvv222222vvvvvvvvvvv",
"vvvvvvvvvvvvvvvvv-----------qggggg22222>-----;22222222222222222vvvvvvvvvvv222222vvvvvvvvvvv",
"vvvvvvvvvvvvvvvvv-----------qggggg22222>-----;22222222222222222vvvvvvvvvvv222222vvvvvvvvvvv",
"vvvvvvvvvvvvvvvvv-----------qggggg22222>-----;22222222222222222vvvvvvvvvvv222222vvvvvvvvvvv",
"vvvvvvvvvvvvvvvvv-----4qqqqqtggggg22222<;;;;;;;;;;;;;;;;:22222vvvvvvv22222222222vvvvvvvvvvv",
"vvvvvvvvvvvvvvvvvvvvvvvggggggggggg22222222222;-----------vvvvvvvvvvv222222222222vvvvvvvvvvv",
"vvvvvvvvvvvvvvvvvvvvvvvggggggggggg22222222222;-----------vvvvvvvvvvv222222222222vvvvvvvvvvv",
"vvvvvvvvvvvvvvvvvvvvvvvggggggggggg22222222222;-----------vvvvvvvvvvv222222222222vvvvvvvvvvv",
"vvvvvvvvvvvvvvvvvvvvvvvggggggggggg22222222222;-----------vvvvvvvvvvv222222222222vvvvvvvvvvv",
"vvvvvvvvvvvvvvvvvvvvvvvggggggggggg22222222222;-----------vvvvvvvvvvv222222222222vvvvvvvvvvv",
"vvvvvvvvvvvvvvvvvvvvvvvgggggggggggyyyyye22222<>>>>>>>>>>,22222222222222222vvvvvvvvvvvvvvvvv",
"vvvvvvvvvvvvvvvvvvvvvvvggggggggggggggggy2222222222222222222222222222222222vvvvvvvvvvvvvvvvv",
"vvvvvvvvvvvvvvvvvvvvvvvggggggggggggggggy2222222222222222222222222222222222vvvvvvvvvvvvvvvvv",
"vvvvvvvvvvvvvvvvvvvvvvvggggggggggggggggy2222222222222222222222222222222222vvvvvvvvvvvvvvvvv",
"vvvvvvvvvvvvvvvvvvvvvvvggggggggggggggggy2222222222222222222222222222222222vvvvvvvvvvvvvvvvv",
"vvvvvvvvvvvvvvvvvvvvvvvggggggggggggggggy2222222222222222222222222222222222vvvvvvvvvvvvvvvvv",
"vvvvvvvvvvvvvvvvvvvvvvv-----qggggggggggy2222222222222222222222222222ygggggvvvvvvvvvvvvvvvvv",
"vvvvvvvvvvvvvvvvvvvvvvv-----qggggggggggy2222222222222222222222222222ygggggvvvvvvvvvvvvvvvvv",
"vvvvvvvvvvvvvvvvvvvvvvv-----qggggggggggy2222222222222222222222222222ygggggvvvvvvvvvvvvvvvvv",
"vvvvvvvvvvvvvvvvvvvvvvv-----qggggggggggy2222222222222222222222222222ygggggvvvvvvvvvvvvvvvvv",
"vvvvvvvvvvvvvvvvvvvvvvv-----qggggggggggy2222222222222222222222222222ygggggvvvvvvvvvvvvvvvvv",
"vvvvvvvvvvvvvvvvvvvvvvv-----9qqqqqgggggfwwwww022222222228wwwwwwwwwwwagggggvvvvvvvvvvvvvvvvv",
"vvvvvvvvvvvvvvvvvvvvvvvvvvvv------gggggggggggw22222222220gggggggggggvvvvvvvvvvvvvvvvvvvvvvv",
"vvvvvvvvvvvvvvvvvvvvvvvvvvvv------gggggggggggw22222222220gggggggggggvvvvvvvvvvvvvvvvvvvvvvv",
"vvvvvvvvvvvvvvvvvvvvvvvvvvvv------gggggggggggw22222222220gggggggggggvvvvvvvvvvvvvvvvvvvvvvv",
"vvvvvvvvvvvvvvvvvvvvvvvvvvvv------gggggggggggw22222222220gggggggggggvvvvvvvvvvvvvvvvvvvvvvv",
"vvvvvvvvvvvvvvvvvvvvvvvvvvvv------gggggggggggw22222222220gggggggggggvvvvvvvvvvvvvvvvvvvvvvv",
"vvvvvvvvvvvvvvvvvvvvvvvccccch-----555556vvvvvlxxxxxi22227vvvvvvvvvvvvvvvvvvvvvvvvvvvvvvvvvv",
"vvvvvvvvvvvvvvvvvvvvvvvcccccj-----------vvvvvccccccs22222vvvvvvvvvvvvvvvvvvvvvvvvvvvvvvvvvv",
"vvvvvvvvvvvvvvvvvvvvvvvcccccj-----------vvvvvccccccs22222vvvvvvvvvvvvvvvvvvvvvvvvvvvvvvvvvv",
"vvvvvvvvvvvvvvvvvvvvvvvcccccj-----------vvvvvccccccs22222vvvvvvvvvvvvvvvvvvvvvvvvvvvvvvvvvv",
"vvvvvvvvvvvvvvvvvvvvvvvcccccj-----------vvvvvccccccs22222vvvvvvvvvvvvvvvvvvvvvvvvvvvvvvvvvv",
"vvvvvvvvvvvvvvvvvvvvvvvcccccj-----------vvvvvccccccs22222vvvvvvvvvvvvvvvvvvvvvvvvvvvvvvvvvv"
};
