/* XPM */
static char *result[] = {
/* columns rows colors chars-per-pixel */
"91 91 55 1 ",
"  c #4C2710",
". c #793D18",
"X c #0B6906",
"o c #486F11",
"O c #767318",
"+ c #FF0606",
"@ c #FF2006",
"# c #FF3006",
"$ c #FF3B06",
"% c #85741B",
"& c #A65320",
"* c #A47720",
"= c #FF4009",
"- c #FF6F06",
"; c #D26928",
": c #DD6F2A",
"> c #E0722F",
", c #E8752F",
"< c #EC772F",
"1 c #F07930",
"2 c #F37A30",
"3 c #F77C30",
"4 c #F97C30",
"5 c #FB7D30",
"6 c #FD7E30",
"7 c #FF7F30",
"8 c #FFA406",
"9 c #FFBE06",
"0 c #E88934",
"q c #EA8E35",
"w c #FF8933",
"e c #FF8E34",
"r c #EA9036",
"t c #EE9938",
"y c #FF9235",
"u c #F09F3A",
"i c #FFA63A",
"p c #FFB23D",
"a c #FFB93F",
"s c #FFCB0C",
"d c #FFD806",
"f c #FFC211",
"g c #D2895C",
"h c #FF8F4A",
"j c #FF9F64",
"k c #FFC242",
"l c #FFCC44",
"z c #A69388",
"x c #EDAE88",
"c c #F0B997",
"v c #FFBF98",
"b c #FFDBB0",
"n c #FFDFCB",
"m c white",
"M c None",
/* pixels */
"MMMMMMMMMMMMMMMMMMMMMMMMMMMMMMMMMMMMMMMMMMMMMMMMMMMMMMMMMMMMMMMMMMMMMMMMMMMMMMMMMMMMMMMMMMM",
"MMMMMMMMMMMMMMMMMMMMMMMMMMMMMMMMMMMMMMMMMMMMMMMMMMMMMMMMMMMMMMMMMMMMMMMMMMMMMMMMMMMMMMMMMMM",
"MMMMMMMMMMMMMMMMMMMMMMMMMMMMMMMMMMMMMMMMMMMMMMMMMMMMMMMMMMMMMMMMMMMMMMMMMMMMMMMMMMMMMMMMMMM",
"MMMMMMMMMMMMMMMMMMMMMMMMMMMMMMMMMMMMMMMMMMMMMMMMMMMMMMMMMMMMMMMMMMMMMMMMMMMMMMMMMMMMMMMMMMM",
"MMMMMMMMMMMMMMMMMMMMMMMMMMMMMMMMMMMMMMMMMMMMMMMMMMMMMMMMMMMMMMMMMMMMMMMMMMMMMMMMMMMMMMMMMMM",
"MMMMMMMMMMMMMMMMMMMMMMMMMMMMMMMMMMMMMMMMMMMMMMMMMMMMMMMMMMMMMMMMMMMMMMMMMMMMMMMMMMMMMMMMMMM",
"MMMMMMMMMMMMMMMMMMMMMMM77777777777777777MMMMMMMMMMMMMMMMMMMMMMMMMMMMMMMMMMMMMMMMMMMMMMMMMMM",
"MMMMMMMMMMMMMMMMMMMMMMM77777777777777777MMMMMMMMMMMMMMMMMMMMMMMMMMMMMMMMMMMMMMMMMMMMMMMMMMM",
"MMMMMMMMMMMMMMMMMMMMMMM77777777777777777MMMMMMMMMMMMMMMMMMMMMMMMMMMMMMMMMMMMMMMMMMMMMMMMMMM",
"MMMMMMMMMMMMMMMMMMMMMMM77777777777777777MMMMMMMMMMMMMMMMMMMMMMMMMMMMMMMMMMMMMMMMMMMMMMMMMMM",
"MMMMMMMMMMMMMMMMMMMMMMM77777777777777777MMMMMMMMMMMMMMMMMMMMMMMMMMMMMMMMMMMMMMMMMMMMMMMMMMM",
"MMMMMMMMMMMMMMMMM7777777777777777777777777777MMMMMMMMMMMMMMMMMMMMMMMMMMMMMMMMMMMMMMMMMMMMMM",
"MMMMMMMMMMMMMMMMM77777777777777777777777777777MMMMMMMMMMMMMMMMMMMMMMMMMMMMMMMMMMMMMMMMMMMMM",
"MMMMMMMMMMMMMMMMM77777777777777777777777777777MMMMMMMMMMMMMMMMMMMMMMMMMMMMMMMMMMMMMMMMMMMMM",
"MMMMMMMMMMMMMMMMM77777777777777777777777777777MMMMMMMMMMMMMMMMMMMMMMMMMMMMMMMMMMMMMMMMMMMMM",
"MMMMMMMMMMMMMMMMM77777777777777777777777777777MMMMMMMMMMMMMMMMMMMMMMMMMMMMMMMMMMMMMMMMMMMMM",
"MMMMMMMMMMMMMMMMM77777777777777777777777777777MMMMMMMMMMMMMMMMMMMMMMMMMMMMMMMMMMMMMMMMMMMMM",
"MMMMMMMMMMM7777777777777777777777777777777777777777MMMMMMMMMMMMMMMMMMMMMMMMMMMMMMMMMMMMMMMM",
"MMMMMMMMMMM7777777777777777777777777777777777777777MMMMMMMMMMMMMMMMMMMMMMMMMMMMMMMMMMMMMMMM",
"MMMMMMMMMMM7777777777777777777777777777777777777777MMMMMMMMMMMMMMMMMMMMMMMMMMMMMMMMMMMMMMMM",
"MMMMMMMMMMM7777777777777777777777777777777777777777MMMMMMMMMMMMMMMMMMMMMMMMMMMMMMMMMMMMMMMM",
"MMMMMMMMMMM7777777777777777777777777777777777777777MMMMMMMMMMMMMMMMMMMMMMMMMMMMMMMMMMMMMMMM",
"MMMMMMMMMMM77777777777777777hjjjjj;;;;;:77777777777MMMMMMMMMMMMMMMMMMMMMMMMMMMMMMMMMMMMMMMM",
"MMMMMMMMMMM77777777777777777vmmmmm     .77777777777MMMMMMMMMMMMMMMMMMMMMMM++++++MMMMMMMMMMM",
"MMMMMMMMMMM77777777777777777vmmmmm     .77777777777MMMMMMMMMMMMMMMMMMMMMMM++++++MMMMMMMMMMM",
"MMMMMMMMMMM77777777777777777vmmmmm     .77777777777MMMMMMMMMMMMMMMMMMMMMMM++++++MMMMMMMMMMM",
"MMMMMMMMMMM77777777777777777vmmmmm     .77777777777MMMMMMMMMMMMMMMMMMMMMMM++++++MMMMMMMMMMM",
"MMMMMMMMMMM77777777777777777vmmmmm     .77777777777MMMMMMMMMMMMMMMMMMMMMMM++++++MMMMMMMMMMM",
"MMMMMM7777777777777777777777gzzzzz     .77777777777MMMMMMMMMMMMMMMMMMMMMMM+++++++++++MMMMMM",
"MMMMMM7777777777777777777777&          .77777777777MMMMMMMMMMMMMMMMMMMMMMMMMMMM++++++MMMMMM",
"MMMMMM7777777777777777777777&          .77777777777MMMMMMMMMMMMMMMMMMMMMMMMMMMM++++++MMMMMM",
"MMMMMM7777777777777777777777&          .77777777777MMMMMMMMMMMMMMMMMMMMMMMMMMMM++++++MMMMMM",
"MMMMMM7777777777777777777777&          .77777777777MMMMMMMMMMMMMMMMMMMMMMMMMMMM++++++MMMMMM",
"MMMMMM7777777777777777777777&          .77777777777MMMMMMMMMMMMMMMMMMMMMMMMMMMM++++++MMMMMM",
"MMMMMM7777777777777777777777%XXXXXXXXXXo77777777777MMMMMMMMMMMMMMMMMMMMMMMMMMMM++++++++++++",
"MMMMMM7777777777777777777777%XXXXXXXXXXo77777777777MMMMMMMMMMMMMMMMMMMMMMMMMMMM++++++++++++",
"MMMMMM7777777777777777777777%XXXXXXXXXXo77777777777MMMMMMMMMMMMMMMMMMMMMMMMMMMM++++++++++++",
"MMMMMM7777777777777777777777%XXXXXXXXXXo77777777777MMMMMMMMMMMMMMMMMMMMMMMMMMMM++++++++++++",
"MMMMMM7777777777777777777777%XXXXXXXXXXo77777777777MMMMMMMMMMMMMMMMMMMMMMMMMMMM++++++++++++",
"MMMMMM7777777777777777777777*ooooooooooO77777777777MMMMMMMMMMMMMMMMMMMMMMMMMMMM#+++++++++++",
"MMMMMMMMMMM77777777777777777777777777777777777MMMMMMMMMMMMMMMMMMMMMMMMMMMMddddd-+++++++++++",
"MMMMMMMMMMM77777777777777777777777777777777777MMMMMMMMMMMMMMMMMMMMMMMMMMMMddddd-+++++++++++",
"MMMMMMMMMMM77777777777777777777777777777777777MMMMMMMMMMMMMMMMMMMMMMMMMMMMddddd-+++++++++++",
"MMMMMMMMMMM77777777777777777777777777777777777MMMMMMMMMMMMMMMMMMMMMMMMMMMMddddd-+++++++++++",
"MMMMMMMMMMM77777777777777777777777777777777777MMMMMMMMMMMMMMMMMMMMMMMMMMMMddddd-+++++++++++",
"MMMMMMMMMMMM7777777777eiiiiiy77777111112777777MMMMMMMMMMMMMMMMMMMMMMMMMMMM-----------@+++++",
"MMMMMMMMMMMMMMMMMMMMMMMllllli77777>>>>>,777777MMMMMMMMMMMMMMMMMMMMMMMMMMMM+++++-ddddd$+++++",
"MMMMMMMMMMMMMMMMMMMMMMMllllli77777>>>>>,777777MMMMMMMMMMMMMMMMMMMMMMMMMMMM+++++-ddddd$+++++",
"MMMMMMMMMMMMMMMMMMMMMMMllllli77777>>>>>,777777MMMMMMMMMMMMMMMMMMMMMMMMMMMM+++++-ddddd$+++++",
"MMMMMMMMMMMMMMMMMMMMMMMllllli77777>>>>>,777777MMMMMMMMMMMMMMMMMMMMMMMMMMMM+++++-ddddd$+++++",
"MMMMMMMMMMMMMMMMMMMMMMMllllli77777>>>>>,777777MMMMMMMMMMMMMMMMMMMMMMMMMMMM+++++-ddddd$+++++",
"MMMMMMMMMMMMMMMMM>>>>>qllllli77777>>>>>,77777777777MMMMMMMMMMMMMMMMMMMMMMM888889ddddd$+++++",
"MMMMMMMMMMMMMMMMM>>>>>0llllli77777>>>>>,77777777777MMMMMMMMMMMMMMMMMMMMMMMddddddddddd$+++++",
"MMMMMMMMMMMMMMMMM>>>>>0llllli77777>>>>>,77777777777MMMMMMMMMMMMMMMMMMMMMMMddddddddddd$+++++",
"MMMMMMMMMMMMMMMMM>>>>>0llllli77777>>>>>,77777777777MMMMMMMMMMMMMMMMMMMMMMMddddddddddd$+++++",
"MMMMMMMMMMMMMMMMM>>>>>0llllli77777>>>>>,77777777777MMMMMMMMMMMMMMMMMMMMMMMddddddddddd$+++++",
"MMMMMMMMMMMMMMMMM00000tllllli77777,,,,,<33333577777MMMMMMMMMMMMMMMMMMMMMMMdddddsfffff=+++++",
"MMMMMMMMMMM>>>>>>llllllllllli77777777773>>>>>177777MMMMMMMMMMMMMMMMMMMMMMMMMMMM777777MMMMMM",
"MMMMMMMMMMM>>>>>>llllllllllli77777777773>>>>>177777MMMMMMMMMMMMMMMMMMMMMMMMMMMM777777MMMMMM",
"MMMMMMMMMMM>>>>>>llllllllllli77777777773>>>>>177777MMMMMMMMMMMMMMMMMMMMMMMMMMMM777777MMMMMM",
"MMMMMMMMMMM>>>>>>llllllllllli77777777773>>>>>177777MMMMMMMMMMMMMMMMMMMMMMMMMMMM777777MMMMMM",
"MMMMMMMMMMM>>>>>>llllllllllli77777777773>>>>>177777MMMMMMMMMMMMMMMMMMMMMMMMMMMM777777MMMMMM",
"MMMMMMMMMMMM>>>>>lllllllllllaiiiii7777751111111111147777MMMMMMMMMMMMMMMMMM77777777777MMMMMM",
"MMMMMMMMMMMMMMMMMlllllllllllllllll777777777771>>>>>377777MMMMMMMMMMMMMMMMM777777MMMMMMMMMMM",
"MMMMMMMMMMMMMMMMMlllllllllllllllll777777777771>>>>>377777MMMMMMMMMMMMMMMMM777777MMMMMMMMMMM",
"MMMMMMMMMMMMMMMMMlllllllllllllllll777777777771>>>>>377777MMMMMMMMMMMMMMMMM777777MMMMMMMMMMM",
"MMMMMMMMMMMMMMMMMlllllllllllllllll777777777771>>>>>377777MMMMMMMMMMMMMMMMM777777MMMMMMMMMMM",
"MMMMMMMMMMMMMMMMMlllllllllllllllll777777777771>>>>>377777MMMMMMMMMMMMMMMMM777777MMMMMMMMMMM",
"MMMMMMMMMMMMMMMMM00000tlllllllllll7777777777753333367777777777777777777777777777MMMMMMMMMMM",
"MMMMMMMMMMMMMMMMM>>>>>0lllllllllll7777777777777777777777777777777777777777777777MMMMMMMMMMM",
"MMMMMMMMMMMMMMMMM>>>>>0lllllllllll7777777777777777777777777777777777777777777777MMMMMMMMMMM",
"MMMMMMMMMMMMMMMMM>>>>>0lllllllllll7777777777777777777777777777777777777777777777MMMMMMMMMMM",
"MMMMMMMMMMMMMMMMM>>>>>0lllllllllll7777777777777777777777777777777777777777777777MMMMMMMMMMM",
"MMMMMMMMMMMMMMMMM>>>>>0lllllllllll7777777777777777777777777777777777777777777777MMMMMMMMMMM",
"MMMMMMMMMMMMMMMMMMMMMMM>>>>>ulllllllllla7777777777777777777777illlllllllllMMMMMMMMMMMMMMMMM",
"MMMMMMMMMMMMMMMMMMMMMMM>>>>>ulllllllllla7777777777777777777777illlllllllllMMMMMMMMMMMMMMMMM",
"MMMMMMMMMMMMMMMMMMMMMMM>>>>>ulllllllllla7777777777777777777777illlllllllllMMMMMMMMMMMMMMMMM",
"MMMMMMMMMMMMMMMMMMMMMMM>>>>>ulllllllllla7777777777777777777777illlllllllllMMMMMMMMMMMMMMMMM",
"MMMMMMMMMMMMMMMMMMMMMMM>>>>>ulllllllllla7777777777777777777777illlllllllllMMMMMMMMMMMMMMMMM",
"MMMMMMMMMMMMMMMMMMMMMMM>>>>>ruuuuulllllkiiiiiy7777777777wiiiiiplllllllllllMMMMMMMMMMMMMMMMM",
"MMMMMMMMMMMMMMMMMMMMMMMMMMMM>>>>>>llllllllllli7777777777yllllllMMMMMMMMMMMMMMMMMMMMMMMMMMMM",
"MMMMMMMMMMMMMMMMMMMMMMMMMMMM>>>>>>llllllllllli7777777777yllllllMMMMMMMMMMMMMMMMMMMMMMMMMMMM",
"MMMMMMMMMMMMMMMMMMMMMMMMMMMM>>>>>>llllllllllli7777777777yllllllMMMMMMMMMMMMMMMMMMMMMMMMMMMM",
"MMMMMMMMMMMMMMMMMMMMMMMMMMMM>>>>>>llllllllllli7777777777yllllllMMMMMMMMMMMMMMMMMMMMMMMMMMMM",
"MMMMMMMMMMMMMMMMMMMMMMMMMMMM>>>>>>llllllllllli7777777777yllllllMMMMMMMMMMMMMMMMMMMMMMMMMMMM",
"MMMMMMMMMMMMMMMMMMMMMMMmmmmmx>>>>>MMMMMMMMMMMbnnnnnMMMMMMMMMMMMMMMMMMMMMMMMMMMMMMMMMMMMMMMM",
"MMMMMMMMMMMMMMMMMMMMMMMmmmmmc>>>>>MMMMMMMMMMMmmmmmmMMMMMMMMMMMMMMMMMMMMMMMMMMMMMMMMMMMMMMMM",
"MMMMMMMMMMMMMMMMMMMMMMMmmmmmc>>>>>MMMMMMMMMMMmmmmmmMMMMMMMMMMMMMMMMMMMMMMMMMMMMMMMMMMMMMMMM",
"MMMMMMMMMMMMMMMMMMMMMMMmmmmmc>>>>>MMMMMMMMMMMmmmmmmMMMMMMMMMMMMMMMMMMMMMMMMMMMMMMMMMMMMMMMM",
"MMMMMMMMMMMMMMMMMMMMMMMmmmmmc>>>>>MMMMMMMMMMMmmmmmmMMMMMMMMMMMMMMMMMMMMMMMMMMMMMMMMMMMMMMMM",
"MMMMMMMMMMMMMMMMMMMMMMMmmmmmc>>>>>MMMMMMMMMMMmmmmmmMMMMMMMMMMMMMMMMMMMMMMMMMMMMMMMMMMMMMMMM"
};
