/* XPM */
static char *result[] = {
/* columns rows colors chars-per-pixel */
"32 32 158 2 ",
"   c #0A1D24",
".  c #0F2326",
"X  c #0E2529",
"o  c #102629",
"O  c #162B2C",
"+  c #15312F",
"@  c #19302C",
"#  c #193732",
"$  c #233B34",
"%  c #1E4137",
"&  c #1D4138",
"*  c #264234",
"=  c #294536",
"-  c #2C453A",
";  c #224B3F",
":  c #2B4C3A",
">  c #304E39",
",  c #2D523E",
"<  c #34553E",
"1  c #38593F",
"2  c #314443",
"3  c #374C46",
"4  c #384C46",
"5  c #374A48",
"6  c #265545",
"7  c #295644",
"8  c #2D5A46",
"9  c #2A5D4A",
"0  c #325D45",
"q  c #3B5E41",
"w  c #2E644E",
"e  c #356046",
"r  c #3E6243",
"t  c #33644B",
"y  c #3C6048",
"u  c #35694E",
"i  c #3B6C4E",
"p  c #3F714F",
"a  c #306750",
"s  c #326A51",
"d  c #396C51",
"f  c #3D7453",
"g  c #3F7854",
"h  c #40564C",
"j  c #416544",
"k  c #466C47",
"l  c #426B4C",
"z  c #41724F",
"x  c #4C744C",
"c  c #4F794D",
"v  c #527D4F",
"b  c #446654",
"n  c #456D52",
"m  c #4B6B56",
"M  c #416A58",
"N  c #4D6F5D",
"B  c #417552",
"V  c #4B7554",
"C  c #447D56",
"Z  c #4B7B52",
"A  c #4A735A",
"S  c #4C7D5B",
"D  c #527E53",
"F  c #55735A",
"G  c #56795B",
"H  c #4C7A63",
"J  c #5E7A66",
"K  c #4E8155",
"L  c #4A825A",
"P  c #4F885A",
"I  c #558353",
"U  c #598552",
"Y  c #5B8B56",
"T  c #5A8158",
"R  c #558D5C",
"E  c #5C8C58",
"W  c #5D935D",
"Q  c #5E985F",
"!  c #629157",
"~  c #66965A",
"^  c #659A5D",
"/  c #6A9C5D",
"(  c #6EA05E",
")  c #70A35F",
"_  c #548366",
"`  c #588260",
"'  c #568866",
"]  c #548569",
"[  c #58866C",
"{  c #56896A",
"}  c #5F9860",
"|  c #5E906B",
" . c #5C8C70",
".. c #618765",
"X. c #698969",
"o. c #708F6D",
"O. c #619662",
"+. c #649D61",
"@. c #6E9E60",
"#. c #61936D",
"$. c #719F6C",
"%. c #6F8A77",
"&. c #789377",
"*. c #6DA261",
"=. c #6FA865",
"-. c #6BA268",
";. c #72A763",
":. c #73AB65",
">. c #79AD67",
",. c #77A06C",
"<. c #77AC68",
"1. c #7BAB6B",
"2. c #76B067",
"3. c #7DB567",
"4. c #7FB768",
"5. c #7FB869",
"6. c #72A073",
"7. c #7CAD74",
"8. c #80B768",
"9. c #83BD6B",
"0. c #83B274",
"q. c #87B977",
"w. c #83B379",
"e. c #88B17D",
"r. c #89B87C",
"t. c #90BE7B",
"y. c #86C06C",
"u. c #8CC373",
"i. c #8EC079",
"p. c #90C37B",
"a. c #96CA7E",
"s. c #879D88",
"d. c #82A689",
"f. c #89A28B",
"g. c #8CB18F",
"h. c #96B690",
"j. c #99B591",
"k. c #92B894",
"l. c #9ABD92",
"z. c #97BD98",
"x. c #99BE9A",
"c. c #97C980",
"v. c #9ACC83",
"b. c #9CC196",
"n. c #9EC198",
"m. c #A3C597",
"M. c #A2C59A",
"N. c #A3CA9D",
"B. c #A8C89B",
"V. c #B0D59D",
"C. c #A1C4A1",
"Z. c #B7DDA2",
"A. c #B4D4AF",
"S. c #BADDAB",
"D. c #BAE0A5",
"F. c #C1E2AE",
"G. c #C3E5B0",
"H. c #C9EAB6",
/* pixels */
"y.y.y.y.y.y.y.y.9.Y # o .   . O @ $ * q Y ) 9.y.y.:.L a a L =.y.",
"y.8.2.:.=.2.5.3./ S y 3 = = = > < 1 q x E / ) ;.:.-.#. . .| -.=.",
"y.2.R C C R :.+.y l O.@./ ^ ^ ^ / / / ( ;.^ I D K | b.A.A.n.| L ",
":.-.#. . .| } I q c >.y.y.y.y.y.y.y.9.y.9.;.I V i _ n.H.H.n.{ s ",
"L #.n.A.A.g.A i Y ;.8.y.y.y.y.y.y.y.y.y.y.8.:.! i f 7.v.v.7.P s ",
"a { N.H.H.z.N l ( y.y.y.y.y.y.y.y.y.y.y.y.y.9.;.l t *.5.2.-.P C ",
"a L 7.v.v.e.J m / y.y.y.y.y.y.y.y.y.y.y.y.y.y.1.n 8 Q 2.R P -.=.",
"L P *.>.8.e.&.X.<.y.y.y.y.y.y.y.y.y.y.y.y.y.y.8...A } } g L =.y.",
"=.-.P P :.r.B.B.i.y.y.y.y.y.y.y.y.y.y.y.y.y.y.i.l.d.' g s L :.y.",
"y.=.L g W r.F.F.a.y.y.y.y.y.y.y.y.y.y.y.y.y.y.v.S.C.] s g R 2.y.",
"y.=.L s f 6.D.F.v.y.y.y.y.y.y.y.y.y.y.y.y.y.y.v.S.n.] f } 2.5.y.",
"y.2.R g d { k.b.i.y.y.y.y.y.y.y.y.y.y.y.y.y.y.i.l.d.H B =.y.y.y.",
"y.5.2.Q g d n G :.y.y.y.y.y.y.y.y.y.y.y.y.y.y.<.` M s C =.y.y.y.",
"y.y.y.2.R u ; , I ) 8.y.y.y.y.y.y.y.y.y.y.4.( I 0 7 f R 2.y.y.y.",
"y.y.y.5.2.R w 7 : j ) y.y.y.y.y.y.y.y.y.9.( j : 8 d Q :.5.y.y.y.",
"y.y.y.y.y.*.p 8 : q U ~ ~ ( 4.y.y.4.( ~ ~ U q , e f Q =.=.<.9.y.",
"y.y.y.y.8./ h q U U 1 * * q ( y.y.( q * * 1 U U j q B C C R 3.9.",
"y.5.2.*.~ U k c ) ( j * * j ( y.y.( r * * r ( ) v j V H [ #.-.:.",
"y.2.R f 0 r ~ ) 8.8.( ~ ~ ) 3.y.y.3.( ~ ~ ) 8.8.) Y G %.x.z.#.C ",
"=.-.| J B I ) 8.( ( 3.y.y.y.y.y.y.y.y.y.9.8./ ( 4.;.T o.M.b.] s ",
"C | k.n.e.8.8.@.q j ( y.y.y.y.y.y.y.y.y.y.( j r ( 8.:.;.7.$.S w ",
"a { b.V.a.u.a.$.= * ~ y.y.y.y.y.y.y.y.y.y.~ * - $.a.u.4.~ I K C ",
"a S 7.i.t.a.S.j.< * ~ y.y.y.y.y.y.y.y.y.y.~ * 4 j.Z.a.3.Z i W :.",
"L P +.:.;.0.B.s.- * ~ y.y.y.y.y.y.y.y.y.y.~ * 4 f.m.q.*.z i *.y.",
"=.+.P K c c F h O * ~ y.y.y.y.y.y.9.9.y.y.~ = $ m F S Z u B =.y.",
"y.=.L i i r < $ o = ~ y.y.3.) ~ ~ ( 4.9.y.( 1 = 7 6 9 a f R 2.y.",
"y.=.L s i B Z e # : ~ y.y.( r = = j / 9.9.( c i u w w g Q 2.5.y.",
"y.2.R g d g P p % , / y.y.~ *     * ^ 9.9.*.I c d a t C :.y.y.y.",
"y.9.2.} g d g u % , / y.y.~ =   . = ~ 9.9.*.C u s s w L =.y.y.y.",
"y.y.y.2.R g s w ; 8 W =.=.Y , + @ , Y :.=.Q f w a d g R 2.y.y.y.",
"y.y.y.5.2.} g w w w L L L f w 7 7 w f L L P g a w g } 2.9.y.y.y.",
"y.y.y.y.y.=.L a a s f d s u s s u s s d s g f a a L =.y.y.y.y.y."
};
