/* XPM */
static char *_568f1286d824f54b0c182d2bbffd5baw1pzj9spKWtDLlE4[] = {
/* columns rows colors chars-per-pixel */
"32 32 190 2 ",
"   c None",
".  c #071821",
"X  c #071922",
"o  c #091B23",
"O  c #091C23",
"+  c #0C2126",
"@  c #0F2226",
"#  c #0F2326",
"$  c #0D2328",
"%  c #0E2528",
"&  c #0E2629",
"*  c #0F272A",
"=  c #102426",
"-  c #15262C",
";  c #10292B",
":  c #102A2C",
">  c #102B2C",
",  c #112B2C",
"<  c #112C2D",
"1  c #122D2D",
"2  c #122D2E",
"3  c #132F2F",
"4  c #1F372F",
"5  c #1F382F",
"6  c #173834",
"7  c #193C36",
"8  c #20382F",
"9  c #203A30",
"0  c #1D423A",
"q  c #1D433A",
"w  c #1F473D",
"e  c #274234",
"r  c #274537",
"t  c #264637",
"y  c #294636",
"u  c #2A4736",
"i  c #2C4937",
"p  c #2C453A",
"a  c #2C463A",
"s  c #254C3D",
"d  c #264E3F",
"f  c #294939",
"g  c #2A4A39",
"h  c #2A4B39",
"j  c #2A4B3A",
"k  c #2F493C",
"l  c #334E3E",
"z  c #32503A",
"x  c #32513A",
"c  c #32513B",
"v  c #33533B",
"b  c #36563D",
"n  c #37573D",
"m  c #37583E",
"M  c #224C40",
"N  c #234F41",
"B  c #304242",
"V  c #314342",
"C  c #314443",
"Z  c #344745",
"A  c #384C46",
"S  c #384D46",
"D  c #3A4F48",
"F  c #245042",
"G  c #245142",
"H  c #255243",
"J  c #255344",
"K  c #265444",
"L  c #265545",
"P  c #275646",
"I  c #285947",
"U  c #295A48",
"Y  c #2C604B",
"T  c #2D634D",
"R  c #3E6142",
"E  c #3F6142",
"W  c #3F6242",
"Q  c #3F6342",
"!  c #306850",
"~  c #435651",
"^  c #435752",
"/  c #445752",
"(  c #455953",
")  c #475A55",
"_  c #4A5D57",
"`  c #4A5E57",
"'  c #4C5F58",
"]  c #406343",
"[  c #426644",
"{  c #436845",
"}  c #446845",
"|  c #466B46",
" . c #4E754B",
".. c #4E764B",
"X. c #4F774C",
"o. c #50794C",
"O. c #537D4E",
"+. c #547F4F",
"@. c #4C6256",
"#. c #4F6C54",
"$. c #57755A",
"%. c #59775B",
"&. c #5A795C",
"*. c #5F7E5F",
"=. c #556960",
"-. c #548050",
";. c #558150",
":. c #568150",
">. c #578250",
",. c #619057",
"<. c #659459",
"1. c #669559",
"2. c #669659",
"3. c #67975A",
"4. c #68995A",
"5. c #6C9E5D",
"6. c #6EA05E",
"7. c #6EA15E",
"8. c #6FA15E",
"9. c #70A25F",
"0. c #70A35F",
"q. c #71A460",
"w. c #72A560",
"e. c #72A660",
"r. c #74A464",
"t. c #76AB63",
"y. c #77AC63",
"u. c #78AD63",
"i. c #78A966",
"p. c #78AA67",
"a. c #79AB67",
"s. c #78AE64",
"d. c #79AE64",
"f. c #7AAF65",
"g. c #77A06C",
"h. c #77A16C",
"j. c #7AA46E",
"k. c #7BAD68",
"l. c #7AB065",
"z. c #7BB165",
"x. c #7BB266",
"c. c #7CB266",
"v. c #7DB366",
"b. c #7DB466",
"n. c #7EB567",
"m. c #7EB667",
"M. c #7FB768",
"N. c #7DA870",
"B. c #80B868",
"V. c #81B969",
"C. c #82BB6A",
"Z. c #86C06C",
"A. c #8CC372",
"S. c #8FC07A",
"D. c #90C27A",
"F. c #90C27B",
"G. c #91C27B",
"H. c #91C37B",
"J. c #92C17E",
"K. c #97CA7F",
"L. c #97CB7F",
"P. c #829784",
"I. c #859A86",
"U. c #99B591",
"Y. c #99B691",
"T. c #9BB893",
"R. c #A2B89D",
"E. c #A6BCA1",
"W. c #A7BEA2",
"Q. c #9CCE84",
"!. c #9DCE85",
"~. c #A1C096",
"^. c #A5C599",
"/. c #A6C69A",
"(. c #A7C79A",
"). c #A9C79D",
"_. c #AACA9C",
"`. c #ABC1A4",
"'. c #ACC3A5",
"]. c #AFC5A8",
"[. c #B0C7A9",
"{. c #B5CBAC",
"}. c #B9DFA4",
"|. c #BADAAB",
" X c #C9EAB5",
".X c #C9EAB6",
"XX c #CAEAB6",
"oX c #D5ECC6",
"OX c #D5EDC6",
"+X c #D6EEC7",
/* pixels */
"                                    . . .                       ",
"                                  [ n c n                       ",
"                  c 3.f.z.v.b.v.z.u.e.9.e.3.                    ",
"                c  .t.Z.Z.Z.Z.Z.Z.Z.Z.Z.Z.f.O.                  ",
"                4.t.V.Z.Z.Z.Z.Z.Z.Z.Z.Z.Z.V.f.5.                ",
"              ] y.Z.Z.Z.Z.Z.Z.Z.Z.Z.Z.Z.Z.Z.Z.f.|               ",
"              c 9.Z.Z.Z.Z.Z.Z.Z.Z.Z.Z.Z.Z.Z.Z.e.n               ",
"            ) &.a.Z.Z.Z.Z.Z.Z.Z.Z.Z.Z.Z.Z.Z.Z.k.*.'             ",
"            './.G.Z.Z.Z.Z.Z.Z.Z.Z.Z.Z.Z.Z.Z.Z.G._.[.            ",
"            OX.XQ.Z.Z.Z.Z.Z.Z.Z.Z.Z.Z.Z.Z.Z.Z.Q..XOX            ",
"            OX.XQ.Z.Z.Z.Z.Z.Z.Z.Z.Z.Z.Z.Z.Z.Z.Q..XOX            ",
"            `./.G.Z.Z.Z.Z.Z.Z.Z.Z.Z.Z.Z.Z.Z.Z.G./.E.            ",
"            ( %.a.Z.Z.Z.Z.Z.Z.Z.Z.Z.Z.Z.Z.Z.Z.a.$.~             ",
"            : h >.6.b.Z.Z.Z.Z.Z.Z.Z.Z.Z.Z.b.6.>.h <             ",
"            G s r Q 6.Z.Z.Z.Z.Z.Z.Z.Z.Z.Z.6.Q r s K             ",
"            G s r m >.3.3.6.b.Z.Z.b.6.3.3.>.n r s J             ",
"            ; h >.>.n e e Q 6.Z.Z.6.Q e e n >.+.h <             ",
"            i | e.6.Q e e Q 6.Z.Z.6.Q e e Q 6.e.{ y             ",
"            3.e.V.b.6.3.3.6.b.Z.Z.b.6.3.3.6.b.M.e.,.            ",
"            J.S.r.6.b.Z.Z.Z.Z.Z.Z.Z.Z.b.6.6.b.Z.Z.z.            ",
"            |.~.#.Q 6.Z.Z.Z.Z.Z.Z.Z.Z.6.Q Q 6.Z.Z.z.            ",
"            E.I.B 5  .3.3.6.b.Z.Z.Z.Z.3.e p g.L.A.z.            ",
"            / Z - + 4 e e Q 6.Z.Z.Z.Z.3.e A U.}.L.z.            ",
"              o . + 5 e e n >.6.b.Z.Z.3.e B P.T.j.,.            ",
"                o 9 o.3.3.>.n Q 6.Z.Z.3.e - B D k y             ",
"                O l N.Q.Q.g.p 5  .3.3.X.8 O & & $ &             ",
"                  @.)..X.XU.A + 4 e e 5 = & q M w               ",
"                  =.R.{.].P.B . . . . O & 6 K !                 ",
"                    ` ` ~ C - . . . . & q K Y                   ",
"                      + & ; : : < < < 7 I !                     ",
"                        M G G J K K K U T !                     ",
"                        ! ! ! ! ! ! ! ! ! !                     "
};
