/* XPM */
static char *result[] = {
/* columns rows colors chars-per-pixel */
"32 32 167 2 ",
"   c #0A1C23",
".  c #0D2026",
"X  c #0E2529",
"o  c #112527",
"O  c #13272A",
"+  c #142B2C",
"@  c #182D2C",
"#  c #15312F",
"$  c #1C342E",
"%  c #1B2E31",
"&  c #163230",
"*  c #1C3432",
"=  c #1C3A33",
"-  c #20392F",
";  c #213C31",
":  c #203D38",
">  c #1E443A",
",  c #274234",
"<  c #294535",
"1  c #24473B",
"2  c #2C453A",
"3  c #244B3D",
"4  c #2C4A3A",
"5  c #2C513E",
"6  c #33543D",
"7  c #38593E",
"8  c #314543",
"9  c #384C46",
"0  c #275141",
"q  c #2A5442",
"w  c #2B5946",
"e  c #2B5C48",
"r  c #3A5047",
"t  c #325A44",
"y  c #3A5E44",
"u  c #3C544C",
"i  c #305C4C",
"p  c #3C5A50",
"a  c #2E634C",
"s  c #3E6142",
"d  c #32634B",
"f  c #3A664A",
"g  c #36694D",
"h  c #3A6B4D",
"j  c #376651",
"k  c #326A51",
"l  c #3C6E51",
"z  c #3D7453",
"x  c #445B51",
"c  c #406343",
"v  c #436A47",
"b  c #42644B",
"n  c #456D49",
"m  c #4A6F4B",
"M  c #4C744B",
"N  c #4F794C",
"B  c #50794D",
"V  c #426454",
"C  c #486357",
"Z  c #486850",
"A  c #4A6B5C",
"S  c #506C54",
"D  c #427651",
"F  c #447C56",
"G  c #4C7C53",
"H  c #497159",
"J  c #4E7A5B",
"K  c #547F50",
"L  c #547459",
"P  c #597A5E",
"I  c #587361",
"U  c #507C65",
"Y  c #4E8255",
"T  c #4B825C",
"R  c #558252",
"E  c #598553",
"W  c #548857",
"Q  c #5B8C56",
"!  c #5C845B",
"~  c #548C5B",
"^  c #598E5A",
"/  c #5C935D",
"(  c #5F985F",
")  c #608E56",
"_  c #638E5C",
"`  c #66965A",
"'  c #65995D",
"]  c #6A9B5C",
"[  c #6EA15E",
"{  c #538265",
"}  c #5D8260",
"|  c #5D8D62",
" . c #548168",
".. c #58876C",
"X. c #56886A",
"o. c #59886E",
"O. c #5F9860",
"+. c #5D906A",
"@. c #5C8C70",
"#. c #638364",
"$. c #618863",
"%. c #648668",
"&. c #609461",
"*. c #649D61",
"=. c #6D9E60",
"-. c #61936D",
";. c #759F6B",
":. c #738E73",
">. c #709C72",
",. c #7B967A",
"<. c #6CA462",
"1. c #6BA268",
"2. c #73A662",
"3. c #72AB65",
"4. c #78AF66",
"5. c #77A06C",
"6. c #7AAD6A",
"7. c #76B067",
"8. c #7EB567",
"9. c #7EB56A",
"0. c #7FB969",
"q. c #79AB72",
"w. c #80B06F",
"e. c #83BC6B",
"r. c #80AD73",
"t. c #84AD7E",
"y. c #82B276",
"u. c #88B577",
"i. c #8ABE77",
"p. c #82B479",
"a. c #89B579",
"s. c #8BB979",
"d. c #86C06C",
"f. c #8BC272",
"g. c #8FC07A",
"h. c #91C27B",
"j. c #96CA7F",
"k. c #7F9681",
"l. c #829A85",
"z. c #85A289",
"x. c #88A68B",
"c. c #8BAC8D",
"v. c #90B887",
"b. c #96B48F",
"n. c #94B590",
"m. c #99B591",
"M. c #97B993",
"N. c #9BB993",
"B. c #99BE9A",
"V. c #96C781",
"C. c #97CB80",
"Z. c #9BCD84",
"A. c #9FC69A",
"S. c #A1C296",
"D. c #A6C69A",
"F. c #A3C99D",
"G. c #A5C1A1",
"H. c #AAC5A5",
"J. c #AFCEA2",
"K. c #ADCCA9",
"L. c #B2D1A4",
"P. c #B8DFA4",
"I. c #B4D4AF",
"U. c #BEDFAF",
"Y. c #C4E5B1",
"T. c #C6E8B4",
"R. c #C9EAB6",
/* pixels */
"d.d.d.d.d.d.e.e.e.W : X             O $ , c [ e.d.3.T k k T 3.d.",
"e.e.7.3.3.7.e.7.` B y 6 2 < < < < < 4 6 7 n ) 2.3.1.-.o.X.+.1.3.",
"d.4.~ F F ~ 3.' t y _ [ ] ` ] ] ] ` ` ] ] Q m M G +.B.I.I.A.+.T ",
"3.1.-.@.@.X.O.G t M 2.d.e.d.e.d.e.d.d.e.d.2.N v g { A.R.T.A.X.a ",
"T +.B.I.I.c.H h E 2.e.d.d.d.d.d.d.d.d.d.d.e.2.) f l q.Z.Z.q.T k ",
"k X.F.R.R.N.A v 2.e.e.e.d.d.d.d.d.d.d.d.d.e.e.[ f e ' 8.7.1.T T ",
"k T p.Z.Z.a.I Z [ e.d.d.d.d.d.d.d.d.d.d.d.d.d.2.y 3 ^ 3.~ ~ [ 3.",
"T T *.4.9.y.:.#.4.d.d.d.d.d.d.d.d.d.d.d.d.d.d.w.P V Y ~ z F 3.e.",
"3.[ T ~ <.s.D.S.g.d.d.d.d.d.d.d.d.d.d.d.d.d.d.h.S.x.H e d T 3.d.",
"d.<.T z ^ p.Y.R.Z.d.d.d.d.d.d.d.d.d.d.d.d.d.d.Z.R.H.A 0 h ~ 7.d.",
"e.3.F k h >.U.T.Z.d.d.d.d.d.d.d.d.d.d.d.d.d.d.Z.T.H.A q W 7.0.d.",
"d.7./ z g { b.S.g.d.d.d.d.d.d.d.d.d.d.d.d.d.d.g.S.z.V t ' d.d.d.",
"d.e.7.( z k l L 2.d.e.e.d.d.d.d.d.d.d.d.d.d.d.2.L p e z <.d.d.d.",
"d.e.e.7./ g > 5 K [ e.d.d.d.d.d.d.d.d.d.d.8.[ R 5 1 h ~ 7.d.d.d.",
"d.d.d.e.7.~ a 3 1 s ] d.d.d.d.e.d.d.d.d.d.3.v 5 q g / 7.e.d.d.d.",
"d.d.d.d.d.[ g w 4 7 R ` ` [ e.e.d.8.[ ` ` E s 6 f F ( 3.3.7.0.d.",
"d.d.d.d.e.] s 7 R R 7 , , s [ d.d.[ s < , 7 E ) v v F F Y ~ 7.d.",
"d.0.4.3.[ ) v N [ [ s , , c [ d.d.[ s , , s [ 2.N n J  .X.-.1.3.",
"d.7.~ F z W ] [ e.e.[ ` ` [ 8.d.d.8.[ ` ` [ 8.e.2.` #.l.G.B.-.T ",
"3.1.-. .U ^ w.e.e.8.[ [ 8.d.d.d.d.d.d.d.d.w.] ;.f.r.#.,.J.A.X.k ",
"F +.A.K.G.t.6.e.e.[ s s [ d.d.d.d.d.d.d.d.[ c S S.B.#.! p.q.T k ",
"k X.F.U.L.s.w.i.j.;.< , ` d.d.d.d.8.[ ] ` N - 8 l.c.! W ] <.T T ",
"k T q.Z.u.u.s.j.U.N.6 ; ` d.d.d.d.[ c < < - o % u C W ' ~ Y <.3.",
"F ~ *.3.w.w.w.r.N.l.: 2 ` d.d.0.[ R 7 < < - @ - : 3 Y / z T 3.d.",
"3.*.T ~ 7.3.R b p 8 O , ` d.d.[ c 7 K ` ` K 6 4 t d z z k F 3.d.",
"e.3.T z ( ' N 6 = X . = N ` ` N - 2 ;.V.Z.q.m y g k k k F ~ 7.d.",
"f.3.F z z W ' R a > # # - , , $ O 9 b.Y.Y.S.$.M l k a F *.7.e.d.",
"d.7.~ z k F O.~ z w > & o .       9 l.G.H.c.| G z k k F 3.d.d.d.",
"d.0.7.O.F k z z k k e 3 = O .     @ 8 x Z V z l k k k T 3.d.d.d.",
"d.d.d.7.| z z k k k z g 5 = * + @ # & = 3 5 a g k k z ~ 3.d.d.d.",
"d.d.d.0.7.O.z k a z ~ ~ D g e w w w w d g z k k k z O.7.e.d.d.d.",
"d.d.d.d.d.3.T k k T <.<.W F z z k k k z T T z k k T 3.d.d.d.d.d."
};
