/* XPM */
static char *_1900a7e8d1d40a286edbacbabda7ef75Cza8BOoHWp8nCnI[] = {
/* columns rows colors chars-per-pixel */
"32 32 183 2 ",
"   c None",
".  c #071821",
"X  c #071921",
"o  c #081922",
"O  c #081A22",
"+  c #091B23",
"@  c #091C23",
"#  c #0A1E24",
"$  c #0A1F25",
"%  c #0C2227",
"&  c #0D2327",
"*  c #0F2226",
"=  c #0F2326",
"-  c #0D2428",
";  c #102326",
":  c #14262C",
">  c #15262C",
",  c #15272C",
"<  c #112B2C",
"1  c #112C2D",
"2  c #122D2D",
"3  c #1F372F",
"4  c #1F382F",
"5  c #143230",
"6  c #163532",
"7  c #1A3D37",
"8  c #1A3E37",
"9  c #223B31",
"0  c #264234",
"q  c #274234",
"w  c #274334",
"e  c #264537",
"r  c #284334",
"t  c #294435",
"y  c #294535",
"u  c #2A4736",
"i  c #2B4736",
"p  c #2B4836",
"a  c #2B4937",
"s  c #2C4937",
"d  c #2D4A37",
"f  c #2C453A",
"g  c #204A3E",
"h  c #254D3E",
"j  c #2A4A39",
"k  c #2D4B38",
"l  c #2E4B38",
"z  c #2E4C38",
"x  c #314F3A",
"c  c #344E3F",
"v  c #31503A",
"b  c #34543C",
"n  c #37573D",
"m  c #37583D",
"M  c #37583E",
"N  c #38583E",
"B  c #2F4241",
"V  c #304242",
"C  c #304342",
"Z  c #314443",
"A  c #364947",
"S  c #384C46",
"D  c #384D46",
"F  c #245142",
"G  c #255243",
"H  c #255344",
"J  c #265444",
"K  c #265545",
"L  c #275746",
"P  c #385341",
"I  c #3C5E40",
"U  c #3D5F41",
"Y  c #3D524A",
"T  c #3E6142",
"R  c #3F6142",
"E  c #3F6242",
"W  c #306850",
"Q  c #405E47",
"!  c #41544F",
"~  c #415450",
"^  c #425651",
"/  c #445852",
"(  c #455953",
")  c #465A54",
"_  c #4A5D57",
"`  c #456A45",
"'  c #466C46",
"]  c #496F48",
"[  c #497048",
"{  c #4F774B",
"}  c #4F774C",
"|  c #517A4D",
" . c #4C6059",
".. c #4F625B",
"X. c #4F655C",
"o. c #506C54",
"O. c #506759",
"+. c #53685E",
"@. c #556D5D",
"#. c #547F50",
"$. c #567459",
"%. c #577559",
"&. c #5A785B",
"*. c #5A785C",
"=. c #586B62",
"-. c #5B6E64",
";. c #548050",
":. c #568150",
">. c #578250",
",. c #598551",
"<. c #598552",
"1. c #5A8652",
"2. c #5B8753",
"3. c #5D8A54",
"4. c #608E56",
"5. c #618F56",
"6. c #649458",
"7. c #659458",
"8. c #669659",
"9. c #67975A",
"0. c #68985A",
"q. c #68995A",
"w. c #68995B",
"e. c #6A9B5B",
"r. c #6A9C5C",
"t. c #6C9E5D",
"y. c #6EA05E",
"u. c #6EA15E",
"i. c #6FA15E",
"p. c #6FA25E",
"a. c #72A560",
"s. c #73A661",
"d. c #74A464",
"f. c #74A861",
"g. c #75AA62",
"h. c #77A966",
"j. c #79AA67",
"k. c #79AB67",
"l. c #77A06C",
"z. c #7EB567",
"x. c #7EB667",
"c. c #7FB768",
"v. c #7EA971",
"b. c #80B868",
"n. c #80B869",
"m. c #81AC72",
"M. c #86B276",
"N. c #86C06C",
"B. c #8CC472",
"V. c #8FC07A",
"C. c #90C17A",
"Z. c #90C27A",
"A. c #91C27B",
"S. c #97CB7F",
"D. c #819683",
"F. c #839884",
"G. c #879C88",
"H. c #99B591",
"J. c #99B691",
"K. c #9AB097",
"L. c #9EBB95",
"P. c #9CB399",
"I. c #9DB49A",
"U. c #A6BDA1",
"Y. c #9CCD84",
"T. c #9CCE84",
"R. c #9DCE85",
"E. c #A1C096",
"W. c #A5C498",
"Q. c #A5C599",
"!. c #A7C79A",
"~. c #ABC99F",
"^. c #A9C0A3",
"/. c #ADC4A6",
"(. c #AECCA1",
"). c #B5CBAC",
"_. c #BED5B3",
"`. c #BFD6B5",
"'. c #B9E0A4",
"]. c #C9E9B5",
"[. c #C9EAB6",
"{. c #CAEAB6",
"}. c #D7EFC8",
/* pixels */
"                    O X X X X X X X X X X O                     ",
"                    u a u w w w w r u u k s                     ",
"                  u 1.r.0.9.9.9.9.9.0.0.t.3.s                   ",
"                a ' s.N.N.N.N.N.N.N.N.N.N.f.[ k                 ",
"              M 4.s.b.N.N.N.N.N.N.N.N.N.N.b.f.9.                ",
"              N s.N.N.N.N.N.N.N.N.N.N.N.N.N.N.f.I               ",
"            X x i.N.N.N.N.N.N.N.N.N.N.N.N.N.N.i.v @             ",
"            ) &.k.N.N.N.N.N.N.N.N.N.N.N.N.N.N.k.*.(             ",
"            /.W.Z.N.N.N.N.N.N.N.N.N.N.N.N.N.N.Z.W.I.+.          ",
"            }.].Y.N.N.N.N.N.N.N.N.N.N.N.N.N.N.Y.].`.-.          ",
"            }.].Y.N.N.N.N.N.N.N.N.N.N.N.N.N.N.Y.]._.=.          ",
"            ^.W.Z.N.N.N.N.N.N.N.N.N.N.N.N.N.N.Z.W.K. .          ",
"            ^ $.h.N.N.N.N.N.N.N.N.N.N.N.N.N.N.h.$.^             ",
"            < j #.i.z.N.N.N.N.N.N.N.N.N.N.c.s.1.u               ",
"            G h e R i.N.N.N.N.N.N.N.N.N.N.s.` u                 ",
"            G h e n :.9.9.i.z.N.N.z.i.9.9.1.I u                 ",
"            < j :.:.n w w R i.N.N.i.R w w M 1.1.s               ",
"            u ` s.i.R w w R i.N.N.i.R w w R i.f.] k             ",
"            9.s.c.z.i.9.9.i.z.N.N.z.i.9.9.i.z.b.f.4.n           ",
"            z.N.N.z.i.i.z.N.N.N.N.N.N.N.N.z.i.d.V.M.Q           ",
"            c.N.N.i.R R i.N.N.N.N.N.N.N.N.i.R o.E.~.O.          ",
"            c.B.S.l.f w 9.N.N.N.N.z.i.9.9.{ 3 V G.P.X.          ",
"            c.S.'.H.S w 9.N.N.N.N.i.R w w 4 % > A (             ",
"            0.v.L.F.V w 9.N.N.z.i.:.n w w 3 % O @               ",
"            z c Y Z > w 9.N.N.i.R n :.9.9.| 9 @                 ",
"              $ - % O 4 } 9.9.{ 4 f l.Y.Y.m.P $                 ",
"                g 7 % ; 4 w w 4 % S H.].].(.@.                  ",
"                  G 5 % O X X X X V D./.).U.                    ",
"                    G 7 % X X X X > B ! _  .                    ",
"                      G 6 < < < 1 1 1 1 1 5                     ",
"                        K H H H K K K K K K                     ",
"                        W W W W W W W W W W                     "
};
