/* XPM */
static char *result[] = {
/* columns rows colors chars-per-pixel */
"32 32 167 2 ",
"   c #071921",
".  c #091B23",
"X  c #0F2327",
"o  c #0F252A",
"O  c #102527",
"+  c #14272B",
"@  c #152D2D",
"#  c #182A2E",
"$  c #16312E",
"%  c #1F372F",
"&  c #1F382F",
"*  c #163330",
"=  c #193531",
"-  c #1D3A33",
";  c #20392F",
":  c #213B31",
">  c #1F4036",
",  c #1E433B",
"<  c #274234",
"1  c #20473C",
"2  c #2C463A",
"3  c #264B3C",
"4  c #294C3B",
"5  c #314D3E",
"6  c #2D523E",
"7  c #36573D",
"8  c #37593E",
"9  c #38593E",
"0  c #234E41",
"q  c #314443",
"w  c #334945",
"e  c #384D46",
"r  c #245042",
"t  c #2A5442",
"y  c #2C5A46",
"u  c #2B5C49",
"i  c #335241",
"p  c #375C41",
"a  c #3E544C",
"s  c #325F4D",
"d  c #3D5D51",
"f  c #2F644D",
"g  c #3E6243",
"h  c #32644B",
"j  c #3A664B",
"k  c #36694D",
"l  c #3B6D4F",
"z  c #376651",
"x  c #326A51",
"c  c #396F51",
"v  c #3C7453",
"b  c #3F7855",
"n  c #475E53",
"m  c #426644",
"M  c #456C47",
"N  c #446D4B",
"B  c #41724F",
"V  c #4C744B",
"C  c #50794C",
"Z  c #426354",
"A  c #496357",
"S  c #476D54",
"D  c #4E6D54",
"F  c #446959",
"G  c #437452",
"H  c #4A7253",
"J  c #447C56",
"K  c #4D7A50",
"L  c #4B7859",
"P  c #517D51",
"I  c #55765A",
"U  c #537E5C",
"Y  c #497660",
"T  c #4D7862",
"R  c #547C63",
"E  c #5D7965",
"W  c #56804F",
"Q  c #4F8356",
"!  c #478058",
"~  c #4B815D",
"^  c #558352",
"/  c #598956",
"(  c #508658",
")  c #58865D",
"_  c #548C5B",
"`  c #5C8D59",
"'  c #57905D",
"]  c #5E935C",
"[  c #5F985F",
"{  c #608E56",
"}  c #659559",
"|  c #669C5E",
" . c #699C5D",
".. c #6EA05E",
"X. c #548365",
"o. c #5D8061",
"O. c #55836A",
"+. c #56886A",
"@. c #59896E",
"#. c #5F9960",
"$. c #5F926C",
"%. c #5C8C70",
"&. c #648265",
"*. c #608D65",
"=. c #67806E",
"-. c #669461",
";. c #649D61",
":. c #6B9F61",
">. c #61946D",
",. c #728C73",
"<. c #6E9A71",
"1. c #709572",
"2. c #769C73",
"3. c #6DA462",
"4. c #6FA965",
"5. c #6BA268",
"6. c #73A663",
"7. c #73AB65",
"8. c #79AD66",
"9. c #76A26C",
"0. c #79A46E",
"q. c #7EAE6D",
"w. c #76B067",
"e. c #7EB567",
"r. c #7CB468",
"t. c #7FB969",
"y. c #7BAE74",
"u. c #81B76B",
"i. c #83BC6B",
"p. c #82AE73",
"a. c #84AD7A",
"s. c #82B473",
"d. c #86B873",
"f. c #81B478",
"g. c #89B37B",
"h. c #8BBB7A",
"j. c #86C06C",
"k. c #8CC372",
"l. c #8FC17A",
"z. c #91C27D",
"x. c #97CB7F",
"c. c #829784",
"v. c #839985",
"b. c #86A68B",
"n. c #8AA78D",
"m. c #8AAB8C",
"M. c #90AE92",
"N. c #94B493",
"B. c #99B691",
"V. c #9CBC95",
"C. c #9BB699",
"Z. c #98BF99",
"A. c #9CCE84",
"S. c #9FC095",
"D. c #A2C397",
"F. c #A4C69A",
"G. c #A3C99D",
"H. c #AACC9F",
"J. c #ACC6A6",
"K. c #A9C8A6",
"L. c #ADCDAA",
"P. c #B9DFA4",
"I. c #B4D4AF",
"U. c #BCDCAD",
"Y. c #BFDFB0",
"T. c #C4E5B2",
"R. c #C9EAB6",
/* pixels */
"j.j.j.j.j.j.j.j.i.:.h 3 r h ( } } P m 9 m P 6.j.j.7.! x x ! 4.j.",
"i.i.w.4.4.w.i.r.| _ U U ) ) } |  .{ V M V ^  .6.6.5.>.%.%.>.5.4.",
"j.8._ ! ! _ w.| g S 9.u.d.d.8.8.e.8... ...} ^ ^ Q >.S.I.I.S.>.! ",
"7.5.>.%.%.$.:.( j K 8.j.i.j.i.i.i.j.j.i.i.7.) K l X.S.R.R.G.+.x ",
"J >.S.I.I.N.X.B ` 6.i.j.j.j.j.j.j.j.j.j.j.i.8.} l v y.A.A.y.~ x ",
"x +.G.R.R.Z.R H ..j.j.j.j.j.j.j.j.j.j.j.k.i.i.6.N f ..t.7.;._ ! ",
"x ~ f.A.A.a.E D ..j.j.j.j.j.j.j.j.j.j.j.j.j.j.6.j t [ 7._ _ ;.4.",
"! ~ ;.8.r.p.,.&.6.j.j.j.j.j.j.j.j.j.j.j.j.j.j.u.E D +.#.b ! 7.j.",
"4.5.( _ 3.s.F.F.h.j.j.j.j.j.j.j.j.j.j.j.j.j.j.z.F.m.X.v x J 7.j.",
"j.7.! v / f.T.R.A.j.j.j.j.j.j.j.j.j.j.j.j.j.j.A.T.L.O.f G ' w.j.",
"j.4.J x c <.Y.R.A.j.j.j.j.j.j.j.j.j.j.j.j.j.j.A.T.K.O.c ] w.i.j.",
"j.w.' v h X.N.F.z.j.j.j.j.j.j.j.j.j.j.j.j.j.j.z.S.m.L v 3.j.j.j.",
"j.i.w.[ v x Z I 6.j.j.j.j.j.j.j.j.j.j.j.j.j.j.8.I d z b 4.j.j.j.",
"j.j.j.w.' l , 6 W ..u.j.j.j.j.j.j.j.j.j.i.u...C 6 , h _ 7.j.j.j.",
"j.j.j.t.w._ f 6 4 m  .j.j.j.j.j.j.j.j.j.j...p 3 r f _ 7.t.j.j.j.",
"j.j.j.j.i.3.l y 4 9 W } } ..u.j.j.u...} } W 9 4 t k _ 4.4.w.t.j.",
"j.j.j.j.i. .m 9 W W 9 < < g ..j.j...g < < 9 P W 7 7 B J J _ w.j.",
"j.t.8.3. .} M V 6...g < < m ..j.j...g < : g ..6.V 9 L X.@.>.3.7.",
"j.w.` J B ( ..6.i.u...} } ..u.j.j.u...} } ..u.u...} 1.M.K.Z.>.J ",
"4.5.>.O.T *.h.h.....u.j.j.i.j.j.j.j.i.u.....u.i.j.6.2.B.U.G.+.x ",
"! $.Z.K.B.n.H.D.V m ..d.i.i.k.i.j.j.j...g g ..i.j.6.-.0.h.f.~ x ",
"x +.G.Y.J.B.C.c.2 ; C } } ..u.i.j.j.j.} < < p.x.k.7.{ } 3.;._ J ",
"f ~ f.A.h.g.E n # O ; : < m ..i.j.j.j.} < 5 B.P.x.6.{ ` Q _ ;.7.",
"! _ ;.7.u.p.E 5 O + ; < < 9 P  .e.j.j.} < 5 c.B.0.` ( Q v J 7.j.",
"4.5.( ' w.u.0.H = : C } } ^ 7 m ..j.j.} < + w a 5 6 k v x J 7.j.",
"j.4.! J #.7.r.( : i 0.A.A.0.2 ; C } } C : O $ - = - u x b ' w.j.",
"j.4.J x b ' 7.] 4 Z V.R.R.B.e X ; < < - @ % t j f u f b #.w.t.j.",
"j.w.' b c b [ / s F n.J.J.c.q       . X $ , x ! v x f J 4.j.j.j.",
"j.t.w.#.b x J v f h Z A n w # .   . O - 0 u x v x x x ! 7.j.j.j.",
"j.j.j.w.' b c x x f t 3 1 - * @ @ $ - 4 f c x x x x b ' w.j.j.j.",
"j.j.j.t.w.#.b x f v ( ^ B j u u t y f h c b v f x b #.w.i.j.j.j.",
"j.j.j.j.j.4.J x x J 3.4.' J v c x x x v v ! b x x ! 4.j.j.j.j.j."
};
