/* XPM */
static char *result[] = {
/* columns rows colors chars-per-pixel */
"32 32 152 2 ",
"   c #071821",
".  c #091C23",
"X  c #112527",
"o  c #122D2D",
"O  c #16322F",
"+  c #1B332D",
"@  c #1B2F32",
"#  c #1B3933",
"$  c #213635",
"%  c #223D33",
"&  c #1F463B",
"*  c #274234",
"=  c #284435",
"-  c #20463B",
";  c #2D463A",
":  c #264A3B",
">  c #2B4C3A",
",  c #2B513E",
"<  c #35563D",
"1  c #37583F",
"2  c #395B3F",
"3  c #234F42",
"4  c #324544",
"5  c #354946",
"6  c #384D46",
"7  c #275544",
"8  c #2A5443",
"9  c #2E5A44",
"0  c #2D5F4A",
"q  c #325741",
"w  c #335C43",
"e  c #3A5C45",
"r  c #3E5D51",
"t  c #2E634C",
"y  c #366146",
"u  c #3E6243",
"i  c #33654C",
"p  c #3C664C",
"a  c #35684D",
"s  c #3A6C4D",
"d  c #3D704F",
"f  c #366550",
"g  c #316950",
"h  c #3D6C51",
"j  c #3D7453",
"k  c #416644",
"l  c #436946",
"z  c #43634E",
"x  c #436D4A",
"c  c #486F4A",
"v  c #45724E",
"b  c #4B724B",
"n  c #4F7A4F",
"m  c #50794E",
"M  c #426453",
"N  c #486154",
"B  c #456A54",
"V  c #536F5A",
"C  c #437652",
"Z  c #497753",
"A  c #447D56",
"S  c #4C7C52",
"D  c #4A735E",
"F  c #497E5B",
"G  c #537F50",
"H  c #557659",
"J  c #5C7A5E",
"K  c #547E65",
"L  c #5F7D60",
"P  c #5C7768",
"I  c #657E68",
"U  c #4D8155",
"Y  c #4C845B",
"T  c #558252",
"R  c #598653",
"E  c #5B8C56",
"W  c #548D5B",
"Q  c #5A8C5A",
"!  c #5C935D",
"~  c #608F56",
"^  c #638C5B",
"/  c #669659",
"(  c #68975B",
")  c #64995D",
"_  c #6A9C5D",
"`  c #6EA15E",
"'  c #4F8064",
"]  c #548163",
"[  c #5D8162",
"{  c #558569",
"}  c #56896A",
"|  c #5C8E69",
" . c #5C8C70",
".. c #649D61",
"X. c #699F60",
"o. c #61936D",
"O. c #6D936D",
"+. c #6F9D6A",
"@. c #6DA462",
"#. c #6EA864",
"$. c #6BA268",
"%. c #73A663",
"&. c #72AC65",
"*. c #78AD66",
"=. c #77A16C",
"-. c #7AA76D",
";. c #7EAF6B",
":. c #76B067",
">. c #7EB567",
",. c #7EB668",
"<. c #7FB96A",
"1. c #7BA474",
"2. c #7BA972",
"3. c #80B768",
"4. c #82BB6A",
"5. c #83AF77",
"6. c #86B777",
"7. c #81B478",
"8. c #8CBC79",
"9. c #86C06C",
"0. c #8BC372",
"q. c #8FC17B",
"w. c #93C57D",
"e. c #97CB7F",
"r. c #89A18A",
"t. c #85A989",
"y. c #8BAB8D",
"u. c #90A78F",
"i. c #96B595",
"p. c #99B691",
"a. c #92B894",
"s. c #9ABE94",
"d. c #97BE98",
"f. c #98BF99",
"g. c #A1BE98",
"h. c #94C681",
"j. c #9CCE85",
"k. c #9DC097",
"l. c #9EC59A",
"z. c #A1C296",
"x. c #A3C598",
"c. c #A3CA9D",
"v. c #ADD39B",
"b. c #AECDAA",
"n. c #B0CFA2",
"m. c #B3D4AF",
"M. c #BFDDB1",
"N. c #B9E0A4",
"B. c #C1DEB1",
"V. c #C4E5B2",
"C. c #C6E8B4",
"Z. c #C9EAB6",
/* pixels */
"9.9.9.9.9.9.9.<.:.S # . . . .     . . X + < / ,.4.#.A g g A #.9.",
"4.4.:.#.#.:.,.&.E v w ; = * * * * * = ; < k R _ #.$.o. . .o.$.#.",
"9.:.W U A W #.! 9 e ^ _ ( / / / / / ( / _ E c b S o.f.m.m.d.o.U ",
"&.$.o. . .| Q v < c %.9.9.9.9.9.9.9.9.9.9.%.m l s ' l.Z.Z.c.} g ",
"A o.f.m.m.t.B y R %.3.9.9.9.9.9.9.9.9.9.9.4.%.Q s s 2.j.j.2.' g ",
"g } c.C.V.y.r e ` 9.4.9.9.9.9.9.9.9.9.9.9.9.4.%.p t ) <.:.$.Y Y ",
"g Y 7.j.h.1.N e _ 4.9.9.9.9.9.9.9.9.9.9.9.9.9.%.p , ! :.W W ` #.",
"U Y X.&.&.=.I J *.9.9.9.9.9.9.9.9.9.9.9.9.9.9.>.[ B W ! j A #.9.",
"#.$.Y W ) -.g.x.w.9.9.9.9.9.9.9.9.9.9.9.9.9.9.w.x.y.K s g U #.9.",
"9.#.A j U 1.B.Z.j.4.9.9.9.9.9.9.9.9.9.9.9.9.9.j.Z.b.K i j W :.9.",
"9.#.A g a O.B.Z.j.9.9.9.9.9.9.9.9.9.9.9.9.9.9.j.C.b.K a ! :.<.9.",
"9.:.W j t K p.x.w.9.9.9.9.9.9.9.9.9.9.9.9.9.4.w.z.t.D h @.9.9.9.",
"9.<.:...j g M H %.9.4.9.9.9.9.9.9.9.9.9.9.9.9.*.H r f A #.9.9.9.",
"9.9.9.:.W i & > m %.4.9.9.9.9.9.9.9.9.9.9.3.` m > & a W :.9.9.9.",
"9.9.9.<.&.W t 7 > k ` 4.9.9.9.9.9.9.9.9.4.` u = 7 t W #.,.9.9.9.",
"9.9.9.9.4.X.d 9 > 2 R / ( ` 3.4.9.>.` / / T < > 8 i W @.#.:.,.9.",
"9.9.9.4.3.( u 2 R T < * * u ` 9.9._ k * * < T G < > h j A W :.9.",
"9.4.:.$./ T k b %.` u * * k ` 9.9.` u * * u ` ` k < p D { o.$.&.",
"9.:.W d 8 u ~ %.3.3.` / / ` 3.9.9.3.` / / ` 3.3.` R z I i.f.o.A ",
"&.$.o.K B S %.3.` ` 3.9.9.4.9.9.9.9.9.4.4.3.` _ >.` b L s.f.} g ",
"A o.a.k.5.3.3.` u u ` 4.9.9.9.9.9.9.9.9.9.` k u _ >.%.%.-.+.F g ",
"t } s.v.e.0.w.=.= * ( 9.9.9.9.9.9.9.9.9.9./ * ; =.e.0.>./ G S A ",
"g U -.8.4.e.M.p.< * ( 9.9.9.9.9.9.9.9.9.9./ * 6 p.N.e.&.n s ! #.",
"A W ! #.*.6.n.u.4 = / 9.9.9.9.9.9.9.9.9.9./ * 6 r.x.6.` x a $.9.",
"#...Y W E ^ O.H + * / 9.9.9.9.9.9.9.9.9.9./ * + N D A C i j #.9.",
"9.#.Y j C n m w O > ) 9.9.>._ / / ` >.9.9.( < & : 7 7 t j W :.9.",
"9.#.U g j U E Z & 9 _ 9.9.` u * = u ` 9.9.` c u i t t j ..:.4.4.",
"9.:.W j g j W S , y ` 9.9./ *     * / 9.9.@.n v a a t U #.9.9.9.",
"9.<.:...j g j j 7 y ! <.9./ *     * / 9.9.#.A t g g g U &.9.9.9.",
"9.9.9.:.! j g g 7 a ! #.:.E > O o > E &.#.! d t g g j W :.4.9.9.",
"9.9.9.<.:...j g t d W W W A a 7 7 0 d Y A ' j t g j ..&.4.9.9.9.",
"9.9.9.9.9.#.U g g Y W W Y j g g g g g t g j j g g U &.9.9.9.9.9."
};
