/* XPM */
static char *_ff696d300744b178a455b6df7fd0009XYlzqB7uXWf9zXC4[] = {
/* columns rows colors chars-per-pixel */
"32 32 188 2 ",
"   c None",
".  c #071821",
"X  c #081922",
"o  c #091B23",
"O  c #0A1E24",
"+  c #0D2328",
"@  c #0D2428",
"#  c #0E2629",
"$  c #15272C",
"%  c #10292B",
"&  c #102A2B",
"*  c #16282D",
"=  c #112C2D",
"-  c #122E2E",
";  c #1B4038",
":  c #264133",
">  c #224337",
",  c #264234",
"<  c #274234",
"1  c #274334",
"2  c #274436",
"3  c #284435",
"4  c #294535",
"5  c #284536",
"6  c #284737",
"7  c #2A4636",
"8  c #2A4736",
"9  c #2B4736",
"0  c #2B4836",
"q  c #2B4837",
"w  c #2B4937",
"e  c #2C453A",
"r  c #254B3D",
"t  c #264C3D",
"y  c #2A4938",
"u  c #2B4B39",
"i  c #2E4B38",
"p  c #294C3B",
"a  c #2E4C38",
"s  c #2F4D39",
"d  c #2F4E39",
"f  c #2C4D3A",
"g  c #304E39",
"h  c #31503A",
"j  c #32513A",
"k  c #33523B",
"l  c #34533B",
"z  c #34533C",
"x  c #31563F",
"c  c #35553C",
"v  c #37573D",
"b  c #35573E",
"n  c #38583E",
"m  c #395A3F",
"M  c #395B3F",
"N  c #3A5B3F",
"B  c #224C40",
"V  c #304342",
"C  c #314343",
"Z  c #364846",
"A  c #374C46",
"S  c #384C46",
"D  c #265444",
"F  c #275645",
"G  c #2E5F49",
"H  c #385342",
"J  c #3B5D40",
"K  c #3E6142",
"L  c #3F6142",
"P  c #3F6242",
"I  c #30624B",
"U  c #306850",
"Y  c #3D7352",
"T  c #3E7352",
"R  c #43594F",
"E  c #465953",
"W  c #475A54",
"Q  c #495C56",
"!  c #416543",
"~  c #426644",
"^  c #466C46",
"/  c #476C47",
"(  c #4A7149",
")  c #4C7349",
"_  c #4E764B",
"`  c #50784C",
"'  c #407754",
"]  c #447C56",
"[  c #457E57",
"{  c #467E57",
"}  c #477F57",
"|  c #5A795C",
" . c #5C7B5D",
".. c #578351",
"X. c #588351",
"o. c #588452",
"O. c #5C8953",
"+. c #598A57",
"@. c #598B57",
"#. c #5C8954",
"$. c #5C8A54",
"%. c #5E8B54",
"&. c #60935B",
"*. c #649358",
"=. c #669559",
"-. c #669659",
";. c #67975A",
":. c #68985A",
">. c #68995B",
",. c #699A5B",
"<. c #6A9B5B",
"1. c #6A9B5C",
"2. c #6B9C5C",
"3. c #6C9D5C",
"4. c #6C9E5D",
"5. c #6D9E5D",
"6. c #6D9F5D",
"7. c #6EA05E",
"8. c #6EA15E",
"9. c #70A25F",
"0. c #70A35F",
"q. c #658663",
"w. c #6A8C67",
"e. c #6CA462",
"r. c #71A460",
"t. c #73A661",
"y. c #73A761",
"u. c #74A861",
"i. c #75A962",
"p. c #75AA62",
"a. c #76AB63",
"s. c #77AC63",
"d. c #70AA65",
"f. c #71AA65",
"g. c #72AB65",
"h. c #79AB67",
"j. c #79AF64",
"k. c #79AF65",
"l. c #77A06C",
"z. c #7AAC68",
"x. c #7AB065",
"c. c #7CB266",
"v. c #7EB567",
"b. c #7EB667",
"n. c #7DB16A",
"m. c #7FB36B",
"M. c #7FB668",
"N. c #7FB768",
"B. c #80B868",
"V. c #80B969",
"C. c #81B969",
"Z. c #81BA69",
"A. c #83BC6A",
"S. c #83BD6A",
"D. c #81AC73",
"F. c #86C06C",
"G. c #8CC472",
"H. c #8CC473",
"J. c #90C27A",
"K. c #91C47A",
"L. c #92C47B",
"P. c #92C27E",
"I. c #97CA7E",
"U. c #97CB7F",
"Y. c #869B87",
"T. c #91A690",
"R. c #98B590",
"E. c #99B591",
"W. c #98CB80",
"Q. c #9ACC82",
"!. c #9BCD83",
"~. c #A4C19A",
"^. c #A6C799",
"/. c #A7C89A",
"(. c #ABCC9D",
"). c #AECF9E",
"_. c #AFC6A8",
"`. c #B1C7A9",
"'. c #B9CFAF",
"]. c #B9DFA4",
"[. c #B7D6A8",
"{. c #BAD1B1",
"}. c #BAE0A5",
"|. c #C7E8B3",
" X c #C8E9B5",
".X c #DAF2CA",
"XX c #DBF3CB",
"oX c #DCF4CC",
/* pixels */
"                    X . . . . . . . . .                         ",
"                    9 9 9 1 9 9 9 w i v                         ",
"                  d O.<.<.;.<.<.<.2.6.t.x.6.z                   ",
"                d ) p.F.F.F.F.F.F.F.F.F.F.s.` l                 ",
"                *.p.C.F.F.F.F.F.F.F.F.F.F.C.s.<.                ",
"              M p.F.F.F.F.F.S.S.F.F.F.F.F.F.F.k.                ",
"              k 0.F.F.F.F.F.F.F.F.F.F.F.F.F.F.p.J               ",
"            Q  .z.F.F.F.F.F.F.F.F.F.F.F.F.F.F.m.q.              ",
"            `./.J.F.F.F.F.F.F.F.F.F.F.F.F.F.F.L.(.'.            ",
"            XX X!.F.F.F.F.F.F.F.F.F.F.F.F.F.F.!.|.oX            ",
"            XX X!.F.F.F.F.F.F.F.F.F.F.F.F.F.F.!.|.XX            ",
"            _.^.J.F.F.F.F.F.F.F.F.F.F.F.F.F.F.L.).{.            ",
"            W | h.F.F.F.F.F.F.F.F.F.F.F.F.F.F.m.w.              ",
"            % d o.0.N.F.F.F.F.F.F.F.F.F.F.N.0.%.v               ",
"              t 9 ~ 0.F.F.F.F.F.F.F.F.F.F.0.! 9                 ",
"              r 9 M X.;.;.7.v.F.F.v.7.;.;.X.M 2 >               ",
"            % u ..X.v 1 1 K 7.F.F.7.K 1 1 v X.X.u +             ",
"            w ^ t.7.K 1 1 K 7.F.F.7.K 1 1 K 7.t.^ w             ",
"          k %.t.C.v.7.;.;.7.v.F.F.v.7.;.;.7.v.C.t.%.d           ",
"        k _ s.v.7.7.v.F.F.F.F.F.F.F.F.F.F.v.7.7.v.p.( d         ",
"        6.p.C.7.K K 7.F.F.F.F.F.F.F.F.F.F.7.K K 7.C.p.<.        ",
"        A.H.U.l.e 1 ;.F.F.F.F.F.F.F.F.F.F.;.1 e l.U.H.c.        ",
"        A.W.}.E.S 1 ;.F.F.F.F.F.F.F.F.F.F.;.: A E.].U.x.        ",
"        6.D.~.Y.V 1 ;.F.F.F.F.F.F.F.F.F.F.;.: V T.[.P.t.        ",
"        k H R Z $ 1 ;.F.F.F.F.F.F.F.F.F.F.;.1 * E               ",
"          O # # X 9 <.F.F.v.7.;.;.7.v.F.F.1.w X                 ",
"            B ; # w 2.F.F.7.K 1 1 K 7.F.F.t.M                   ",
"              B # d 6.F.F.;.1 . . 1 ;.F.F.k.                    ",
"                O g 7.F.F.;.1 . . 1 ;.F.F.v.                    ",
"                - x &.g.g.@.p - - p @.g.g.e.                    ",
"                F I ' } } T G F F G T } } }                     ",
"                U U U U U U U U U U U U U U                     "
};
