/* XPM */
static char *result[] = {
/* columns rows colors chars-per-pixel */
"32 32 185 2 ",
"   c #071821",
".  c #081922",
"X  c #081A22",
"o  c #081B23",
"O  c #091B23",
"+  c #091C24",
"@  c #0A1E24",
"#  c #0A1E25",
"$  c #0B2126",
"%  c #0C2327",
"&  c #0D2428",
"*  c #16272D",
"=  c #102A2C",
"-  c #112B2C",
";  c #16282D",
":  c #112C2D",
">  c #122D2D",
",  c #122E2E",
"<  c #264133",
"1  c #214136",
"2  c #214237",
"3  c #264134",
"4  c #274234",
"5  c #274334",
"6  c #274435",
"7  c #264537",
"8  c #264637",
"9  c #274637",
"0  c #294535",
"q  c #284536",
"w  c #294737",
"e  c #2A4636",
"r  c #2A4736",
"t  c #2B4736",
"y  c #2B4836",
"u  c #2A4837",
"i  c #2B4937",
"p  c #2D4A37",
"a  c #274738",
"s  c #2C453A",
"d  c #2D463A",
"f  c #254B3D",
"g  c #254C3E",
"h  c #264E3F",
"j  c #2A4939",
"k  c #2A4A39",
"l  c #284A3A",
"z  c #2A4B3A",
"x  c #2D4B38",
"c  c #294C3B",
"v  c #2E4C38",
"b  c #2E4D39",
"n  c #304E39",
"m  c #31503A",
"M  c #30503B",
"N  c #33533B",
"B  c #34543C",
"V  c #35543C",
"C  c #37573D",
"Z  c #38593E",
"A  c #3A5C3F",
"S  c #314343",
"D  c #314443",
"F  c #384C46",
"G  c #384D46",
"H  c #255243",
"J  c #255344",
"K  c #265444",
"L  c #2D5E48",
"P  c #2E5F49",
"I  c #3B5C40",
"U  c #3D6041",
"Y  c #3E6142",
"T  c #3F6142",
"R  c #3F6242",
"E  c #306850",
"W  c #3E7352",
"Q  c #3E7452",
"!  c #40534E",
"~  c #415450",
"^  c #425650",
"/  c #445852",
"(  c #416443",
")  c #416543",
"_  c #456945",
"`  c #466B46",
"'  c #46644B",
"]  c #4A7048",
"[  c #4B7249",
"{  c #527D4F",
"}  c #4C6059",
"|  c #566E5E",
" . c #437B56",
".. c #457E57",
"X. c #567359",
"o. c #58765A",
"O. c #5E7664",
"+. c #5F7F60",
"@. c #498158",
"#. c #4C8559",
"$. c #548050",
"%. c #568150",
"&. c #578250",
"*. c #588451",
"=. c #5B8853",
"-. c #5C8953",
";. c #598A56",
":. c #598B57",
">. c #5D8A54",
",. c #649358",
"<. c #659559",
"1. c #669559",
"2. c #669659",
"3. c #67975A",
"4. c #68995A",
"5. c #68995B",
"6. c #699A5B",
"7. c #6A9B5C",
"8. c #6B9D5C",
"9. c #6A9F5F",
"0. c #6C9E5D",
"q. c #6EA05E",
"w. c #6EA15E",
"e. c #6FA15E",
"r. c #6FA25F",
"t. c #70A35F",
"y. c #6AA261",
"u. c #71A460",
"i. c #72A560",
"p. c #72A660",
"a. c #74A861",
"s. c #74A962",
"d. c #75A962",
"f. c #75AA62",
"g. c #76AA62",
"h. c #77AC63",
"j. c #70AA65",
"k. c #77A866",
"l. c #73AD66",
"z. c #78A967",
"x. c #79AE64",
"c. c #77A06C",
"v. c #77A16C",
"b. c #7BAD68",
"n. c #76B067",
"m. c #7BB165",
"M. c #7CB266",
"N. c #7EB567",
"B. c #7EB667",
"V. c #7FB668",
"C. c #7FB768",
"Z. c #80B768",
"A. c #80B868",
"S. c #80B869",
"D. c #81B969",
"F. c #82BB6A",
"G. c #89B678",
"H. c #8FBD7C",
"J. c #86C06C",
"K. c #8CC472",
"L. c #90C27B",
"P. c #92C37B",
"I. c #97CB7F",
"U. c #8EA38D",
"Y. c #8FA48E",
"T. c #99B591",
"R. c #99B691",
"E. c #A4BA9F",
"W. c #A6BDA1",
"Q. c #A7BDA1",
"!. c #9CCE84",
"~. c #9CCE85",
"^. c #A5C599",
"/. c #A6C699",
"(. c #A6C69A",
"). c #AACB9D",
"_. c #AEC4A7",
"`. c #AFCDA2",
"'. c #B2D1A4",
"]. c #B9E0A4",
"[. c #C9EAB6",
"{. c #CFE6C1",
"}. c #D0E8C2",
"|. c #D1E9C3",
" X c None",
/* pixels */
" X X X X X X X X X X#                     +  X X X X X X X X X X",
" X X X X X X X X X1 q 0 5 4 4 4 4 4 5 0 y u  X X X X X X X X X X",
" X X X X X X X X& u *.5.3.2.2.2.2.2.3.4.7.=.x  X X X X X X X X X",
" X X X X X X X Xi ` p.J.J.J.J.J.J.J.J.J.J.s.] v  X X X X X X X X",
" X X X X X X XM >.p.A.J.J.J.J.J.J.J.J.J.J.S.a.,. X X X X X X X X",
" X X X X X XX m e.J.J.J.J.J.J.J.J.J.J.J.J.J.J.g.U  X X X X X X X",
" X X X X X XO p 8.J.J.J.J.J.J.J.J.J.J.J.J.J.J.u.V  X X X X X X X",
" X X X X X X^ X.k.J.J.J.J.J.J.J.J.J.J.J.J.J.J.b.+.}  X X X X X X",
" X X X X X XE.^.L.J.J.J.J.J.J.J.J.J.J.J.J.J.J.P.)._. X X X X X X",
" X X X X X X{.[.~.J.J.J.J.J.J.J.J.J.J.J.J.J.J.!.[.|. X X X X X X",
" X X X X X X}.[.~.J.J.J.J.J.J.J.J.J.J.J.J.J.J.!.[.}. X X X X X X",
" X X X X X XQ.(.L.J.J.J.J.J.J.J.J.J.J.J.J.J.J.L./.W. X X X X X X",
" X X X X X X/ o.z.J.J.J.J.J.J.J.J.J.J.J.J.J.J.z.o./  X X X X X X",
" X X X X X X= j %.r.V.J.J.J.J.J.J.J.J.J.J.N.q.$.z >  X X X X X X",
" X X X X X X Xf 9 ( r.J.J.J.J.J.J.J.J.J.J.q.Y 8 h K  X X X X X X",
" X X X X X X Xf 9 Z &.2.2.q.N.J.J.N.q.2.2.%.C 7 g H  X X X X X X",
" X X X X X X- k %.&.C 4 4 T w.J.J.q.Y 4 4 C %.{ a ,  X X X X X X",
" X X X X X Xu ` p.q.R 4 4 R w.J.J.q.T 4 4 R w.r.( 6 2  X X X X X",
" X X X X Xb -.p.Z.B.w.2.2.w.B.J.J.B.w.2.2.w.B.V.r.%.w $  X X X X",
" X X X Xn [ f.N.q.q.N.J.J.J.J.J.J.J.J.J.J.N.q.q.B.i._ t  X X X X",
" X X X X0.d.D.q.Y T w.J.J.J.J.J.J.J.J.J.J.q.Y R w.C.i.,. X X X X",
" X X X XF.K.I.c.s 4 2.J.J.J.J.J.J.J.J.J.J.2.4 d v.I.K.m. X X X X",
" X X X XF.I.].T.F 4 2.J.J.J.J.J.J.J.J.J.J.2.4 G R.].I.x._  X X X",
" X X X Xp.G.`.U.S 4 2.J.J.J.J.J.J.J.J.J.J.2.4 D Y.'.H.r. X X X X",
" X X X X X' | ! * 4 2.J.J.J.J.J.J.J.J.J.J.2.4 ; ~ O. X X X X X X",
" X X X X X X X% o e 6.J.J.N.q.2.2.q.N.J.J.6.r . @  X X X X X X X",
" X X X X X X X X% N t.J.J.q.Y 4 4 T w.J.J.u.B @  X X X X X X X X",
" X X X X X X X X XA a.J.J.1.3     4 2.J.J.h.)  X X X X X X X X X",
" X X X X X X X X XI s.J.J.<.<     4 2.J.J.M. X X X X X X X X X X",
" X X X X X X X X X X9.n.l.;.l - : c :.j.j.y. X X X X X X X X X X",
" X X X X X X X X X X X#.@.Q L J K P W .... . X X X X X X X X X X",
" X X X X X X X X X X XE E E E E E E E E E E  X X X X X X X X X X"
};
