/* XPM */
static char *result[] = {
/* columns rows colors chars-per-pixel */
"32 32 239 2 ",
"   c #071821",
".  c #071921",
"X  c #081B23",
"o  c #091B23",
"O  c #091C23",
"+  c #0C2126",
"@  c #0F2226",
"#  c #0F2326",
"$  c #0E2529",
"%  c #0F272A",
"&  c #122728",
"*  c #15262C",
"=  c #15272D",
"-  c #16272D",
";  c #10292B",
":  c #112B2C",
">  c #112C2C",
",  c #112C2D",
"<  c #1F372F",
"1  c #1F382F",
"2  c #143230",
"3  c #203A30",
"4  c #223B31",
"5  c #223C31",
"6  c #274234",
"7  c #274334",
"8  c #274637",
"9  c #284334",
"0  c #284435",
"q  c #284637",
"w  c #2B4836",
"e  c #2C4937",
"r  c #2D4A37",
"t  c #2C4539",
"y  c #2C453A",
"u  c #2C463A",
"i  c #214B3F",
"p  c #24493C",
"a  c #254A3C",
"s  c #2B4A39",
"d  c #2C4A38",
"f  c #2E4C38",
"g  c #2F4D39",
"h  c #2D4D3A",
"j  c #32513A",
"k  c #33523B",
"l  c #34543C",
"z  c #35553C",
"x  c #36563D",
"c  c #37573D",
"v  c #37583E",
"b  c #395A3F",
"n  c #3A5B3F",
"m  c #2F4141",
"M  c #304242",
"N  c #314343",
"B  c #374B45",
"V  c #384C46",
"C  c #384D46",
"Z  c #3A4C4A",
"A  c #3C4E4B",
"S  c #245143",
"D  c #255344",
"F  c #265444",
"G  c #285847",
"H  c #3D5F41",
"J  c #3D504C",
"K  c #3D504D",
"L  c #3E514D",
"P  c #2D614C",
"I  c #3E6041",
"U  c #3E6142",
"Y  c #3F6142",
"T  c #3F6242",
"R  c #306850",
"E  c #455953",
"W  c #465954",
"Q  c #4A5E57",
"!  c #446548",
"~  c #456648",
"^  c #46614F",
"/  c #47694A",
"(  c #496B4B",
")  c #497048",
"_  c #4A7048",
"`  c #4E764B",
"'  c #50794C",
"]  c #527B4D",
"[  c #476150",
"{  c #486250",
"}  c #4E6A53",
"|  c #4F6C54",
" . c #506B56",
".. c #506C54",
"X. c #50645C",
"o. c #526D58",
"O. c #546E59",
"+. c #556F5A",
"@. c #556C5D",
"#. c #547059",
"$. c #55705B",
"%. c #5A785B",
"&. c #5A7061",
"*. c #607667",
"=. c #607767",
"-. c #667A6D",
";. c #578250",
":. c #578251",
">. c #588351",
",. c #588452",
"<. c #598552",
"1. c #5C8456",
"2. c #5C8556",
"3. c #5C8953",
"4. c #5D8A54",
"5. c #608E56",
"6. c #608958",
"7. c #618B59",
"8. c #659559",
"9. c #669659",
"0. c #679659",
"q. c #67975A",
"w. c #68985A",
"e. c #6A9B5C",
"r. c #6B9D5C",
"t. c #6C9D5C",
"y. c #6D9F5D",
"u. c #6EA05E",
"i. c #6EA15E",
"p. c #6FA25F",
"a. c #70A35F",
"s. c #71A45F",
"d. c #668764",
"f. c #71A560",
"g. c #73A661",
"h. c #73A364",
"j. c #74A464",
"k. c #74A861",
"l. c #74A962",
"z. c #75A962",
"x. c #75AA62",
"c. c #76AB62",
"v. c #79AA67",
"b. c #79AF65",
"n. c #76A06B",
"m. c #77A06C",
"M. c #77A16C",
"N. c #7AB065",
"B. c #7BB165",
"V. c #7CB366",
"C. c #7EB567",
"Z. c #7EB667",
"A. c #7EB16A",
"S. c #7FAB70",
"D. c #7FAB71",
"F. c #7FAC71",
"G. c #80B869",
"H. c #80B969",
"J. c #82BB6A",
"K. c #83BC6A",
"L. c #81AD72",
"P. c #82AF73",
"I. c #82AD74",
"U. c #84AE76",
"Y. c #85AE77",
"T. c #85AF77",
"R. c #8EBF79",
"E. c #8FBD7C",
"W. c #86C06C",
"Q. c #8CC372",
"!. c #8EC575",
"~. c #8FC07A",
"^. c #90C27B",
"/. c #91C47B",
"(. c #93C27E",
"). c #97CA7E",
"_. c #97CA7F",
"`. c #97CB7F",
"'. c #889D89",
"]. c #89A088",
"[. c #89A188",
"{. c #8BA08B",
"}. c #8CA48A",
"|. c #8CA18C",
" X c #8FA78C",
".X c #94BF83",
"XX c #98B490",
"oX c #99B591",
"OX c #99B691",
"+X c #9FBE94",
"@X c #A6BCA0",
"#X c #98CB80",
"$X c #9CCE85",
"%X c #9DCE85",
"&X c #9ECF86",
"*X c #A0CA8C",
"=X c #A0CB8C",
"-X c #A1C096",
";X c #A7C79A",
":X c #A6C39C",
">X c #A6C49C",
",X c #A7C49C",
"<X c #ACCE9E",
"1X c #ADD897",
"2X c #B1D59F",
"3X c #AAC0A3",
"4X c #AAC0A4",
"5X c #ACC3A6",
"6X c #AECCA1",
"7X c #AFC8A6",
"8X c #AFC5A8",
"9X c #B0C9A7",
"0X c #B1C8A9",
"qX c #B2CAA8",
"wX c #B2CBA8",
"eX c #B7CEAE",
"rX c #B2D6A0",
"tX c #B2D7A0",
"yX c #B9DFA4",
"uX c #B5D1A8",
"iX c #BDDDAD",
"pX c #BFDEAF",
"aX c #B9D0B0",
"sX c #BEE3A9",
"dX c #C1DFB1",
"fX c #C2E0B2",
"gX c #C9EAB6",
"hX c #CAEAB6",
"jX c #CAEAB7",
"kX c #CFEDBC",
"lX c #CFEEBC",
"zX c #CEE5C0",
"xX c #D0E8C2",
"cX c #D2EAC4",
"vX c #DBF3CB",
"bX c #DAF4C9",
"nX c #DCF4CC",
"mX c #E0F8CF",
"MX c None",
/* pixels */
"MXMXMXMXMXMXMXMXMXMXO                     MXMXMXMXMXMXMXMXMXMXMX",
"MXMXMXMXMXMXMXMXMXMXd e 0 6 6 6 6 7 9 w z MXMXMXMXMXMXMXMXMXMXMX",
"MXMXMXMXMXMXMXMXMXd 3.r.w.9.0.0.0.q.q.e.f.w.MXMXMXMXMXMXMXMXMXMX",
"MXMXMXMXMXMXMXMXg _ k.W.W.W.W.W.W.W.W.W.W.N.>.MXMXMXMXMXMXMXMXMX",
"MXMXMXMXMXMXMXMX8.z.H.W.W.W.W.W.W.W.W.W.W.J.B.t.MXMXMXMXMXMXMXMX",
"MXMXMXMXMXMXMXH x.C.u.9.9.u.Z.W.W.C.u.9.9.u.C.c.I MXMXMXMXMXMXMX",
"MXMXMXMXMXMXMXj p.u.Y 6 6 T i.W.W.u.U 6 6 Y u.s.l MXMXMXMXMXMXMX",
"MXMXMXMXMXMXW  .6.1.{ K K ..j.W.W.j.| K K { 2.7.#.Q MXMXMXMXMXMX",
"MXMXMXMXMXMX8X}.^ { [.4X4X-X~.W.W.~.-X4X4X].[ {  X5XMXMXMXMXMXMX",
"MXMXMXMXMXMXvX7Xo.$.wXcXeX:X=X%X%X*X:XeXcXqX+.O.9XxXMXMXMXMXMXMX",
"MXMXMXMXMXMXnXpXI.T.fXeX-.=.,XhXhX:X*.-.eXdXY.U.dXzXMXMXMXMXMXMX",
"MXMXMXMXMXMXaX<X/.%XhX3XJ K 4XmXmX3XJ K 4XhX%X^.;X@XMXMXMXMXMXMX",
"MXMXMXMXMXMXMXd.A.%XjX3XJ K 4XmXmX3XJ K 4XhX%Xv.%.E MXMXMXMXMXMX",
"MXMXMXMXMXMXMXk 4.P.tX:X=.-.eXmXmXeX-.=.,XrXL.:.s % MXMXMXMXMXMX",
"MXMXMXMXMXMXMXMX0 ( P.=X,XeXcXmXmXcXeX>X=XL./ 8 p MXMXMXMXMXMXMX",
"MXMXMXMXMXMXMXMX0 n >.m.oX3X3X3X3X3X3XoXm.>.b q a MXMXMXMXMXMXMX",
"MXMXMXMXMXMXMXMX5.;.x y V J J J J J J V y c >.,.h MXMXMXMXMXMXMX",
"MXMXMXMXMXMXMX<.V.y.I u C K K K K K K C u T i.l.) f MXMXMXMXMXMX",
"MXMXMXMXMXMXMXb.K.C.u.M.OX4X4X4X4X4X4XOXM.i.Z.G.k.q.MXMXMXMXMXMX",
"MXMXMXMXMXMXMXW.W.C.i.D.2XkXbXmXmXbXkXyX).C.u.h.R.(.MXMXMXMXMXMX",
"MXMXMXMXMXMXMXW.W.u.Y ~ F.1XlXmXmXkX1X).Q.u.U } +XiXMXMXMXMXMXMX",
"MXMXMXMXMXMXMX!.#Xn.t 7 q.`.yXgXgX2XS.9.9.` < m '.0XMXMXMXMXMXMX",
"MXMXMXMXMXMXMX&XsXXXB 7 q.Q._.$X$XS.! 6 6 < @ * Z X.MXMXMXMXMXMX",
"MXMXMXMXMXMXMX.XuX|.M 9 q.W.W.C.u.1.{ K K N -     MXMXMXMXMXMXMX",
"MXMXMXMXMXMXMXMX&.L = 7 q.W.W.u.U { [.4X4X{.A   MXMXMXMXMXMXMXMX",
"MXMXMXMXMXMXMXMXMXO . 5 ] 0.9.` < C OXhXjX6X@.MXMXMXMXMXMXMXMXMX",
"MXMXMXMXMXMXMXMXMXMXO & 4 6 6 < @ u M.%X%XE.MXMXMXMXMXMXMXMXMXMX",
"MXMXMXMXMXMXMXMXMXMXMXo .         1 ' t.g.a.MXMXMXMXMXMXMXMXMXMX",
"MXMXMXMXMXMXMXMXMXMXMXMXX         # 3 r v MXMXMXMXMXMXMXMXMXMXMX",
"MXMXMXMXMXMXMXMXMXMXMXMX2 , , > : ; $ + MXMXMXMXMXMXMXMXMXMXMXMX",
"MXMXMXMXMXMXMXMXMXMXMXP G F F F D S i MXMXMXMXMXMXMXMXMXMXMXMXMX",
"MXMXMXMXMXMXMXMXMXMXR R R R R R R R R MXMXMXMXMXMXMXMXMXMXMXMXMX"
};
