/* XPM */
static char *_b6923af924b461981018535c0052fddUlN29SoIBO6oX03Q[] = {
/* columns rows colors chars-per-pixel */
"32 32 215 2 ",
"   c None",
".  c #071821",
"X  c #081A22",
"o  c #091B23",
"O  c #091C23",
"+  c #0A1D24",
"@  c #0A1F25",
"#  c #0B2126",
"$  c #0C2227",
"%  c #0D2428",
"&  c #0E262A",
"*  c #0F272A",
"=  c #15262C",
"-  c #16272D",
";  c #1C4039",
":  c #274234",
">  c #274334",
",  c #284434",
"<  c #294535",
"1  c #294636",
"2  c #2A4636",
"3  c #2C4837",
"4  c #2C453A",
"5  c #2C463A",
"6  c #2D463A",
"7  c #2C4A38",
"8  c #2D4B38",
"9  c #2E4B38",
"0  c #2F4D39",
"q  c #314B3D",
"w  c #31503A",
"e  c #32513B",
"r  c #33523B",
"t  c #33533C",
"y  c #35553C",
"u  c #34553D",
"i  c #36563D",
"p  c #37573D",
"a  c #37583E",
"s  c #2F4241",
"d  c #224D40",
"f  c #234E41",
"g  c #314342",
"h  c #324443",
"j  c #374C46",
"k  c #384C46",
"l  c #384D46",
"z  c #3A4D4A",
"x  c #375342",
"c  c #3B5D40",
"v  c #3F5C46",
"b  c #3D504C",
"n  c #3D504D",
"m  c #3F544C",
"M  c #3F554C",
"N  c #3E6142",
"B  c #3F6142",
"V  c #3F6242",
"C  c #415550",
"Z  c #465A54",
"A  c #4A5E57",
"S  c #4C5F58",
"D  c #436744",
"F  c #436845",
"G  c #47664C",
"H  c #4B6D4C",
"J  c #4E764B",
"K  c #4F774B",
"L  c #4E724F",
"P  c #527B4D",
"I  c #537C4E",
"U  c #476150",
"Y  c #486250",
"T  c #4C6753",
"R  c #4F6C54",
"E  c #4F6658",
"W  c #506C54",
"Q  c #546E5A",
"!  c #556F5A",
"~  c #55715A",
"^  c #55705B",
"/  c #5E7D5F",
"(  c #607667",
")  c #607767",
"_  c #607865",
"`  c #667A6D",
"'  c #55804F",
"]  c #588351",
"[  c #598451",
"{  c #5A8652",
"}  c #5B8652",
"|  c #5B8753",
" . c #5C8456",
".. c #5C8556",
"X. c #5E8757",
"o. c #5D8A54",
"O. c #5E8C55",
"+. c #608E56",
"@. c #618B59",
"#. c #659458",
"$. c #669659",
"%. c #67975A",
"&. c #67985A",
"*. c #68995B",
"=. c #69995B",
"-. c #699A5B",
";. c #6B9C5C",
":. c #6D9F5D",
">. c #6EA05E",
",. c #6EA15E",
"<. c #6FA25F",
"1. c #71A45F",
"2. c #6A8B67",
"3. c #71A460",
"4. c #71A560",
"5. c #72A560",
"6. c #74A464",
"7. c #74A962",
"8. c #76AB63",
"9. c #77AC63",
"0. c #78AD64",
"q. c #78AE64",
"w. c #79AF64",
"e. c #79AF65",
"r. c #77A06B",
"t. c #77A06C",
"y. c #77A16C",
"u. c #7BA66F",
"i. c #7AAD68",
"p. c #7EB567",
"a. c #7EB667",
"s. c #7FB26B",
"d. c #7FB768",
"f. c #81BA69",
"g. c #82BA69",
"h. c #82BB6A",
"j. c #83BC6A",
"k. c #85BE6B",
"l. c #85BF6C",
"z. c #81AC73",
"x. c #84AE76",
"c. c #85AE77",
"v. c #85AF77",
"b. c #83B073",
"n. c #84B174",
"m. c #85B274",
"M. c #8AB779",
"N. c #86C06C",
"B. c #8CC372",
"V. c #8CC472",
"C. c #8CC473",
"Z. c #8FC07A",
"A. c #91C37B",
"S. c #93C57C",
"D. c #97CA7E",
"F. c #97CA7F",
"G. c #97CB7F",
"H. c #839884",
"J. c #8A9F8A",
"K. c #89A088",
"L. c #89A188",
"P. c #8CA48A",
"I. c #90A88D",
"U. c #98B590",
"Y. c #99B591",
"T. c #99B691",
"R. c #A0BD96",
"E. c #A0BD97",
"W. c #A4BB9F",
"Q. c #98CB80",
"!. c #9BCD83",
"~. c #9CCE84",
"^. c #9CCE85",
"/. c #9DCE85",
"(. c #A0CA8C",
"). c #A0CB8C",
"_. c #A1C096",
"`. c #A6C39C",
"'. c #A7C49C",
"]. c #AACA9C",
"[. c #ABC99F",
"{. c #ADD897",
"}. c #AAC0A3",
"|. c #AAC0A4",
" X c #ABC2A5",
".X c #ADC3A6",
"XX c #B1C9A7",
"oX c #B1CAA8",
"OX c #B2CAA8",
"+X c #B2CBA8",
"@X c #B2C9AA",
"#X c #B5CCAD",
"$X c #B7CEAE",
"%X c #AFD0A1",
"&X c #B1D1A3",
"*X c #B2D7A0",
"=X c #B3D8A1",
"-X c #B9DFA4",
";X c #B9E0A4",
":X c #B9E0A5",
">X c #C1DFB1",
",X c #C2E0B2",
"<X c #C8E9B5",
"1X c #C9EAB6",
"2X c #CAEAB6",
"3X c #CCE3BF",
"4X c #CFEDBC",
"5X c #CFEEBC",
"6X c #D0E7C2",
"7X c #D0E8C2",
"8X c #D1E8C3",
"9X c #D1E9C3",
"0X c #D2EAC4",
"qX c #DAF4C9",
"wX c #E0F8CF",
/* pixels */
"                                                                ",
"                                                                ",
"                                                                ",
"                                                                ",
"                  2 -.N.N.N.N.N.N.N.N.k.j.:.e                   ",
"                2 F 1.N.N.N.N.N.N.N.N.N.N.7.K e                 ",
"              9 | 3.d.N.N.N.N.N.N.N.N.N.N.g.9.-.                ",
"            X 0 :.a.>.$.$.>.a.N.N.a.>.$.$.>.a.q.D               ",
"            X 3 ;.>.B : : B >.N.N.>.B : : B >.3.y               ",
"            C T  . .Y n n W 6.N.N.6.R n n Y  .@.^ S             ",
"            W.P.Y Y L.|.|._.Z.N.N.Z._.|.|.L.U Y I..X            ",
"            7X+X! ^ +X0X$X`.)././.).`.$X0X+X! ! XX7X            ",
"            6X>Xv.v.,X$X` ) '.2X2X`.) ` $X>Xv.v.>X7X            ",
"            |.].A./.2X}.n n |.wXwX}.n n |.2X/.S.%X$X            ",
"            A / i./.2X}.n n |.wXwX}.n n |.2X/.s.2.              ",
"              9 | b.*X`.) ` $XwXwX$X` ) '.=Xm.+.y               ",
"                2 H b.).'.$X0XwXwX0X$X'.).m.L 9                 ",
"                2 c | t.U.}.}.}.}.}.}.U.t.| B 9                 ",
"              t o.] y 4 k n n n n n n j 4 a | O.e               ",
"            y I q.>.B 4 k n n n n n n k 4 B >.9.K e             ",
"          y $.q.g.a.>.t.U.|.|.|.|.|.|.U.t.>.a.g.9.$.            ",
"          P q.a.>.>.a.G.-X5XqXwXwXqX5X-XG.a.>.>.a.q.'           ",
"        3.q.g.>.B B >.B.G.{.5XwXwX5X{.G.B.>.B B >.g.q.3.        ",
"        l.C.G.r.4 : $.N.N.G.-X2X2X-XG.N.N.$.: 4 t.G.C.j.        ",
"        l.Q.:XU.j : $.N.N.B.G././.G.B.N.N.$.: k U.:XG.g.        ",
"        >.z.E.H.s : $.N.N.N.N.N.N.N.N.N.N.$.: g J.].M.7.        ",
"          x m h = : $.N.N.N.N.N.N.N.N.N.N.$.: = z E G           ",
"          $ % % O 2 &.N.N.a.>.$.$.>.a.N.N.-.2 X +               ",
"            d ; % 2 -.N.N.>.B : : B >.N.N.:.0 +                 ",
"              d % q u././.t.4 . . 4 t./.!.m.v                   ",
"                # m E.2X2XU.k . . k U.2X2X&X_                   ",
"                + Z +XwXwX}.n . . n |.wXwX3X                    "
};
