/* XPM */
static char *result[] = {
/* columns rows colors chars-per-pixel */
"32 32 174 2 ",
"   c #071821",
".  c #0D2327",
"X  c #152C2E",
"o  c #18312D",
"O  c #163633",
"+  c #1A3231",
"@  c #1E4037",
"#  c #1F463C",
"$  c #274234",
"%  c #284535",
"&  c #2A4837",
"*  c #244538",
"=  c #2C463A",
"-  c #22493D",
";  c #2D4B38",
":  c #314F3F",
">  c #2E523F",
",  c #33563F",
"<  c #37593E",
"1  c #39593E",
"2  c #2F4341",
"3  c #234E41",
"4  c #374C46",
"5  c #384D46",
"6  c #324543",
"7  c #265444",
"8  c #275846",
"9  c #2A5846",
"0  c #2C5E4A",
"q  c #375640",
"w  c #345D44",
"e  c #3D504D",
"r  c #3F5A4D",
"t  c #3C5944",
"y  c #2C614C",
"u  c #3E6243",
"i  c #33664D",
"p  c #3B654B",
"a  c #36684D",
"s  c #3A6C4D",
"d  c #366550",
"f  c #316950",
"g  c #3F6854",
"h  c #3E7554",
"j  c #3F7855",
"k  c #465F54",
"l  c #406545",
"z  c #446B47",
"x  c #44664C",
"c  c #406948",
"v  c #496F48",
"b  c #40714E",
"n  c #4C734C",
"m  c #446453",
"M  c #486350",
"N  c #436952",
"B  c #4F6C54",
"V  c #506C54",
"C  c #556F5A",
"Z  c #427753",
"A  c #4B7455",
"S  c #457D56",
"D  c #4A7E55",
"F  c #4B745E",
"G  c #4D7A5D",
"H  c #537257",
"J  c #517C51",
"K  c #54735B",
"L  c #537B5D",
"P  c #547E65",
"I  c #607767",
"U  c #667A6D",
"Y  c #4C8156",
"T  c #4C835B",
"R  c #4F8859",
"E  c #568453",
"W  c #5A8555",
"Q  c #5C8B55",
"!  c #56875B",
"~  c #5A845A",
"^  c #548C5B",
"/  c #5B8F5C",
"(  c #5C925C",
")  c #618F57",
"_  c #628D5A",
"`  c #65965A",
"'  c #64985D",
"]  c #6A9B5D",
"[  c #6EA05E",
"{  c #71A45F",
"}  c #5B8364",
"|  c #568168",
" . c #56886A",
".. c #5C8A6B",
"X. c #558263",
"o. c #5F9065",
"O. c #5F9960",
"+. c #5C8C70",
"@. c #608B66",
"#. c #66896A",
"$. c #6D9567",
"%. c #659E61",
"&. c #61946D",
"*. c #6A9E6D",
"=. c #749D6A",
"-. c #6E8B72",
";. c #689174",
":. c #6DA462",
">. c #6FA964",
",. c #6BA368",
"<. c #72A563",
"1. c #73AB65",
"2. c #78AE66",
"3. c #77A16C",
"4. c #79A56D",
"5. c #74AC69",
"6. c #7AAD69",
"7. c #76B067",
"8. c #7DB467",
"9. c #7EB46A",
"0. c #7FB869",
"q. c #7CAA71",
"w. c #82B56F",
"e. c #82BC6B",
"r. c #83AF75",
"t. c #86A67E",
"y. c #82B275",
"u. c #81B478",
"i. c #8BB57F",
"p. c #8FBE7C",
"a. c #86C06C",
"s. c #88C16E",
"d. c #8CC372",
"f. c #8EC17A",
"g. c #91C47D",
"h. c #97CA7F",
"j. c #839C85",
"k. c #81A581",
"l. c #8AA389",
"z. c #89AB8D",
"x. c #95BE8D",
"c. c #8CAE90",
"v. c #99B691",
"b. c #9CBC94",
"n. c #97BD98",
"m. c #98BF99",
"M. c #9CCE84",
"N. c #9CC791",
"B. c #A0CB8C",
"V. c #A1C296",
"C. c #A6C49C",
"Z. c #A3C99D",
"A. c #ADD897",
"S. c #B1D69F",
"D. c #AAC0A4",
"F. c #AFC8A7",
"G. c #ADCCA9",
"H. c #A3C2A1",
"J. c #B6CDAC",
"K. c #B2D5A2",
"L. c #B7DFA3",
"P. c #B9DFA4",
"I. c #B4D4AD",
"U. c #BCDBAF",
"Y. c #BFDEB0",
"T. c #B9E0A4",
"R. c #C1DFB1",
"E. c #C3E3B1",
"W. c #C7E8B5",
"Q. c #C9EAB6",
"!. c #CFEDBC",
"~. c #D2EAC4",
"^. c #DBF5CA",
"/. c #E0F8CF",
/* pixels */
"a.a.a.a.a.a.a.a.a.>.T f f Y 5.a.a.a.a.a.a.a.a.a.a.>.R f f T >.a.",
"e.e.7.>.>.7.0.0.7.:.+.+.+.o.>.7.e.0.7.>.:.1.0.0.7.,.+.+.+.o.,.>.",
"a.2.^ Y Y ( 7.7.o.+.N.I.I.N.+.^ 7.7.^ S Z ! 2.2.( +.N.I.I.N.+.T ",
"1.,.&.+.+.+.,.O.d F x.T.T.N.+.^ ,.5.,.+.&.o.( ! h  .H.Q.W.N. .f ",
"S &.N.I.I.N.&.f % q <.d.h.e.{ w.7.9.f.f.f.q.A 9 f T 0.M.N.q.T f ",
"f +.H.Q.Y.H.;.g ; z { a.e.e.e.e.a.a.a.a.s.9.E N f j 5.0.7.,.^ S ",
"f T q.M.M.i.;.P W [ e.e.s.a.e.e.a.a.a.a.a.e.7.3.G g >.7.^ R %.>.",
"T T %.2.8.4.C M ] e.[ ` ` { e.e.a.7.[ ' ' [ w.9.A y ^ O.j T >.a.",
">.,.R R 1.%.t , ] ] l $ $ 1 [ e.e.[ u + $ l { <.p - a Z f T :.a.",
"a.>.T j ( _ C V W _ k k k V { e.e.<.V k e M W _ K m f f Z ( 7.a.",
"a.>.j f s @.v.l.M k t.D.D.v.p.e.s.p.V.D.D.j.k M l.z.F s O.7.0.a.",
"a.7.^ h 0 ..U.F.C C D.~.R.C.B.B.B.B.C.J.~.J.C C G.G.P s :.a.a.a.",
"a.e.7.( i X.I.R.r.r.R.J.U I D.R.Q.C.I U I.R.r.r.Y.G.X.g :.a.a.a.",
"a.a.a.>.Y X.z.V.p.B.Q.D.k k D././.D.5 k D.Q.M.g.N.c.X.Y >.a.a.a.",
"a.a.a.0.:.! N L 2.h.Q.D.6 k D././.D.l k D.Q.M.6.} F ( >.0.a.a.a.",
"a.a.a.a.0.' p w W r.S.C.I I F././.J.I C C.K.y.Q p p ( >.>.7.0.a.",
"a.a.a.a.a.8.` J u n r.B.C.J.~././.~.J.D.h.r.n v J ) T Y S ( 7.a.",
"a.0.6.1.>.{ { Q l u W =.v.D.D.D.D.D.D.v.r.W v v W _ ..+.+.+.,.>.",
"a.7.^ S Y Y E J ) W 1 = 4 k k 6 e e k 2 = 1 W ) z N z.I.I.N.+.Y ",
">.,.&. .| T J J { [ t 2 4 6 5 k e 6 k 6 = u { { n z k.P.W.N. .f ",
"Y &.n.H.t.#._ { e.w.] =.v.C.D.D.D.D.D.v.r.[ e.e.<.` W =.x.9.T f ",
"f  .Z.K.t.$.w.w.[ [ e.h.T.!.^././.^.!.P.p.w.[ [ 8.1.Q ) :.( T T ",
"f T q.M.w.w.e.[ u u [ s.h.A.!././.Q.S.h.e.{ u u [ 0.7.1.( T ,.:.",
"S R O.7.e.d.h.=.; $ ` e.a.h.T.Q.W.R.p.e.e.] $ = 3.h.d.7.T S :.a.",
"5.%.R %.0.M.L.v.5 $ ` s.s.d.h.B.B.h.s.a.a.` $ 5 v.T.h.>.S Z :.a.",
"a.>.S S ] q.b.j.= $ ` e.a.a.a.s.a.a.a.a.a.` $ 6 j.N.q.( D R 2.a.",
"a.>.T f u p x 4 X % ` a.a.e.e.e.a.a.e.a.a.` $ + e N g b ( 1.0.a.",
"a.7.R h 7 - * + . & ` a.a.e.{ ` ` { e.a.a.` ; o @ # 3 a [ a.a.a.",
"a.0.7.( s 0 0 3 X & ` a.e.[ t $ $ u { e.a.] , @ 7 y y h >.a.a.a.",
"a.a.a.7.^ h f 8 o : 4.M.B.=.=     & 4.h.M.4.p - 0 f j ( 7.a.a.a.",
"a.a.a.0.1.O.h 8 O k b.Q.Q.v.6     = v.Q.E.N.L 7 y h O.7.0.a.a.a.",
"a.a.a.a.e.>.Z 8 o M F././.D.k     k D./.^.I.} 8 y S >.a.a.a.a.a."
};
