/* XPM */
static char *_5587d6b7fab443bfd38dc21ed5b6bc7FGVnL86F1Q24o3N7[] = {
/* columns rows colors chars-per-pixel */
"32 32 213 2 ",
"   c None",
".  c #071821",
"X  c #091B23",
"o  c #0F2226",
"O  c #102326",
"+  c #102229",
"@  c #142928",
"#  c #102A2C",
"$  c #112B2C",
"%  c #17282E",
"&  c #112C2C",
"*  c #112C2D",
"=  c #1F372F",
"-  c #1F382F",
";  c #223C31",
":  c #233D32",
">  c #233538",
",  c #274234",
"<  c #274334",
"1  c #284334",
"2  c #284434",
"3  c #284435",
"4  c #294435",
"5  c #284535",
"6  c #2A4636",
"7  c #2B4837",
"8  c #2C4837",
"9  c #2C4937",
"0  c #2C453A",
"q  c #2C463A",
"w  c #2C4A38",
"e  c #2D4A38",
"r  c #2F4D39",
"t  c #304E39",
"y  c #304F3A",
"u  c #33523B",
"i  c #33533B",
"p  c #35553C",
"a  c #37573D",
"s  c #38593E",
"d  c #3A5B3F",
"f  c #314443",
"g  c #324443",
"h  c #374C46",
"j  c #384C46",
"k  c #384D46",
"l  c #255243",
"z  c #255343",
"x  c #255344",
"c  c #265444",
"v  c #3C5E40",
"b  c #3D504C",
"n  c #3D504D",
"m  c #3D6041",
"M  c #3E6041",
"N  c #3E6142",
"B  c #3F6142",
"V  c #3F6242",
"C  c #306850",
"Z  c #41544F",
"A  c #425D4A",
"S  c #455F4D",
"D  c #455F4E",
"F  c #465953",
"G  c #436744",
"H  c #446548",
"J  c #47694A",
"K  c #496A4B",
"L  c #4A7048",
"P  c #4E764B",
"I  c #4F774B",
"U  c #517A4D",
"Y  c #537D4E",
"T  c #547E4F",
"R  c #476150",
"E  c #486250",
"W  c #4F6C54",
"Q  c #506A56",
"!  c #506B56",
"~  c #506C54",
"^  c #506C55",
"/  c #55705B",
"(  c #56705B",
")  c #5B795D",
"_  c #5C7462",
"`  c #607667",
"'  c #607767",
"]  c #667A6D",
"[  c #578250",
"{  c #588351",
"}  c #5C8456",
"|  c #5C8853",
" . c #5F8C55",
".. c #618F56",
"X. c #608A58",
"o. c #638E5A",
"O. c #639358",
"+. c #649358",
"@. c #659459",
"#. c #669659",
"$. c #679659",
"%. c #67965A",
"&. c #67975A",
"*. c #68985A",
"=. c #699A5B",
"-. c #6A9B5C",
";. c #6B9C5C",
":. c #6B9D5C",
">. c #6D9F5D",
",. c #6EA05E",
"<. c #6EA15E",
"1. c #70A35F",
"2. c #6E9E60",
"3. c #6D9069",
"4. c #72A560",
"5. c #73A761",
"6. c #74A464",
"7. c #74A861",
"8. c #74A962",
"9. c #76AA62",
"0. c #76AB63",
"q. c #77A06C",
"w. c #77A16C",
"e. c #7AB065",
"r. c #7AB165",
"t. c #7DB467",
"y. c #7EB567",
"u. c #7EB667",
"i. c #7FB768",
"p. c #7FAB70",
"a. c #80B46B",
"s. c #80B869",
"d. c #80B969",
"f. c #81BA69",
"g. c #82BB6A",
"h. c #83BC6A",
"j. c #85BE6B",
"k. c #85BF6B",
"l. c #85BF6C",
"z. c #81AB73",
"x. c #82AD73",
"c. c #82AE72",
"v. c #82AF72",
"b. c #82AE73",
"n. c #85AF77",
"m. c #89BF71",
"M. c #90BE7C",
"N. c #86C06C",
"B. c #8CC372",
"V. c #8CC473",
"C. c #8FC07A",
"Z. c #92C57A",
"A. c #95C87D",
"S. c #97CA7E",
"D. c #97CA7F",
"F. c #97CB7F",
"G. c #7E9381",
"H. c #89A188",
"J. c #8AA188",
"K. c #8AA288",
"L. c #8FA78C",
"P. c #8EA48E",
"I. c #93AE8D",
"U. c #91A690",
"Y. c #98B590",
"T. c #99B591",
"R. c #99B691",
"E. c #95C380",
"W. c #98CB80",
"Q. c #9CCE85",
"!. c #9DCE85",
"~. c #9DCE86",
"^. c #9ECF86",
"/. c #A0CA8C",
"(. c #A0CB8C",
"). c #A1C096",
"_. c #A6C39C",
"`. c #A6C49C",
"'. c #A7C49C",
"]. c #ADD897",
"[. c #AFD19F",
"{. c #B1D59F",
"}. c #AAC0A3",
"|. c #ACC5A3",
" X c #AAC0A4",
".X c #ACC5A4",
"XX c #B0C7A9",
"oX c #B2CBA8",
"OX c #B2CBA9",
"+X c #B7CEAE",
"@X c #B2D7A0",
"#X c #B3D7A1",
"$X c #B1D0A4",
"%X c #B9DFA4",
"&X c #B8D6A9",
"*X c #BCDFA9",
"=X c #BDDCAD",
"-X c #BDDCAE",
";X c #BBD2B1",
":X c #BAE0A5",
">X c #C0D7B5",
",X c #C2E0B2",
"<X c #C9EAB6",
"1X c #CAEAB6",
"2X c #CAEAB7",
"3X c #CBEBB8",
"4X c #CFEDBC",
"5X c #CFEEBC",
"6X c #D2EAC4",
"7X c #DAF4C9",
"8X c #DEF6CD",
"9X c #DFF7CE",
"0X c #E0F8CF",
/* pixels */
"                    X . . . . . . . . . .                       ",
"                    7 8 3 , , , , , 1 3 y y                     ",
"                  w | ;.*.&.&.&.&.&.&.*.,...y                   ",
"                r L 7.N.N.N.N.N.N.N.N.N.N.7.I i                 ",
"                &.7.d.N.N.N.N.N.N.N.N.N.N.d.7.-.                ",
"              M 7.u.,.&.&.,.u.N.N.u.,.&.&.,.u.e.                ",
"              i 1.,.M , , M ,.N.N.,.M , , M ,.7.M               ",
"            F ^ X.} E n n ^ 6.N.N.6.W n n R } o.)               ",
"            XXH.S E H. X X).C.N.N.C.). X XH.E S P.;X            ",
"            8X.X! / oX6X+X_.(.!.!.(._.+X6XoX/ ! |.8X            ",
"            8X-Xz.n.,X+X] ' '.1X1X_.' ] +X,Xn.z.-X8X            ",
"            >X[.Z.!.1X}.n n  X0X0X}.n n  X1X!.D.*X              ",
"              3.a.!.1X}.n n  X0X0X}.n n  X3X!.m.                ",
"                 .v.@X_.' ] +X0X0X+X] ' '.@Xv.+.                ",
"                3 K v.(.'.+X6X0X0X6X+X'.(.v.J ,                 ",
"                , s { q.T.}.}.}.}.}.}.T.q.{ s 3                 ",
"                O.T p 0 j n n n n n n j 0 p {  .                ",
"                h.;.v 0 j n n n n n n j 0 M ,.e.[               ",
"                k.u.>.q.T. X X X X X XT.q.,.u.d.e.4.            ",
"                2.1.i.D.%X5X7X0X0X7X5X{.p.,.u.N.N.k.            ",
"              I.A G 4.B.D.].5X0X0X5X].p.H M ,.N.N.l.            ",
"              G.> ; U &.&.p.{.1X1X%XD.&., 0 q.D.V.N.            ",
"                + O - , , H p.!.!.D.B.&., h T.:XW.N.            ",
"                . % g n n E } ,.u.N.N.&., g U.&XE.d.            ",
"                  Z P. X XH.R M ,.N.N.&.3 % F                   ",
"                  _ $X1X1XT.j - I &.&.Y ; .                     ",
"                    M.!.!.q.0 o = , 1 ; @                       ",
"                    &.;.*.I = . . . . .                         ",
"                    w 8 3 - o . . . .                           ",
"                    * $ $ $ * * $ $                             ",
"                    x z x x x c x z                             ",
"                    C C C C C C C C                             "
};
