/* XPM */
static char *result[] = {
/* columns rows colors chars-per-pixel */
"32 32 176 2 ",
"   c #0A1D23",
".  c #0E2126",
"X  c #102527",
"o  c #132B2B",
"O  c #17342F",
"+  c #1E372F",
"@  c #173330",
"#  c #1C3333",
"$  c #1C3831",
"%  c #213D33",
"&  c #293E3C",
"*  c #233536",
"=  c #1C4139",
"-  c #264234",
";  c #294536",
":  c #2C4A37",
">  c #2C463A",
",  c #23493B",
"<  c #2C4B3B",
"1  c #2C513E",
"2  c #34563E",
"3  c #37593E",
"4  c #2A4A41",
"5  c #324544",
"6  c #334844",
"7  c #384D46",
"8  c #265444",
"9  c #285443",
"0  c #2D5B46",
"q  c #335D45",
"w  c #3C5E43",
"e  c #3D504D",
"r  c #3B5A4F",
"t  c #355642",
"y  c #3D5F52",
"u  c #2D624C",
"i  c #3E6243",
"p  c #33644B",
"a  c #3C644B",
"s  c #35694E",
"d  c #3B6C4D",
"f  c #326A51",
"g  c #3B6E51",
"h  c #377052",
"j  c #3D7453",
"k  c #3F7855",
"l  c #405951",
"z  c #406544",
"x  c #44654B",
"c  c #476D4B",
"v  c #486C4C",
"b  c #4C754C",
"n  c #517A4D",
"m  c #476150",
"M  c #486250",
"N  c #466C54",
"B  c #4D6B53",
"V  c #516C56",
"C  c #546E59",
"Z  c #427551",
"A  c #447C56",
"S  c #4C7D55",
"D  c #47715D",
"F  c #4B715A",
"G  c #4F7A5E",
"H  c #527F52",
"J  c #54735B",
"K  c #53785F",
"L  c #517460",
"P  c #537C66",
"I  c #5D7961",
"U  c #5C7764",
"Y  c #607767",
"T  c #667A6D",
"R  c #4F8457",
"E  c #4C835C",
"W  c #538354",
"Q  c #5A8453",
"!  c #578856",
"~  c #5A8A55",
"^  c #51845C",
"/  c #548C5B",
"(  c #5C8C5A",
")  c #5C925C",
"_  c #658F5D",
"`  c #65965A",
"'  c #669A5D",
"]  c #6B9C5D",
"[  c #6EA05E",
"{  c #528164",
"}  c #5B8360",
"|  c #578866",
" . c #57866C",
".. c #56886A",
"X. c #5B8B6F",
"o. c #5F9860",
"O. c #5F916B",
"+. c #5C8C70",
"@. c #668A62",
"#. c #659660",
"$. c #689461",
"%. c #639C61",
"&. c #699D60",
"*. c #61946D",
"=. c #65996C",
"-. c #729E6B",
";. c #748E74",
":. c #6DA563",
">. c #6FA965",
",. c #6BA268",
"<. c #73A564",
"1. c #73AB65",
"2. c #78AD66",
"3. c #76A26C",
"4. c #76AE69",
"5. c #76B067",
"6. c #7DB467",
"7. c #7CB669",
"8. c #7FB96A",
"9. c #7EAC71",
"0. c #78A278",
"q. c #7DB077",
"w. c #83BC6B",
"e. c #83AE75",
"r. c #81AB7A",
"t. c #85B476",
"y. c #82B478",
"u. c #88B17D",
"i. c #8CBC7B",
"p. c #86C06C",
"a. c #88C16F",
"s. c #8FC07A",
"d. c #8CC372",
"f. c #97CA7F",
"g. c #92C57B",
"h. c #819A84",
"j. c #87A68B",
"k. c #8AA288",
"l. c #89AA8D",
"z. c #8AB085",
"x. c #8FB08F",
"c. c #94B18D",
"v. c #8EB391",
"b. c #99B691",
"n. c #95BC91",
"m. c #9BBC94",
"M. c #9ABE9A",
"N. c #95C580",
"B. c #9CCD85",
"V. c #9BCA8B",
"C. c #9BC38E",
"Z. c #9FC195",
"A. c #9FC69A",
"S. c #A0CB8C",
"D. c #A1C296",
"F. c #A6C49C",
"G. c #A4CA9C",
"H. c #ADD897",
"J. c #B1D59F",
"K. c #AAC0A4",
"L. c #ACCBA4",
"P. c #ADCCA9",
"I. c #B6CDAD",
"U. c #AED5A0",
"Y. c #B9DFA4",
"T. c #B4D4AF",
"R. c #BCDDAD",
"E. c #C1DFB1",
"W. c #C1E2AE",
"Q. c #C2E0B2",
"!. c #C7E8B5",
"~. c #C9EAB6",
"^. c #CFEDBC",
"/. c #D2EAC4",
"(. c #DAF4C9",
"). c #E0F8CF",
/* pixels */
"p.p.p.p.p.p.p.w.w.! , o .       . . X % z ~ 2.w.p.<.E f f E >.w.",
"w.w.5.>.>.5.8.6.` H x t < ; > > : : : 3 b ~ [ 1.1.[ O.+.X.O.,.>.",
"p.4./ E A / 5.' 3 x $.<.&.] ` ' ` ` ` ` [ ` ~ Q W *.Z.T.T.A.O.E ",
"1.,.*.X.+.O.' R 3 v w.w.p.w.w.w.p.p.p.w.w.<.` n h ^ A.!.!.A...u ",
"E *.Z.T.T.v.G d Q <.w.w.w.w.a.w.p.p.w.a.w.w.<.` d g 4.B.B.q.E u ",
"f ..A.~.~.M.L v [ w.[ ` ` [ w.a.w.w.[ ` ` <.w.[ a 0 %.8.5.,.E E ",
"u E q.B.B.u.U B [ [ i + ; z <.w.w.[ i % ; w [ e.a 1 ) 5./ / [ >.",
"E E :.1.8.t.;.I _ n M l l V <.w.p.<.V l l m n _ J N / ) k A >.p.",
">.,.E / >.i.F.k.M M k.K.K.D.i.w.w.i.D.K.K.h.M M k.l.{ g f A 1.p.",
"p.>.A k ) i.W.L.V J P./.I.F.S.S.S.S.K.I./.I.J C L.P.P 0 Z / 5.p.",
"p.>.E f Z 0.R.R.e.e.E.I.T Y F.~.~.F.Y T I.E.e.e.R.P.P p ) 5.w.p.",
"p.5./ k f | n.D.s.S.~.K.7 l K.).).K.7 l K.^.B.s.Z.j.D g :.p.p.p.",
"p.8.5.%.k h A ^ 2.B.~.K.e e K.).).K.l l K.~.B.2.J y p A :.p.p.p.",
"p.p.p.5./ h 1 u W e.J.F.Y T I.).).I.Y I F.J.9.n 9 , s / 4.p.p.p.",
"p.p.p.8.5.) h 1 : v t.V.F.I./.).).^.I.F.S.e.c < 9 s / 1.8.p.p.p.",
"p.p.p.p.p.5.! d 2 3 Q 3.b.K.K.K.K.K.K.b.3.Q 3 < q j ) >.>.5.8.p.",
"p.w.p.p.w.6.` ~ ] n 3 & l 5 l l l e e 5 & 3 Q Q i i S A A ) 5.p.",
"p.w.5.1.1.:.] ] w.[ w * & l 7 l e e l 7 ; 3 w.[ n z K Y X.*.,.>.",
"p.5.) A A / 1.5.w.e.[ e.b.K.F.K.K.K.K.c.e.` w.w.w._ r.F.P.Z.O.E ",
">.,.*.X.X.=.5.5.w.2.[ e.J.^.).).).(.~.E.w.w.` e.w.e.u.K.R.G...u ",
"A *.Z.T.T.n.<.>.2.[ z z e.H.^.).).^.H.f.w.e.i V m.A.q.i.N.q.E u ",
"f ..A.~.~.F.9.q.w.-.: ; ` f.J.~.Q.J.e.` ` b + 5 h.x.3.[ >.,.R E ",
"f E q.B.f.S.V.S.J.c.7 ; ` d.f.B.S.e.z + + + . * y F [ >./ E :.>.",
"A R ,.5.w.g.S.m.D.k.> ; ] w.w.w.[ I M l 3 5 * & 4 9 / o.k E >.w.",
">.,.R / 5.p.t.-.K r O - ` p.w.[ w M k.K.K.k.B w a p k A f A 1.p.",
"p.>.E k ) 5.1.) p = o - n ` ` b % 7 b.~.~.G.@.b h f f f A / 5.p.",
"p.>.E f k ) 1.' h 8 = - ; - - +   > 3.B.B.t.` ~ Z f f A %.5.w.w.",
"p.5./ k f k %.) j u 8 , + .       % b ] &.` / ! j f u A >.p.p.p.",
"p.p.5.o.k h k k f f u 0 , o . .   o % 3 p s d j f f u E 1.p.p.p.",
"p.p.p.5./ A f f f f j j t $ $ @ O + % 2 i u s s f h k / 5.p.p.p.",
"p.p.p.8.5.) k f f k R A d p 0 0 0 p b ! ) ) k u f k o.5.8.p.p.p.",
"p.p.p.p.p.>.E f f k R E k h h g h A ) :.7.>.E f u E 1.p.p.p.p.p."
};
