/* XPM */
static char *result[] = {
/* columns rows colors chars-per-pixel */
"32 32 176 2 ",
"   c #071921",
".  c #091B23",
"X  c #0E2226",
"o  c #0F272A",
"O  c #142C2B",
"+  c #182E2B",
"@  c #15302E",
"#  c #1F372F",
"$  c #1F382F",
"%  c #1B3932",
"&  c #1C3233",
"*  c #213B30",
"=  c #213B3A",
"-  c #264235",
";  c #284435",
":  c #2B4836",
">  c #244539",
",  c #2C453A",
"<  c #244D3F",
"1  c #2D4D3A",
"2  c #32543D",
"3  c #38583E",
"4  c #294540",
"5  c #364B45",
"6  c #384C46",
"7  c #2B5442",
"8  c #2A5A46",
"9  c #2E5F49",
"0  c #335240",
"q  c #345E45",
"w  c #3B5F41",
"e  c #3D504D",
"r  c #3D5B50",
"t  c #2E644E",
"y  c #3E6143",
"u  c #33644B",
"i  c #3E624B",
"p  c #32694F",
"a  c #3B6C4D",
"s  c #3C704F",
"d  c #306750",
"f  c #326A51",
"g  c #396D55",
"h  c #3E7553",
"j  c #3F7854",
"k  c #406544",
"l  c #446A47",
"z  c #44634A",
"x  c #486B4C",
"c  c #466A4B",
"v  c #4D754C",
"b  c #4F7A4E",
"n  c #517C4E",
"m  c #476150",
"M  c #496350",
"N  c #466F52",
"B  c #496F5A",
"V  c #4F6C54",
"C  c #516D56",
"Z  c #417453",
"A  c #4E7055",
"S  c #437C56",
"D  c #4C7D54",
"F  c #4B745B",
"G  c #4F7A5E",
"H  c #56715B",
"J  c #497B61",
"K  c #5D7D63",
"L  c #527561",
"P  c #607767",
"I  c #667A6D",
"U  c #4C8155",
"Y  c #4A815C",
"T  c #548354",
"R  c #5A8454",
"E  c #578855",
"W  c #5A8B57",
"Q  c #5E8658",
"!  c #548D5B",
"~  c #5F8A59",
"^  c #54845E",
"/  c #5C935C",
"(  c #5F985F",
")  c #65955A",
"_  c #659A5D",
"`  c #699B5D",
"'  c #6EA05E",
"]  c #528467",
"[  c #5C8762",
"{  c #578966",
"}  c #54856A",
"|  c #56886A",
" . c #5B8B6F",
".. c #5B8B66",
"X. c #5E9260",
"o. c #5F916A",
"O. c #5C8C70",
"+. c #648363",
"@. c #639C61",
"#. c #6A9F62",
"$. c #61946D",
"%. c #6B9868",
"&. c #6B9562",
"*. c #698B75",
"=. c #708E79",
"-. c #669870",
";. c #6C9573",
":. c #789376",
">. c #77977A",
",. c #769C72",
"<. c #6DA161",
"1. c #6BA268",
"2. c #72A462",
"3. c #73AC66",
"4. c #76A16C",
"5. c #76AC6A",
"6. c #7AAD6B",
"7. c #76B067",
"8. c #7DB467",
"9. c #7BB368",
"0. c #7FB869",
"q. c #7EAB71",
"w. c #72A273",
"e. c #82BB6A",
"r. c #82AE74",
"t. c #83B576",
"y. c #8CBF77",
"u. c #82B479",
"i. c #89B27E",
"p. c #88BD77",
"a. c #86C06C",
"s. c #8CC372",
"d. c #8FC17A",
"f. c #93C47D",
"g. c #97CA7F",
"h. c #7EA788",
"j. c #82A083",
"k. c #89A486",
"l. c #84A388",
"z. c #89A188",
"x. c #87B189",
"c. c #8FB78C",
"v. c #95BB8F",
"b. c #96AE93",
"n. c #8EB391",
"m. c #99B591",
"M. c #92B895",
"N. c #99BE9A",
"B. c #9BBD96",
"V. c #9CCD85",
"C. c #99C48F",
"Z. c #9CC293",
"A. c #9DC29E",
"S. c #A0CB8C",
"D. c #A1C096",
"F. c #A6C49C",
"G. c #A4C99D",
"H. c #ADD897",
"J. c #ACD09A",
"K. c #B1D59F",
"L. c #AAC0A4",
"P. c #ABCEA0",
"I. c #B6CDAD",
"U. c #B3D4A6",
"Y. c #B9DFA4",
"T. c #B3D3AE",
"R. c #B8DCA8",
"E. c #BEE1AB",
"W. c #C1DFB1",
"Q. c #C3E3B2",
"!. c #C7E8B5",
"~. c #C9EAB6",
"^. c #CFEDBC",
"/. c #D2EAC4",
"(. c #DAF4C9",
"). c #E0F8CF",
/* pixels */
"a.a.a.a.a.a.a.e.0.^ > o . . . .   . . + 1 v 2.a.a.3.Y d d Y 3.a.",
"e.e.7.3.3.7.e.9.) D i 2 , ; ; ; - ; : 1 k n ) 2.3.<.o.o.O.o.1.3.",
"a.7.! S U ! 7._ w z ) ' ` _ ) ` ) ) ) ` ` W b b U $.Z.T.T.Z.o.S ",
"3.1.$.O.O. .@.T q v 5.a.a.a.a.a.a.a.a.e.a.2.T v s ] A.~.~.A.| f ",
"Y o.A.T.T.n.G s Q 2.e.a.e.e.a.a.a.a.e.a.a.e.2.~ s j q.V.V.q.Y f ",
"f | G.~.~.B.L N ' e.' ) ` ' e.a.e.e.' ) ) ' e.2.Z p 1.e.7.1.! S ",
"f Y q.V.V.i.K A ' ' y ; ; y 2.a.a.2.y ; ; y ' r.Z q X.7.! ! @.3.",
"S ! ' 7.e.t.:.P Q R m e e C 2.a.a.2.C e e M Q &.G F X.@.j S 3.a.",
"3.@.! ! 3.d.G.k.z m z.L.L.D.f.e.e.f.D.L.L.z.M M k.l.{ S f S 3.a.",
"e.3.S j ( d.E.F.C H I./.I.F.S.V.S.C.L.I./.I.H C B.A.} f S ! 7.a.",
"a.3.S f j w.E.U.r.r.W.I.I P F.~.~.F.K I I.Q.r.r.J.N.} S @.7.e.a.",
"a.7.! S f { c.Z.y.V.!.L.e e L.).).F.e e L.~.V.d.Z.h.J S 3.a.a.a.",
"a.e.7.@.j f F [ 5.V.~.L.e e L.).).L.e e L.~.V.6.o.J g S 1.a.a.a.",
"a.a.a.7.! j 8 u T q.K.F.P I I.).).I.I P F.J.6.T a f j ! 7.a.a.a.",
"a.a.a.e.7.X.h 8 1 c r.S.F.I./.).)./.I.F.S.r.c 1 t h ( 3.e.a.a.a.",
"a.a.a.a.a.7.! s 0 w T 4.m.L.L.L.L.L.L.m.4.T y 2 a S _ 3.3.7.e.a.",
"a.a.a.a.a.0.3.#.` R 3 ; 6 e e e e e e 6 * w R ~ n n D S S / 7.a.",
"a.e.3.3.3.3.7.0.8.` y : 6 e e e e e e 6 : y ' e.) Q .. .O.$.1.3.",
"a.7.! U S ! 7.7.3.8.' 4.m.L.L.L.L.L.L.m.4.` e.e.2.#.c.T.T.N.o.S ",
"3.1.$.O. .-.6.4.) ` e.g.E.^.(.).).).^.K.r.' e.e.e.6.C.Q.Q.P.{ f ",
"S o.A.T.T.A.x.;.i c 2.s.g.H.^.).).^.H.r.l y ' e.0.3.0.V.V.q.Y d ",
"d | A.~.!.U.M.*.4 - n ) ) r.K.~.^.K.g.) * : 4.f.p.3.7.e.7.1.Y Y ",
"d Y t.V.V.S.F.=.= o * ; * z r.V.V.g.a.) : 6 m.Y.V.1.7.7.! ! <.3.",
"S ! 1.7.e.f.J.>.> & 5 e e m R ' e.a.a.) : 6 b.U.q.( @.X.j S 3.a.",
"3.<.! ! 3.s.g.@.1 r l.L.L.z.m k ' a.a.) ; , [ ,.Y j j j f Y 3.e.",
"a.1.U S X.7.0.<.8 F Z.~.~.m.6 $ v ) ` n 1 : v E h d d f j / 7.a.",
"a.3.S f j ! 3.1.a Z q.V.S.4., X $ ; ; - > q / ' j d d j X.7.e.a.",
"a.7.! j g j ( / p s W _ ` v #     X O % < u / ( j d d U 3.a.a.a.",
"a.e.7.( j f j j f t 2 2 1 $ o     + 1 y t d j j f f f S 3.a.a.a.",
"a.a.a.7.! S g f d t < % % @ O o @ : v W ! j f f f f j ! 7.a.a.a.",
"a.a.a.e.7.( j f f s j a u 8 8 8 8 a / <.3.( j f f j @.7.e.a.a.a.",
"a.a.a.a.a.3.S f f S U U j f f g g S <.9.e.3.S f f S 3.a.a.a.a.a."
};
