/* XPM */
static char *result[] = {
/* columns rows colors chars-per-pixel */
"32 32 179 2 ",
"   c #071821",
".  c #11292A",
"X  c #192D30",
"o  c #173632",
"O  c #1B3B35",
"+  c #1B3E38",
"@  c #203533",
"#  c #274234",
"$  c #284435",
"%  c #2A4837",
"&  c #2C463A",
"*  c #234A3C",
"=  c #2D4E3B",
"-  c #30503A",
";  c #385A3E",
":  c #234E41",
">  c #324643",
",  c #374C46",
"<  c #384D46",
"1  c #265444",
"2  c #2A5644",
"3  c #2B5A46",
"4  c #2A5C49",
"5  c #365744",
"6  c #355B42",
"7  c #395940",
"8  c #3D504D",
"9  c #2D624C",
"0  c #3E6142",
"q  c #33634B",
"w  c #32694F",
"e  c #3C6C4D",
"r  c #3D704F",
"t  c #356651",
"y  c #326A50",
"u  c #386951",
"i  c #3D7352",
"p  c #3F7855",
"a  c #405E50",
"s  c #436947",
"d  c #46624F",
"f  c #426B4A",
"g  c #44704B",
"h  c #4B734B",
"j  c #4E794E",
"k  c #446353",
"l  c #486350",
"z  c #416C51",
"x  c #4A6B59",
"c  c #4F6C54",
"v  c #506C54",
"b  c #536E59",
"n  c #437353",
"m  c #457D57",
"M  c #4E7A52",
"N  c #4C755C",
"B  c #4F7B5B",
"V  c #497358",
"C  c #507651",
"Z  c #54745A",
"A  c #597A5A",
"S  c #567A55",
"D  c #4D7C61",
"F  c #607767",
"G  c #667A6D",
"H  c #4B8157",
"J  c #4B825B",
"K  c #4F8859",
"L  c #538556",
"P  c #5A8455",
"I  c #5B8B56",
"U  c #508658",
"Y  c #59825D",
"T  c #548C5B",
"R  c #5D8C59",
"E  c #5D945D",
"W  c #5E985F",
"Q  c #62865F",
"!  c #638F5B",
"~  c #65965A",
"^  c #679D5F",
"/  c #699B5C",
"(  c #6EA05E",
")  c #558464",
"_  c #5B8A65",
"`  c #558269",
"'  c #59876C",
"]  c #56886A",
"[  c #5C8C6D",
"{  c #5A8462",
"}  c #5E9260",
"|  c #5F9960",
" . c #5C8C70",
".. c #608D6B",
"X. c #698D68",
"o. c #659161",
"O. c #659E61",
"+. c #6B9D64",
"@. c #61936D",
"#. c #68976B",
"$. c #6A9E6D",
"%. c #709574",
"&. c #709A7B",
"*. c #7F9E79",
"=. c #6DA462",
"-. c #6FA864",
";. c #6BA268",
":. c #72A563",
">. c #73AC65",
",. c #78A966",
"<. c #77A16C",
"1. c #7AA56E",
"2. c #74AB68",
"3. c #76B067",
"4. c #7DB467",
"5. c #7CB36A",
"6. c #7FB86A",
"7. c #7BAA71",
"8. c #81B46F",
"9. c #82BC6B",
"0. c #83AD76",
"q. c #84B374",
"w. c #8BBF75",
"e. c #81B478",
"r. c #8DBF79",
"t. c #86C06C",
"y. c #88C16E",
"u. c #8BC372",
"i. c #8EC179",
"p. c #90C577",
"a. c #91C37D",
"s. c #97CA7F",
"d. c #849D85",
"f. c #8AA687",
"g. c #84AA83",
"h. c #89A288",
"j. c #87AA8C",
"k. c #8BAE8D",
"l. c #8DB682",
"z. c #97B58F",
"x. c #92BB8B",
"c. c #99B691",
"v. c #92B894",
"b. c #98BE99",
"n. c #9BBD95",
"m. c #A0BF96",
"M. c #A0BE9E",
"N. c #97CA81",
"B. c #9CCE85",
"V. c #98C388",
"C. c #9CC292",
"Z. c #A0CB8C",
"A. c #A1C296",
"S. c #A2C896",
"D. c #A7C49C",
"F. c #A3C99D",
"G. c #AACC9C",
"H. c #ADD897",
"J. c #B2D89F",
"K. c #AAC0A3",
"L. c #AACCA5",
"P. c #ACCCA9",
"I. c #B6CDAC",
"U. c #B1D7A0",
"Y. c #B5DBA1",
"T. c #B9DFA4",
"R. c #B4D4AE",
"E. c #B7D8AA",
"W. c #BBDAAC",
"Q. c #BFE0AD",
"!. c #C1DFB1",
"~. c #C3E3B2",
"^. c #C7E9B4",
"/. c #CAEAB6",
"(. c #CFEDBC",
"). c #D2EAC4",
"_. c #D9F3C7",
"`. c #DBF5CA",
"'. c #E0F8CF",
/* pixels */
"t.t.t.t.t.t.t.t.y.-.H y y H -.t.t.t.t.t.9.y.t.9.t.>.J y y H >.t.",
"9.9.3.-.-.3.9.9.3.;.[ [ @.[ -.3.9.9.3.-.=.>.9.9.2.;.[  .]  .;.-.",
"t.2.T H H E 3.3.T [ v.P.R.C. .T 3.3.T p i H >.3.T @.C.R.R.C. .H ",
">.;.@. . .[ ;.E e Y x.J.Q.V.[ T ;.2.$.| _ _ ~ T n ] L.^.^.F.] y ",
"J [ C.R.R.C.@.y = f 2.u.w.9.8.,.>.5.i.N.w.1.h 3 y J 6.B.B.6.J y ",
"y ] L./.^.L.&.N 7 j >.t.t.9.9.9.9.t.t.t.y.3.Y z u p -.6.3.O.J J ",
"y J 7.B.B.V.k.%.! ( 9.t.t.t.9.9.t.t.t.t.t.6.5.<.D i =.3.] K ;.-.",
"m K ;.3.8.e.7.X.( 9.( ~ ~ ( 9.9.t.5.;.~ ~ =.5.q.B q E | p m -.t.",
"-.;.K T 3.,.S h +.( s @ @ 7 ( 9.9.( s @ @ s / ,.e * e p y J >.t.",
"t.-.H p E +.o.Z ! P d a a v 0.9.w.:.v a a l I ! Z k t y p T 3.t.",
"t.-.m y i #.C.j.d l d.K.K.m.r.9.9.r.m.K.K.d.d l j.j.D i | 3.6.t.",
"t.3.T p w @.E.K.v b I.).!.M.Z.Z.s.Z.m.I.).I.Z b K.L.` i =.t.t.t.",
"t.9.3.W i ] L.E.0.0.!.I.G F M./.(.K.F G I.!.0.0.W.L.` n -.t.t.t.",
"t.t.t.>.K ] j.C.w.Z./.K.< a K.'.'.M.a a K./.Z.i.C.k.) U >.t.t.t.",
"t.t.t.9.>.E V A ,.B./.K.a a K.'.'.M.a > K./.B.2.{ D } >.9.t.t.t.",
"t.t.t.t.t.( e e P 0.J.D.F F I.`.'.I.G F D.Y.q.R f e E -.-.3.6.t.",
"t.t.t.t.t.3./ P s j 8.m.M.I.).`.'.).I.K.s.8.S h P ~ K m m T 5.t.",
"t.9.3.-.>.>.>.~ s s S 0.c.K.K.M.M.K.K.c.8.~ h h P ~ .... .@.;.-.",
"t.2.T H m K R I ~ S < & < a , a 8 8 l > $ ; P P s v k.I.R.C.@.H ",
"-.;.@.' ] _ P ! 8.( l @ > 8 a a 8 8 8 < $ ; ( 8.j h 0.!.^.C.] y ",
"H [ C.P.m.0.X.( 9.9./ :.c.D.K.D.K.K.m.c.0.0.9.9.:.E ~ 7.V.7.J y ",
"y ] L.Q.G.r.0.8.~ ~ 9.s.T.(.'.'.'.`.(.T.w.8./ 8.4.>.~ / ;.O.K J ",
"y J 7.N.w.w.w.( 0 0 ( 9.s.H.(.'.'.(.H.s.t.8.- 0 ( 6.3.3.E K ;.-.",
"J K ;.3.t.p.s.0.& $ ~ t.t.s.T.^./.I.s.w.9.~ @ @ <.s.u.3.K J -.9.",
"-.O.K W 6.N.T.v.< # / t.t.p.s.Z.Z.s.u.t.9.~ # , z.Y.s.-.J H -.t.",
"t.-.m H =.6.A.d.> # ~ 9.t.t.t.t.t.t.t.y.t.~ # > d.n.7.E H T 3.t.",
"t.-.m w i M Z 8 X # / t.t.9.9.t.t.t.9.9.t.~ # @ t x u n W 3.6.y.",
"t.3.T p 9 3 ; # . % / t.t.9.( ~ ~ ( 9.t.t./ - O & : 2 r =.t.t.t.",
"t.6.3.| i 9 w 2 o = / 9.9.( 7 @ $ 0 ( t.t.=.6 * 3 9 9 m -.t.t.t.",
"t.t.t.3.T p y 3 O < 1.B.s.0.@     % ,.s.N.7.e : 9 y p T 3.t.t.t.",
"t.t.t.6.>.W m 3 @ d m.(.(.c.a     a c./.Q.S.Y 3 9 p W 3.6.t.t.t.",
"t.t.t.t.t.-.m 3 @ l !.'.'.M.>     a M.'._.E.[ 9 9 m >.t.t.t.t.t."
};
