/* XPM */
static char *_ca2cbdb705a4bb5b3bebb6edd3a05efLRlBUd4suKjgiANk[] = {
/* columns rows colors chars-per-pixel */
"32 32 215 2 ",
"   c None",
".  c #071821",
"X  c #081922",
"o  c #081A22",
"O  c #091B23",
"+  c #091D24",
"@  c #0A1E25",
"#  c #0B1F25",
"$  c #0B2026",
"%  c #15262C",
"&  c #16272D",
"*  c #143130",
"=  c #274234",
"-  c #274334",
";  c #284334",
":  c #294535",
">  c #2A4736",
",  c #2A4837",
"<  c #2B4937",
"1  c #2C4937",
"2  c #2C4539",
"3  c #2C453A",
"4  c #2C463A",
"5  c #2E4D39",
"6  c #33523B",
"7  c #34533B",
"8  c #34533C",
"9  c #34543C",
"0  c #34553C",
"q  c #34553D",
"w  c #36563D",
"e  c #37583D",
"r  c #395B3F",
"t  c #304242",
"y  c #304342",
"u  c #354746",
"i  c #374C46",
"p  c #384C46",
"a  c #384D46",
"s  c #365140",
"d  c #3D5F41",
"f  c #3D504C",
"g  c #3D504D",
"h  c #3E514D",
"j  c #3D6041",
"k  c #3E6142",
"l  c #3F6142",
"z  c #3F6242",
"x  c #455B51",
"c  c #465C52",
"v  c #4A5D57",
"b  c #416443",
"n  c #45624B",
"m  c #46664B",
"M  c #46614F",
"N  c #47624F",
"B  c #4D704E",
"V  c #4F784C",
"C  c #50784C",
"Z  c #537D4E",
"A  c #476150",
"S  c #486250",
"D  c #4F6C54",
"F  c #4E615A",
"G  c #506C54",
"H  c #50645C",
"J  c #526D58",
"K  c #536D59",
"L  c #536F58",
"P  c #556F5A",
"I  c #517650",
"U  c #55705B",
"Y  c #59755C",
"T  c #597060",
"R  c #607667",
"E  c #607767",
"W  c #667A6D",
"Q  c #588351",
"!  c #5A8652",
"~  c #5B8752",
"^  c #5B8753",
"/  c #5C8456",
"(  c #5C8556",
")  c #5C8953",
"_  c #5F8D55",
"`  c #618F56",
"'  c #618B59",
"]  c #628D5A",
"[  c #619056",
"{  c #639257",
"}  c #669659",
"|  c #679659",
" . c #67975A",
".. c #68985A",
"X. c #69995B",
"o. c #6A9A5B",
"O. c #6B9C5C",
"+. c #6B9D5C",
"@. c #6C9D5C",
"#. c #6D9F5D",
"$. c #6DA05D",
"%. c #6EA05E",
"&. c #6EA15E",
"*. c #6FA15E",
"=. c #6FA25E",
"-. c #70A25F",
";. c #71A45F",
":. c #698A66",
">. c #70926B",
",. c #74A464",
"<. c #74A861",
"1. c #76AA62",
"2. c #77AC63",
"3. c #78AE64",
"4. c #79AF65",
"5. c #76A06B",
"6. c #77A06C",
"7. c #77A16C",
"8. c #7BB266",
"9. c #7CB266",
"0. c #7CB366",
"q. c #7DB567",
"w. c #7EB567",
"e. c #7EB667",
"r. c #7EB26A",
"t. c #7FB768",
"y. c #7FAA71",
"u. c #81B46C",
"i. c #80B868",
"p. c #81BA69",
"a. c #82BA6A",
"s. c #83BC6A",
"d. c #84BD6B",
"f. c #85BF6C",
"g. c #83AD75",
"h. c #83AE75",
"j. c #85AE77",
"k. c #85AF77",
"l. c #85B274",
"z. c #87B476",
"x. c #88B677",
"c. c #8BB67A",
"v. c #8EBC7B",
"b. c #86C06C",
"n. c #8CC372",
"m. c #8CC472",
"M. c #8DC474",
"N. c #8FC07A",
"B. c #92C47B",
"V. c #93C67C",
"C. c #97CA7E",
"Z. c #97CA7F",
"A. c #97CB7F",
"S. c #859A86",
"D. c #89A088",
"F. c #89A188",
"G. c #8DA58B",
"H. c #8CA28C",
"J. c #91A98E",
"K. c #98B590",
"L. c #99B591",
"P. c #99B691",
"I. c #98CB80",
"U. c #9ACD82",
"Y. c #9BCD84",
"T. c #9CCE84",
"R. c #9CCE85",
"E. c #9DCE85",
"W. c #A0CA8C",
"Q. c #A0CB8C",
"!. c #A0CB8D",
"~. c #A1C096",
"^. c #A5C29A",
"/. c #A6C39C",
"(. c #A7C49C",
"). c #A7C49D",
"_. c #AECF9F",
"`. c #ADD897",
"'. c #AAC0A3",
"]. c #AAC0A4",
"[. c #AFC7A6",
"{. c #B0CEA3",
"}. c #B0C8A6",
"|. c #B2CAA8",
" X c #B2CBA8",
".X c #B2C8AA",
"XX c #B3CAAB",
"oX c #B7CEAE",
"OX c #B7CEAF",
"+X c #B9CFAF",
"@X c #B2D3A2",
"#X c #B3D8A1",
"$X c #B5D9A2",
"%X c #B9DFA4",
"&X c #B8D8A8",
"*X c #BFDEAF",
"=X c #BCD3B2",
"-X c #B9E0A4",
";X c #BCE1A7",
":X c #C0DEB0",
">X c #C1DFB1",
",X c #C2E0B2",
"<X c #C8E9B5",
"1X c #C9EAB6",
"2X c #CAEAB6",
"3X c #CAEAB7",
"4X c #CFEDBC",
"5X c #CFEEBC",
"6X c #D2EAC4",
"7X c #D4EBC5",
"8X c #D6EEC7",
"9X c #D9F1C9",
"0X c #DAF2CA",
"qX c #DAF4C9",
"wX c #E0F8CF",
/* pixels */
"                                                                ",
"                                                                ",
"                                                                ",
"                                                                ",
"                  9 %.d.f.b.b.b.b.b.b.d.p.#.7                   ",
"                6 V 2.b.b.b.b.b.b.b.b.b.b.2.C 8                 ",
"                ..2.p.b.b.b.b.b.b.b.b.b.b.p.2.+.                ",
"              j 1.e.%.} } %.e.b.b.e.%.} } %.e.3.                ",
"              9 ;.%.j = = j %.b.b.%.j = = j %.1.r               ",
"            v J ' / S g g G ,.b.b.,.D g g S / ] Y H             ",
"             XG.M S F.].].~.N.b.b.N.~.].].F.A M J. X            ",
"            9X[.J U  X6XoX/.Q.E.E.Q./.oX6X XP J }.8X            ",
"            9X*Xg.k.,XoXW E (.2X2X/.E W oX:Xk.g.:X8X            ",
"            +X_.B.E.2X'.g g ].wXwX'.g g ].2XE.V.@X=X            ",
"              :.r.E.2X'.g g ].wXwX'.g g ].2XE.u.>.              ",
"              9 _ l.#X/.E W oXwXwXoXW E (.$Xz.[                 ",
"                , B l.Q.(.oX6XwXwX6XoX(.Q.z.I 5                 ",
"                , d ~ 6.K.'.'.'.'.'.'.K.6.~ b 5                 ",
"                ` Q 9 3 p g g g g g g i 3 e ~ [ 9               ",
"              ~ 9.#.j 3 p g g g g g g p 3 j %.3.Z               ",
"            %.8.s.e.%.6.K.].].].].].].K.6.%.e.p.3...            ",
"            t.e.%.%.e.Z.%X5XqXwXwXqX5X%XZ.e.%.%.e.9.)           ",
"          e.d.#.j j %.n.Z.`.5XwXwX5X`.Z.n.%.j j %.s.9.2.        ",
"        b.M.I.5.3 = } b.b.Z.%X2X2X%XZ.b.b.} = 3 6.Z.m.b.        ",
"        f.U.;XK.i ; } b.b.n.Z.E.E.Z.n.b.b.} = i K.-XZ.b.        ",
"          c.(.S.t ; } b.b.b.b.b.b.b.b.b.b.} = t H.{.v.8.        ",
"          n c u % ; } b.b.b.b.b.b.b.b.b.b.} = % g T             ",
"            $ @ o : ..b.b.e.%.} } %.e.b.b...: o @               ",
"              * @ 1 +.b.b.%.j = = j %.b.b.-.6 @                 ",
"                @ s y.E.E.6.3 . . 3 6.E.Y.x.m                   ",
"                o x ^.2X2XK.p . . p K.2X2X&X                    ",
"                o F oXwXwX'.g . . g ].wXwX7X                    "
};
