/* XPM */
static char *result[] = {
/* columns rows colors chars-per-pixel */
"32 32 165 2 ",
"   c #071821",
".  c #071922",
"X  c #081A22",
"o  c #091C23",
"O  c #112627",
"+  c #112B2C",
"@  c #17282E",
"#  c #213A30",
"$  c #243E32",
"%  c #243F32",
"&  c #274234",
"*  c #274334",
"=  c #284334",
"-  c #294535",
";  c #2A4635",
":  c #2A4736",
">  c #2B4836",
",  c #2C4937",
"<  c #2C453A",
"1  c #2C463A",
"2  c #2F4D39",
"3  c #304E39",
"4  c #314B3D",
"5  c #31503A",
"6  c #37573D",
"7  c #324443",
"8  c #384C46",
"9  c #384D46",
"0  c #3A4E48",
"q  c #3C4E4B",
"w  c #3C4F4C",
"e  c #255343",
"r  c #255344",
"t  c #3D504C",
"y  c #3D504D",
"u  c #3F514E",
"i  c #3A564D",
"p  c #3F544F",
"a  c #3E6041",
"s  c #3F6142",
"d  c #3F6242",
"f  c #34624F",
"g  c #306850",
"h  c #3B6B56",
"j  c #405D47",
"k  c #425550",
"l  c #485D56",
"z  c #476150",
"x  c #486250",
"c  c #4D6D50",
"v  c #4F6B54",
"b  c #4F6C54",
"n  c #4D6059",
"m  c #506C54",
"M  c #55685F",
"N  c #556C5D",
"B  c #596D63",
"V  c #4F7E65",
"C  c #537162",
"Z  c #5B7362",
"A  c #5D7166",
"S  c #607667",
"D  c #667A6D",
"F  c #6A7E71",
"G  c #568150",
"H  c #588351",
"J  c #5C8556",
"K  c #5D8A54",
"L  c #5E8B54",
"P  c #5F8D55",
"I  c #629157",
"U  c #659459",
"Y  c #669659",
"T  c #679659",
"R  c #67975A",
"E  c #68985A",
"W  c #69995B",
"Q  c #699A5B",
"!  c #6A9B5C",
"~  c #6C9E5D",
"^  c #6D9F5D",
"/  c #6DA05E",
"(  c #6EA05E",
")  c #6EA15E",
"_  c #548469",
"`  c #5C8C70",
"'  c #72A660",
"]  c #73A761",
"[  c #73A364",
"{  c #74A464",
"}  c #75A962",
"|  c #76AB63",
" . c #77A06C",
".. c #77A16C",
"X. c #7AB065",
"o. c #7BB165",
"O. c #7CB366",
"+. c #7DB466",
"@. c #7EB567",
"#. c #7EB667",
"$. c #7CA670",
"%. c #81BA69",
"&. c #82BA6A",
"*. c #82BB6A",
"=. c #83BB6A",
"-. c #83BC6A",
";. c #84BD6B",
":. c #84BE6B",
">. c #85BE6B",
",. c #86BF6C",
"<. c #86B276",
"1. c #8CB979",
"2. c #86C06C",
"3. c #8CC372",
"4. c #8CC472",
"5. c #8CC473",
"6. c #8FC07A",
"7. c #97CA7F",
"8. c #97CB7F",
"9. c #98CB7F",
"0. c #89A088",
"q. c #8BA08B",
"w. c #8CAA8F",
"e. c #95AC93",
"r. c #96AC94",
"t. c #98AD95",
"y. c #99B591",
"u. c #99B691",
"i. c #9BB893",
"p. c #9DBC9D",
"a. c #A9BFA3",
"s. c #98CB80",
"d. c #9BCC83",
"f. c #9CCE85",
"g. c #9DCE85",
"h. c #9DCF86",
"j. c #A0CA8C",
"k. c #A1C096",
"l. c #A6C39C",
"z. c #ADD897",
"x. c #A9C0A3",
"c. c #AAC0A4",
"v. c #ABC1A5",
"b. c #AEC4A7",
"n. c #AECCA1",
"m. c #B1CFA3",
"M. c #B3C9AB",
"N. c #B7CEAE",
"B. c #B9DFA4",
"V. c #B4D4AF",
"C. c #BCD3B2",
"Z. c #B9E0A4",
"A. c #B9E0A5",
"S. c #BAE0A5",
"D. c #C0D7B6",
"F. c #C5E5B2",
"G. c #C9EAB6",
"H. c #CAEAB6",
"J. c #CAEBB7",
"K. c #CFEDBC",
"L. c #D2EAC4",
"P. c #D9F1CA",
"I. c #DAF4C9",
"U. c #E0F8CF",
"Y. c None",
/* pixels */
"Y.Y.Y.Y.Y.Y.Y.Y.Y.Y.Y.                    Y.Y.Y.Y.Y.Y.Y.Y.Y.Y.Y.",
"Y.Y.Y.Y.Y.Y.Y.Y.Y.Y.5 3 : = * & & & * ; 2 5 Y.Y.Y.Y.Y.Y.Y.Y.Y.Y.",
"Y.Y.Y.Y.Y.Y.Y.Y.Y.Y.U ( Q R R T Y Y R W / R Y.Y.Y.Y.Y.Y.Y.Y.Y.Y.",
"Y.Y.Y.Y.Y.Y.Y.Y.Y.H o.2.2.2.2.2.2.2.2.2.2.+.L Y.Y.Y.Y.Y.Y.Y.Y.Y.",
"Y.Y.Y.Y.Y.Y.Y.Y.] X.*.2.2.2.2.2.2.2.2.2.2.-.O.} Y.Y.Y.Y.Y.Y.Y.Y.",
"Y.Y.Y.Y.Y.Y.Y.Y.-.@.( Y Y ( #.2.2.2.2.2.2.2.2.-.Y.Y.Y.Y.Y.Y.Y.Y.",
"Y.Y.Y.Y.Y.Y.Y.Y.*.^ a & & d ) 2.2.2.2.2.2.2.2.;.Y.Y.Y.Y.Y.Y.Y.Y.",
"Y.Y.Y.Y.Y.Y.Y.Y.*.[ v y y x J ( #.4.8.g.g.8.5.>.Y.Y.Y.Y.Y.Y.Y.Y.",
"Y.Y.Y.Y.Y.Y.Y.Y.:.6.k.c.c.0.z d ) 8.Z.H.H.A.9.,.Y.Y.Y.Y.Y.Y.Y.Y.",
"Y.Y.Y.Y.Y.Y.Y.Y.d.j.l.N.L.N.D m { g.H.U.U.J.h.2.Y.Y.Y.Y.Y.Y.Y.Y.",
"Y.Y.Y.Y.Y.Y.Y.Y.F.l.S D N.L.N.k.6.g.H.U.U.J.h.2.Y.Y.Y.Y.Y.Y.Y.Y.",
"Y.Y.Y.Y.Y.Y.Y.Y.P.x.t y c.U.U.G.f.g.H.I.K.S.s.,.Y.Y.Y.Y.Y.Y.Y.Y.",
"Y.Y.Y.Y.Y.Y.Y.Y.P.a.w y c.U.U.G.f.g.H.K.z.8.5.>.Y.Y.Y.Y.Y.Y.Y.Y.",
"Y.Y.Y.Y.Y.Y.Y.Y.M.r.B D N.I.K.B.7.8.Z.Z.8.-.O.| Y.Y.Y.Y.Y.Y.Y.Y.",
"Y.Y.Y.Y.Y.Y.Y.Y.n F t.N.L.K.z.7.3.4.7.8.4.O.K Y.Y.Y.Y.Y.Y.Y.Y.Y.",
"Y.Y.Y.Y.Y.Y.Y.Y.Y.l e.b.v.y. .Y Y Y T ! ' ~ Y.Y.Y.Y.Y.Y.Y.Y.Y.Y.",
"Y.Y.Y.Y.Y.Y.Y.Y.Y.Y.p k u 8 < & & & & > 6 Y.Y.Y.Y.Y.Y.Y.Y.Y.Y.Y.",
"Y.Y.Y.Y.Y.Y.Y.Y.Y.Y.o @ 7 y y 9 1 & * % Y.Y.Y.Y.Y.Y.Y.Y.Y.Y.Y.Y.",
"Y.Y.Y.Y.Y.Y.Y.Y.Y.Y.X q q.c.c.u...Y R I Y.Y.Y.Y.Y.Y.Y.Y.Y.Y.Y.Y.",
"Y.Y.Y.Y.Y.Y.Y.Y.Y.Y.Y.M C.L.N.k.6.2.2.=.Y.Y.Y.Y.Y.Y.Y.Y.Y.Y.Y.Y.",
"Y.Y.Y.Y.Y.Y.Y.Y.Y.Y.Y.A D.N.D b { 2.2.*.Y.Y.Y.Y.Y.Y.Y.Y.Y.Y.Y.Y.",
"Y.Y.Y.Y.Y.Y.Y.Y.Y.Y.Y.Z m.y.8 1 ..8.4.&.Y.Y.Y.Y.Y.Y.Y.Y.Y.Y.Y.Y.",
"Y.Y.Y.Y.Y.Y.Y.Y.Y.Y.Y.c 1. .< 9 u.A.9.%.Y.Y.Y.Y.Y.Y.Y.Y.Y.Y.Y.Y.",
"Y.Y.Y.Y.Y.Y.Y.Y.Y.Y.Y.Y.X.( d x 0.i.$.E Y.Y.Y.Y.Y.Y.Y.Y.Y.Y.Y.Y.",
"Y.Y.Y.Y.Y.Y.Y.Y.Y.Y.Y.Y.O.#.) J z 0 4 , Y.Y.Y.Y.Y.Y.Y.Y.Y.Y.Y.Y.",
"Y.Y.Y.Y.Y.Y.Y.Y.Y.Y.Y.Y.P ( @.( d # O . Y.Y.Y.Y.Y.Y.Y.Y.Y.Y.Y.Y.",
"Y.Y.Y.Y.Y.Y.Y.Y.Y.Y.Y.Y.$ s ) #.) G - Y.Y.Y.Y.Y.Y.Y.Y.Y.Y.Y.Y.Y.",
"Y.Y.Y.Y.Y.Y.Y.Y.Y.Y.Y.Y.  1 ..g.g.<.j Y.Y.Y.Y.Y.Y.Y.Y.Y.Y.Y.Y.Y.",
"Y.Y.Y.Y.Y.Y.Y.Y.Y.Y.Y.    9 u.H.H.n.N Y.Y.Y.Y.Y.Y.Y.Y.Y.Y.Y.Y.Y.",
"Y.Y.Y.Y.Y.Y.Y.Y.Y.Y.Y.+ + i w.V.V.p.C Y.Y.Y.Y.Y.Y.Y.Y.Y.Y.Y.Y.Y.",
"Y.Y.Y.Y.Y.Y.Y.Y.Y.Y.Y.r e f V ` ` _ h Y.Y.Y.Y.Y.Y.Y.Y.Y.Y.Y.Y.Y.",
"Y.Y.Y.Y.Y.Y.Y.Y.Y.Y.Y.g g g g g g g g Y.Y.Y.Y.Y.Y.Y.Y.Y.Y.Y.Y.Y."
};
