/* XPM */
static char *result[] = {
/* columns rows colors chars-per-pixel */
"32 32 182 2 ",
"   c #071821",
".  c #091B22",
"X  c #0E2226",
"o  c #14272A",
"O  c #122B2B",
"+  c #15312F",
"@  c #1F372F",
"#  c #1F382F",
"$  c #1C3531",
"%  c #1B3C35",
"&  c #223B31",
"*  c #223939",
"=  c #264234",
"-  c #294535",
";  c #2B4837",
":  c #244538",
">  c #2C463A",
",  c #234A3D",
"<  c #2D4A3B",
"1  c #35553D",
"2  c #395B3F",
"3  c #304342",
"4  c #344C44",
"5  c #384D46",
"6  c #3B4F4A",
"7  c #265444",
"8  c #2B5542",
"9  c #2B5946",
"0  c #2B5D49",
"q  c #345641",
"w  c #345B42",
"e  c #385B41",
"r  c #3D514D",
"t  c #3E5F52",
"y  c #2E644D",
"u  c #3F6242",
"i  c #33634C",
"p  c #39664D",
"a  c #32684F",
"s  c #3C6C4D",
"d  c #346450",
"f  c #3F6254",
"g  c #326A51",
"h  c #396D55",
"j  c #3E7553",
"k  c #3F7855",
"l  c #40574B",
"z  c #425D4C",
"x  c #425851",
"c  c #426B4D",
"v  c #486E48",
"b  c #426746",
"n  c #44724D",
"m  c #4E764B",
"M  c #4F784C",
"N  c #537D4F",
"B  c #466251",
"V  c #486452",
"C  c #4C6C52",
"Z  c #526E5C",
"A  c #506C54",
"S  c #437453",
"D  c #4C7655",
"F  c #437C56",
"G  c #497F56",
"H  c #47755F",
"J  c #4B755D",
"K  c #4A785F",
"L  c #586C63",
"P  c #4A7760",
"I  c #4A7961",
"U  c #517F60",
"Y  c #5E7568",
"T  c #5F7969",
"R  c #5E7C67",
"E  c #607667",
"W  c #667A6D",
"Q  c #4B825C",
"!  c #4F885B",
"~  c #558251",
"^  c #5B8555",
"/  c #548857",
"(  c #5C8B56",
")  c #548358",
"_  c #548D5C",
"`  c #5C8F5A",
"'  c #5B925D",
"]  c #5F995F",
"[  c #669659",
"{  c #67985B",
"}  c #6A9C5D",
"|  c #6EA15E",
" . c #508167",
".. c #578E60",
"X. c #56886A",
"o. c #5B8D67",
"O. c #5F9960",
"+. c #5F916A",
"@. c #5C8C70",
"#. c #69866F",
"$. c #618F6E",
"%. c #639C61",
"&. c #6D9C65",
"*. c #61946D",
"=. c #6C8471",
"-. c #729C7C",
";. c #6BA363",
":. c #6FA865",
">. c #6BA268",
",. c #72A464",
"<. c #73AC66",
"1. c #75A26C",
"2. c #79A36E",
"3. c #76AD6A",
"4. c #78AE6B",
"5. c #76B067",
"6. c #7DB567",
"7. c #7DB569",
"8. c #7FB96A",
"9. c #7CAB73",
"0. c #7CAB79",
"q. c #7DB071",
"w. c #82BB6B",
"e. c #84AE76",
"r. c #82B577",
"t. c #85BD70",
"y. c #81B478",
"u. c #8CBE7B",
"i. c #85B879",
"p. c #86C06C",
"a. c #88C16F",
"s. c #8CC372",
"d. c #8FC07A",
"f. c #92C57C",
"g. c #97CA7F",
"h. c #98CB7F",
"j. c #7D9780",
"k. c #77A481",
"l. c #819683",
"z. c #89A087",
"x. c #8AA28A",
"c. c #8BA98D",
"v. c #84A68A",
"b. c #8FB28F",
"n. c #87B185",
"m. c #92BC8A",
"M. c #91A790",
"N. c #94AB91",
"B. c #8CB191",
"V. c #97B590",
"C. c #99B591",
"Z. c #9ABB94",
"A. c #97BD98",
"S. c #98BF99",
"D. c #A0BF95",
"F. c #A8BFA2",
"G. c #A5BDA0",
"H. c #9CCE85",
"J. c #9FCB8D",
"K. c #9BC297",
"L. c #A1CE8E",
"P. c #A1C096",
"I. c #A6C59C",
"U. c #A4CA9D",
"Y. c #ABCB9F",
"T. c #ADD897",
"R. c #AED39C",
"E. c #B1D59F",
"W. c #AAC1A4",
"Q. c #AACDA5",
"!. c #AECFA9",
"~. c #B7CEAE",
"^. c #AED3A5",
"/. c #B9DFA4",
"(. c #B4D4AF",
"). c #B9DBA8",
"_. c #B9E0A4",
"`. c #C9EAB6",
"'. c #CFEDBC",
"]. c #D2EAC4",
"[. c #DAF4C9",
"{. c #E0F8CF",
/* pixels */
"p.p.p.p.p.p.p.p.w.' ; O . . . . . . . o & b | t.p.<.G y g Q :.p.",
"w.w.5.:.<.5.8.7.;.) c q < - - - - - - < 2 n { 5.<.;.*.@.@.+.>.:.",
"p.5._ G Q _ 5.;.c D &.,.} { [ { [ [ { { } [ ( ( ~ *.S.(.(.K.+.Q ",
"<.>.*.@.@.+.>.` u U w.p.p.p.p.p.p.p.p.p.w.3.` ~ j X.U.`.`.U.X.y ",
"F +.K.(.(.A.o.G ` ,.w.p.p.p.p.p.p.p.p.p.p.w.3.` j Q r.H.H.0.Q g ",
"g X.Q.`.`.^.-.o.,.6.} { [ } w.p.p.p.p.p.p.a.w.:.Q Q :.w.<.;.! Q ",
"y Q q.H.H.J.U.n.,.| b & = u | t.p.p.p.p.p.p.s.u.o.F :.5._ ! %.:.",
"Q ! ;.<.w.f.R.m.3.,.A 6 l V ^ } w.a.h.H.L.h.f.f.+.k ] ] k Q :.p.",
":.>.! _ 5.s.f.9.<.u.P.W.F.x.B b | H._.`.`._.H.w._ g F k g Q :.p.",
"p.:.Q k ] 5.6.3.i.L.I.~.].~.W A ,.H.`.{.[.`.H.8._ g g g F _ 5.p.",
"p.<.k g F _ <.r.Y.I.E W ~.].~.P.d.H.`.{.{.`.H.8._ g g k ] 5.8.p.",
"p.5._ k g S ' 0.(.F.6 6 W.{.{.`.H.H.`.[.'._.f.5.! y g F <.p.p.p.",
"p.w.5.] k g j $.(.D.6 r F.{.{.`.H.H.`.'.T.f.p.:.Q y y Q <.p.p.p.",
"p.p.p.5._ k a I c.M.L W ~.[.'./.h.h._._.h.6.| / s g k _ 5.p.p.p.",
"p.p.p.w.5.] k i t Y N.~.].].T.g.s.s.h.h.a.<.j 1 y j ] 5.w.p.p.p.",
"p.p.p.p.p.5._ j 8 V c.W.W.C.2.[ [ [ [ [ [ ~ 1 , s ! ;.:.:.5.8.p.",
"p.p.p.p.p.w.<.;.' D x x l 5 > = = = = = - ; < b [ { / Q k _ 5.p.",
"p.8.5.:.:.5.w.8.:.) < * 3 3 o     X # = - ; 1 v [ >.*.@.+.+.>.<.",
"p.5._ Q G _ 5.3._  .Z E M.l.3     # M [ { N 1 2 n *.S.(.(.K.+.Q ",
":.>.*.@.@.*.>.O.S K W =.N.x.V & = u | p.w.{ 1 = 9 K K.`.`.K.X.g ",
"Q +.K.(.(.K.+.k g j v z l V ^ [ [ | w.w.p.{ ; o % w 1.H.H.q.Q g ",
"y X.U.`.`.^.k. .j p e & X > 2.h.s.p.w.w.| ~ 1 ; B J >.8.3.>.! Q ",
"g Q q.H.H.L.^.b.P w = o . 5 C./.h.w.p.| u 2 ~ e.S.b.9.:._ ! O.:.",
"F ! >.5.8.g./.S.H i x 6 > A l.C.2.[ [ ~ 1 1 ~ e.).!.9.' k Q :.p.",
":.>.! _ 5.a.h.9.j J c.V.1.^ z 5 > = = 2 ~ ~ 2 A W.Q.@.j g G <.w.",
"p.:.Q k ] 5.8.:.j I c.I.L.9.b @ X     # M N $ 4 j.v.P g k _ 5.p.",
"p.:.Q a k _ 5.:.F i f #.Q.E.e.m @   . X # # O $ r d d k O.5.w.p.",
"p.5._ k g k ] ] k 0 , B c.C.2.N - O O O O + $ % : , 0 F <.p.p.p.",
"p.8.5.] F g F k g g y p V r < - 7 7 7 9 7 7 0 0 0 y y Q <.p.p.p.",
"p.p.p.5._ F g g g g j j 1 % + % 7 a g g g g g g y g k _ 3.p.p.p.",
"p.p.p.8.5.] F g y k ' ' F i 0 0 y g g g j k j g y F ] 5.8.p.p.p.",
"p.p.p.p.p.:.Q y y Q ;.;.! j g g g g g g k ! k y y Q <.p.p.p.p.p."
};
