/* XPM */
static char *result[] = {
/* columns rows colors chars-per-pixel */
"32 32 179 2 ",
"   c #071821",
".  c #071921",
"X  c #071922",
"o  c #081922",
"O  c #081A22",
"+  c #081B23",
"@  c #091C23",
"#  c #0A1D24",
"$  c #0A1E24",
"%  c #0A1E25",
"&  c #0B1F25",
"*  c #0C2227",
"=  c #0F2326",
"-  c #102427",
";  c #122627",
":  c #112B2C",
">  c #16282D",
",  c #112C2D",
"<  c #14302F",
"1  c #1F382F",
"2  c #203930",
"3  c #213A30",
"4  c #1D443B",
"5  c #254033",
"6  c #274234",
"7  c #274334",
"8  c #274536",
"9  c #284334",
"0  c #294635",
"q  c #2A4635",
"w  c #294636",
"e  c #2A4636",
"r  c #2A4736",
"t  c #2C453A",
"y  c #2C463A",
"u  c #2D463A",
"i  c #2E473B",
"p  c #254A3C",
"a  c #2D4C39",
"s  c #2E4C38",
"d  c #2F4E39",
"f  c #2F4E3A",
"g  c #304E39",
"h  c #304F3A",
"j  c #314F3A",
"k  c #31503A",
"l  c #34533B",
"z  c #30523C",
"x  c #3B5C3F",
"c  c #2D4A43",
"v  c #314443",
"b  c #384C46",
"n  c #384D46",
"m  c #374A48",
"M  c #3A4F48",
"N  c #255344",
"B  c #265444",
"V  c #275746",
"C  c #3D5A45",
"Z  c #3D504C",
"A  c #3D504D",
"S  c #3E514D",
"D  c #3D524D",
"F  c #3A564D",
"G  c #3C594F",
"H  c #3E6141",
"J  c #3F6142",
"K  c #3F6242",
"L  c #33624F",
"P  c #346350",
"I  c #306850",
"U  c #41544F",
"Y  c #425751",
"T  c #465C51",
"R  c #465A54",
"E  c #495C56",
"W  c #4A5D56",
"Q  c #416543",
"!  c #4A7149",
"~  c #4C744A",
"^  c #4D744A",
"/  c #4F784C",
"(  c #547E4E",
")  c #476150",
"_  c #486250",
"`  c #4F6B54",
"'  c #4F6C54",
"]  c #506C54",
"[  c #5A6D63",
"{  c #4F7E65",
"}  c #4F7F65",
"|  c #607667",
" . c #647C68",
".. c #65796C",
"X. c #667A6D",
"o. c #598652",
"O. c #5A8652",
"+. c #5C8556",
"@. c #5C8853",
"#. c #5F8D55",
"$. c #669659",
"%. c #67975A",
"&. c #68995A",
"*. c #68995B",
"=. c #69995B",
"-. c #699A5B",
";. c #6D9F5D",
":. c #6DA05E",
">. c #6EA05E",
",. c #6EA15E",
"<. c #6FA15E",
"1. c #6FA25E",
"2. c #70A45F",
"3. c #5C8C70",
"4. c #6F8374",
"5. c #73A364",
"6. c #74A464",
"7. c #74A962",
"8. c #75A962",
"9. c #75AA62",
"0. c #76AA62",
"q. c #77AC63",
"w. c #77A06C",
"e. c #77A16C",
"r. c #78A16C",
"t. c #79A26D",
"y. c #7AB065",
"u. c #7BB165",
"i. c #7CB366",
"p. c #7DB466",
"a. c #7DB467",
"s. c #7EB567",
"d. c #7EB667",
"f. c #80B969",
"g. c #81B969",
"h. c #84B074",
"j. c #8FBD7C",
"k. c #86C06C",
"l. c #8CC372",
"z. c #8CC472",
"x. c #8FC07A",
"c. c #97CA7F",
"v. c #97CB7F",
"b. c #889D88",
"n. c #89A088",
"m. c #8CAA8F",
"M. c #8DAC90",
"N. c #91A790",
"B. c #95AA93",
"V. c #99B591",
"C. c #99B691",
"Z. c #9CB893",
"A. c #A8BEA2",
"S. c #9CCE85",
"D. c #9DCE85",
"F. c #A0CB8D",
"G. c #A1C096",
"H. c #A5C29A",
"J. c #A7C39C",
"K. c #ADD897",
"L. c #AAC0A3",
"P. c #AAC0A4",
"I. c #ABC1A4",
"U. c #ADC3A6",
"Y. c #B4CBAC",
"T. c #B7CEAE",
"R. c #B5D3A6",
"E. c #B9DFA4",
"W. c #B4D4AF",
"Q. c #B9E0A4",
"!. c #C9EAB6",
"~. c #CAEAB6",
"^. c #C9E0BC",
"/. c #CDE4BF",
"(. c #CFEDBC",
"). c #D2EAC4",
"_. c #DAF4C9",
"`. c #E0F8CF",
"'. c None",
/* pixels */
"'.'.'.'.'.'.'.'.o                     $ '.'.'.'.'.'.'.'.'.'.'.'.",
"'.'.'.'.'.'.'.'.s s 0 7 6 6 6 6 6 9 q w '.'.'.'.'.'.'.'.'.'.'.'.",
"'.'.'.'.'.'.'.d #.;.=.%.$.$.$.$.$.%.-.O.a '.'.'.'.'.'.'.'.'.'.'.",
"'.'.'.'.'.'.h ~ 0.k.k.k.k.k.k.k.k.k.k.8.! g '.'.'.'.'.'.'.'.'.'.",
"'.'.'.'.'.'.*.9.g.k.k.k.k.k.k.k.k.k.k.f.8.&.'.'.'.'.'.'.'.'.'.'.",
"'.'.'.'.'.'.i.s.>.$.$.>.d.k.k.k.k.k.k.k.k.a.'.'.'.'.'.'.'.'.'.'.",
"'.'.'.'.'.'.u.:.H 6 6 K ,.k.k.k.k.k.k.k.k.i.'.'.'.'.'.'.'.'.'.'.",
"'.'.'.'.'.'.y.5.` A A _ +.>.d.z.v.D.D.v.l.i.'.'.'.'.'.'.'.'.'.'.",
"'.'.'.'.'.'.u.x.G.P.P.n.) K ,.v.Q.~.~.E.c.a.'.'.'.'.'.'.'.'.'.'.",
"'.'.'.'.'.'.j.F.J.T.).T.X.] 6.D.~.`.`.!.S.a.'.'.'.'.'.'.'.'.'.'.",
"'.'.'.'.'. .R.J.| X.T.).T.G.x.D.~.`.`.!.S.p.'.'.'.'.'.'.'.'.'.'.",
"'.'.'.'.'.4.^.L.Z A P.`.`.!.S.D.~._.(.E.c.i.'.'.'.'.'.'.'.'.'.'.",
"'.'.'.'.'.'./.L.Z A P.`.`.!.S.D.~.(.K.c.l.i.'.'.'.'.'.'.'.'.'.'.",
"'.'.'.'.'.'.A.B.[ X.T._.(.E.c.v.Q.E.c.g.0.-.'.'.'.'.'.'.'.'.'.'.",
"'.'.'.'.'.'.R ..B.T.).(.K.c.l.z.c.c.l.0.^ k '.'.'.'.'.'.'.'.'.'.",
"'.'.'.'.'.'.'.Y N.U.I.V.w.$.$.$.$.%.-.@.f '.'.'.'.'.'.'.'.'.'.'.",
"'.'.'.'.'.'.'.c D U S b t 6 6 6 6 9 e r '.'.'.'.'.'.'.'.'.'.'.'.",
"'.'.'.'.'.'.'.'.% > v A A n y 6 6 2 - @ '.'.'.'.'.'.'.'.'.'.'.'.",
"'.'.'.'.'.'.'.'.+ m b.P.P.C.e.$.$.( 5 O '.'.'.'.'.'.'.'.'.'.'.'.",
"'.'.'.'.'.'.'.'.X E Y.).T.G.x.k.k.<.j   '.'.'.'.'.'.'.'.'.'.'.'.",
"'.'.'.'.'.'.'.'.. W Y.T.X.' 6.k.k.,.j   '.'.'.'.'.'.'.'.'.'.'.'.",
"'.'.'.'.'.'.'.'.. T H.V.b y e.v.z.1.k '.'.'.'.'.'.'.'.'.'.'.'.'.",
"'.'.'.'.'.'.'.'.'.C h.w.t n C.Q.c.2.l '.'.'.'.'.'.'.'.'.'.'.'.'.",
"'.'.'.'.'.'.'.'.'.x 7.>.K _ n.C.r.o.z '.'.'.'.'.'.'.'.'.'.'.'.'.",
"'.'.'.'.'.'.'.'.'.Q q.d.,.+.) n u 8 p '.'.'.'.'.'.'.'.'.'.'.'.'.",
"'.'.'.'.'.'.'.'.'.g O.>.s.>.K 1 = * 4 '.'.'.'.'.'.'.'.'.'.'.'.'.",
"'.'.'.'.'.'.'.'.'.; 3 J ,.d.,./ 2 & '.'.'.'.'.'.'.'.'.'.'.'.'.'.",
"'.'.'.'.'.'.'.'..     y e.D.D.t.i # '.'.'.'.'.'.'.'.'.'.'.'.'.'.",
"'.'.'.'.'.'.'.'..     n C.~.~.Z.M @ '.'.'.'.'.'.'.'.'.'.'.'.'.'.",
"'.'.'.'.'.'.'.'., : : F m.W.W.M.G < '.'.'.'.'.'.'.'.'.'.'.'.'.'.",
"'.'.'.'.'.'.'.'.B N N L { 3.3.} P V '.'.'.'.'.'.'.'.'.'.'.'.'.'.",
"'.'.'.'.'.'.'.'.I I I I I I I I I I I '.'.'.'.'.'.'.'.'.'.'.'.'."
};
