/* XPM */
static char *result[] = {
/* columns rows colors chars-per-pixel */
"32 32 201 2 ",
"   c #071821",
".  c #071921",
"X  c #081922",
"o  c #081A22",
"O  c #081B23",
"+  c #091C23",
"@  c #0A1E25",
"#  c #0F2326",
"$  c #0E272A",
"%  c #122728",
"&  c #15262C",
"*  c #102A2B",
"=  c #112B2C",
"-  c #17292E",
";  c #112C2C",
":  c #112C2D",
">  c #132F2F",
",  c #1F372F",
"<  c #1F382F",
"1  c #1A2C30",
"2  c #193B35",
"3  c #213B31",
"4  c #253F33",
"5  c #274234",
"6  c #274334",
"7  c #284434",
"8  c #294535",
"9  c #2B4836",
"0  c #2D4A37",
"q  c #264638",
"w  c #2C453A",
"e  c #2C463A",
"r  c #2D463A",
"t  c #2C4A38",
"y  c #2D4B38",
"u  c #2E4C38",
"i  c #2F493C",
"p  c #36573D",
"a  c #37573D",
"s  c #2E4141",
"d  c #224D40",
"f  c #304242",
"g  c #324544",
"h  c #344745",
"j  c #374947",
"k  c #374C46",
"l  c #384C46",
"z  c #384D46",
"x  c #384D47",
"c  c #3A4D4A",
"v  c #3C4F4B",
"b  c #265040",
"n  c #255243",
"m  c #255343",
"M  c #255344",
"N  c #265444",
"B  c #285947",
"V  c #3B5049",
"C  c #3D504C",
"Z  c #3D504D",
"A  c #3F514E",
"S  c #3F524E",
"D  c #3E534E",
"F  c #3F544F",
"G  c #2D634D",
"H  c #3E6041",
"J  c #3E6142",
"K  c #3F6242",
"L  c #306850",
"P  c #425550",
"I  c #425551",
"U  c #455B50",
"Y  c #445852",
"T  c #475A54",
"R  c #465B54",
"E  c #4A5D57",
"W  c #4A5E57",
"Q  c #446548",
"!  c #486F48",
"~  c #4E774B",
"^  c #4F774B",
"/  c #4F774C",
"(  c #517B4E",
")  c #547D4E",
"_  c #547E4F",
"`  c #557F4F",
"'  c #476150",
"]  c #486250",
"[  c #4F6B54",
"{  c #506C54",
"}  c #526D58",
"|  c #596C63",
" . c #607667",
".. c #65796C",
"X. c #667A6D",
"o. c #568150",
"O. c #578250",
"+. c #5C8556",
"@. c #629057",
"#. c #639257",
"$. c #669659",
"%. c #67975A",
"&. c #67985A",
"*. c #68995B",
"=. c #69995B",
"-. c #699A5B",
";. c #6A9B5C",
":. c #6C9D5C",
">. c #6C9E5D",
",. c #6D9F5D",
"<. c #6EA05E",
"1. c #6EA15E",
"2. c #728975",
"3. c #72A560",
"4. c #73A761",
"5. c #73A364",
"6. c #74A464",
"7. c #74A962",
"8. c #79AE64",
"9. c #79AF64",
"0. c #79AF65",
"q. c #77A06C",
"w. c #77A16C",
"e. c #78A16C",
"r. c #79A36D",
"t. c #7BB165",
"y. c #7EB567",
"u. c #7EB667",
"i. c #7FAB71",
"p. c #80B869",
"a. c #82BB6A",
"s. c #83BC6A",
"d. c #84BD6B",
"f. c #85BF6C",
"g. c #83AD75",
"h. c #86C06C",
"j. c #8CC372",
"k. c #8CC472",
"l. c #8CC473",
"z. c #8FC07A",
"x. c #97CA7F",
"c. c #97CB7F",
"v. c #98CB7F",
"b. c #819683",
"n. c #859A86",
"m. c #89A087",
"M. c #89A088",
"N. c #8DA38D",
"B. c #8FA58E",
"V. c #93A992",
"C. c #94A992",
"Z. c #95AB93",
"A. c #99B591",
"S. c #99B691",
"D. c #9CB993",
"F. c #A1B79C",
"G. c #A8BFA2",
"H. c #98CB80",
"J. c #99CC81",
"K. c #9BCC84",
"L. c #9CCE85",
"P. c #9DCE85",
"I. c #9ECF87",
"U. c #9FCF87",
"Y. c #A0CB8D",
"T. c #A2CE8E",
"R. c #A1C096",
"E. c #A3C199",
"W. c #A7C39C",
"Q. c #ADD897",
"!. c #B1D59F",
"~. c #A9C0A3",
"^. c #AAC0A4",
"/. c #ABC1A5",
"(. c #ADC4A6",
"). c #AEC4A7",
"_. c #AEC5A7",
"`. c #AFCDA2",
"'. c #AFC8A6",
"]. c #AFC6A8",
"[. c #B0CEA3",
"{. c #B7CEAE",
"}. c #B8CFAF",
"|. c #B9DFA4",
" X c #B9E0A4",
".X c #BAE0A5",
"XX c #BAE1A6",
"oX c #C0DEB0",
"OX c #C7E8B5",
"+X c #C9EAB6",
"@X c #CAEAB6",
"#X c #CBEBB8",
"$X c #CFEDBC",
"%X c #D2EAC4",
"&X c #D8F0C8",
"*X c #D8F0C9",
"=X c #DAF2CA",
"-X c #DAF4C9",
";X c #DCF4CC",
":X c #E0F8CF",
">X c None",
/* pixels */
">X>X>X>X>X>X>X>X>X>XX                     . >X>X>X>X>X>X>X>X>X>X",
">X>X>X>X>X>X>X>X>X>Xu y 8 6 6 6 6 6 6 8 0 y >X>X>X>X>X>X>X>X>X>X",
">X>X>X>X>X>X>X>X>Xp @.>.=.%.%.%.%.%.%.*.:.#.>X>X>X>X>X>X>X>X>X>X",
">X>X>X>X>X>X>X>X>X_ 9.h.h.h.h.h.h.h.h.h.h.t.O.>X>X>X>X>X>X>X>X>X",
">X>X>X>X>X>X>X>X3.8.a.h.h.h.h.h.h.h.h.h.h.a.0.4.>X>X>X>X>X>X>X>X",
">X>X>X>X>X>X>X>Xs.y.<.$.$.<.u.h.h.h.h.h.h.h.h.f.>X>X>X>X>X>X>X>X",
">X>X>X>X>X>X>X>Xa.,.H 5 5 K 1.h.h.h.h.h.h.h.h.f.>X>X>X>X>X>X>X>X",
">X>X>X>X>X>X>X>Xa.5.[ Z Z ] +.<.u.k.c.P.P.v.l.f.>X>X>X>X>X>X>X>X",
">X>X>X>X>X>X>X>Xd.z.R.^.^.M.' K 1.c. X@X@XXXJ.h.>X>X>X>X>X>X>X>X",
">X>X>X>X>X>X>X>XK.Y.W.{.%X{.X.{ 6.P.@X:X:X#XU.h.>X>X>X>X>X>X>X>X",
">X>X>X>X>X>X>X>XOXW. .X.{.%X{.R.z.P.@X:X:X#XI.h.>X>X>X>X>X>X>X>X",
">X>X>X>X>X>X>X>X;X~.C Z ^.:X:X+XL.P.@X-X$X.XH.f.>X>X>X>X>X>X>X>X",
">X>X>X>X>X>X>X>X*XG.v Z ^.:X:X+XL.P.@X$XQ.c.l.d.>X>X>X>X>X>X>X>X",
">X>X>X>X>X>X>X>X(.C.| X.{.-X$X|.x.c. X|.x.p.4.-.>X>X>X>X>X>X>X>X",
">X>X>X>X>X>X>X>XT ..Z.{.%X$XQ.x.j.k.x.x.j.7.! t >X>X>X>X>X>X>X>X",
">X>X>X>X>X>X>X>X>XY V._./.A.q.$.$.$.$.$.$.` 5 o >X>X>X>X>X>X>X>X",
">X>X>X>X>X>X>X>X>X>XF P A l w 5 5 5 5 5 5 3 % >X>X>X>X>X>X>X>X>X",
">X>X>X>X>X>X>X>X>X>X+ - g f &     # < 5 5 3 % >X>X>X>X>X>X>X>X>X",
">X>X>X>X>X>X>X>X>X>X>XS N.b.f     < ^ $.$.) 4 O >X>X>X>X>X>X>X>X",
">X>X>X>X>X>X>X>X>X>X>XI B.m.' 5 5 K 1.h.h.;.9 o >X>X>X>X>X>X>X>X",
">X>X>X>X>X>X>X>X>X>X>X1 h ' +.$.$.1.u.h.h.&.7 . O >X>X>X>X>X>X>X",
">X>X>X>X>X>X>X>X>X>XX     e w.c.k.h.h.y.<.o.a i U >X>X>X>X>X>X>X",
">X>X>X>X>X>X>X>X>X>X      z S. Xx.h.h.<.J a o.r.E.}.>X>X>X>X>X>X",
">X>X>X>X>X>X>X>X>X>Xc x r ] M.A.q.$.$.o.a a o.g.oX=X>X>X>X>X>X>X",
">X>X>X>X>X>X>X>X>X>XF.S.w.+.' k w 5 5 a o.o.a } '.&X>X>X>X>X>X>X",
">X>X>X>X>X>X>X>X>X>X).`.T.i.Q < #     < ^ / < s n.].>X>X>X>X>X>X",
">X>X>X>X>X>X>X>X>X>XW 2.[.!.i.~ ,     # < < # & j E >X>X>X>X>X>X",
">X>X>X>X>X>X>X>X>X>X>XR V.D.e.( q : : ; = = * $ @ >X>X>X>X>X>X>X",
">X>X>X>X>X>X>X>X>X>X>X>XD V r q b N N N M m n d >X>X>X>X>X>X>X>X",
">X>X>X>X>X>X>X>X>X>X>X>X> = = 2 B L L L L L L >X>X>X>X>X>X>X>X>X",
">X>X>X>X>X>X>X>X>X>X>X>XN M M B G L L L L L >X>X>X>X>X>X>X>X>X>X",
">X>X>X>X>X>X>X>X>X>X>X>XL L L L L L L L L L >X>X>X>X>X>X>X>X>X>X"
};
