/* XPM */
static char *result[] = {
/* columns rows colors chars-per-pixel */
"32 32 169 2 ",
"   c #071921",
".  c #091B22",
"X  c #0D2327",
"o  c #182F2C",
"O  c #162C2A",
"+  c #14302F",
"@  c #19312C",
"#  c #1D3A32",
"$  c #213738",
"%  c #274234",
"&  c #284435",
"*  c #21473B",
"=  c #2C463A",
"-  c #264A3C",
";  c #2E4D3B",
":  c #314F3A",
">  c #29503E",
",  c #32553E",
"<  c #37583D",
"1  c #344745",
"2  c #384D46",
"3  c #3C4F4C",
"4  c #265444",
"5  c #2C5542",
"6  c #285846",
"7  c #295A48",
"8  c #365542",
"9  c #315942",
"0  c #3A5D46",
"q  c #3D504D",
"w  c #3B584E",
"e  c #2E634D",
"r  c #3F6243",
"t  c #33664C",
"y  c #34694E",
"u  c #3B6B4C",
"i  c #326650",
"p  c #396751",
"a  c #326A51",
"s  c #3E7453",
"d  c #3B7158",
"f  c #425851",
"g  c #466F49",
"h  c #486E4E",
"j  c #43724E",
"k  c #4E764B",
"l  c #4E7A4F",
"z  c #537D4F",
"x  c #446252",
"c  c #486250",
"v  c #466E51",
"b  c #4F6C54",
"n  c #4B675A",
"m  c #4B6D58",
"M  c #506C54",
"N  c #417454",
"B  c #437B56",
"V  c #4B7C54",
"C  c #4B7C5B",
"Z  c #517C55",
"A  c #507D5F",
"S  c #576C62",
"D  c #586D63",
"F  c #4C7A62",
"G  c #507F65",
"H  c #5D7A65",
"J  c #607667",
"K  c #657B6D",
"L  c #4D8256",
"P  c #4B825C",
"I  c #538354",
"U  c #5B8555",
"Y  c #5B8C56",
"T  c #53855A",
"R  c #548D5C",
"E  c #598D5B",
"W  c #5C925C",
"Q  c #5F985F",
"!  c #608C5B",
"~  c #65965A",
"^  c #68975B",
"/  c #67985B",
"(  c #6B9D5D",
")  c #6EA05E",
"_  c #598D64",
"`  c #518368",
"'  c #56886A",
"]  c #5C8D69",
"[  c #5F9960",
"{  c #5F926A",
"}  c #5C8C70",
"|  c #618661",
" . c #668E66",
".. c #629B61",
"X. c #61936D",
"o. c #6B9165",
"O. c #729F6A",
"+. c #788F79",
"@. c #739777",
"#. c #6DA463",
"$. c #6FA965",
"%. c #6BA268",
"&. c #73A563",
"*. c #73AC66",
"=. c #78AE65",
"-. c #77A16C",
";. c #7AA56F",
":. c #75AC69",
">. c #78AF6B",
",. c #76B067",
"<. c #7DB567",
"1. c #7DB569",
"2. c #79A777",
"3. c #74A07F",
"4. c #7EB272",
"5. c #80B46C",
"6. c #82BB6B",
"7. c #82B376",
"8. c #86BD71",
"9. c #89BE73",
"0. c #81B478",
"q. c #86B978",
"w. c #8CBE7A",
"e. c #86C06C",
"r. c #88C16E",
"t. c #8CC372",
"y. c #8FC07A",
"u. c #94C67D",
"i. c #97CA7F",
"p. c #98CB7F",
"a. c #77A481",
"s. c #86AF84",
"d. c #8CA38B",
"f. c #8CAA8E",
"g. c #92BC89",
"h. c #94AC92",
"j. c #8EB391",
"k. c #99B691",
"l. c #93B997",
"z. c #9ABD97",
"x. c #96BC98",
"c. c #98BF99",
"v. c #A7BDA1",
"b. c #A8BFA2",
"n. c #96C186",
"m. c #9CCE85",
"M. c #9ECB8C",
"N. c #9DC295",
"B. c #A1CD8E",
"V. c #A1C096",
"C. c #A4C49C",
"Z. c #A3CA9D",
"A. c #A9CA9B",
"S. c #ADD897",
"D. c #ADD29B",
"F. c #AAC1A4",
"G. c #AACEA2",
"H. c #B7CEAE",
"J. c #AED3A5",
"K. c #B6DDA3",
"L. c #B9DFA4",
"P. c #B4D4AF",
"I. c #BDD6B1",
"U. c #B9E0A4",
"Y. c #C9EAB6",
"T. c #CFEDBC",
"R. c #D2EAC4",
"E. c #DAF4C9",
"W. c #E0F8CF",
/* pixels */
"e.e.e.e.e.e.e.e.6.~ 4 + X . . .     . O ; k &.e.e.$.P a a P $.6.",
"6.6.,.$.$.,.1.<.#.U v 0 : & & & % % & : r l ) ,.*.#.X.} } { %.$.",
"r.=.R P P R ,.$.N C -.&.( ^ ^ ~ ~ ~ ^ ^ ( ~ E ~ T X.N.P.P.N.{ P ",
"*.%.X.} ] { %.W g T 1.e.8.8.e.e.e.e.e.e.6.>.~ U s ' N.Y.Y.N.` a ",
"B X.N.P.P.x.] B Y &.6.e.e.6.e.e.e.e.e.e.r.6.>.W d P 4.m.m.4.P a ",
"a ' Z.Y.Y.G.@._ &.5.) ~ ~ ( 6.e.e.e.e.r.r.r.6.*.P B $.6.>.%.R B ",
"a P 4.m.m.M.G.s.=.( r % % r ) e.e.e.e.r.e.e.r.w._ s $.,.R R ..*.",
"P P #.,.1.n.D.g.=.) M 2 f c U ) 6.r.p.p.B.p.t.t.{ s ....d B $.e.",
"$...R R ,.t.y.4.,.y.V.F.b.d.f c ) m.U.Y.Y.U.m.e.[ a B s a P $.e.",
"e.$.P s [ ,.1.>.q.M.C.H.R.H.K M *.m.Y.W.E.Y.m.6._ a a a B R ,.e.",
"e.*.B a B R $.4.A.C.J K H.R.H.V.y.m.Y.E.W.Y.m.1.R a a B [ ,.6.e.",
"e.,.R B a s E 2.I.b.q q v.W.W.Y.m.m.Y.E.T.U.i.1.R e e B $.e.e.e.",
"e.6.,.[ B a s { P.v.3 f b.W.W.Y.m.m.Y.T.S.i.e.$.B a a P $.e.e.e.",
"e.e.e.,.R B a F f.d.D K H.E.T.L.i.i.U.U.i.<.) R s a B R ,.e.e.e.",
"e.e.e.6.,.[ s a p K h.H.R.T.S.m.t.t.i.i.r.<.I y a s ..,.6.e.e.e.",
"e.e.e.e.e.,.R s 7 m f.F.b.k.O.^ ~ ~ / ( *.) L a s R ..$.*.,.6.e.",
"e.e.e.6.r.6.,.#.W V f f f 2 = % & % & < z ~ ( ( &.) R s P R ,.e.",
"e.1.,.$.*.,.1.1.*.T 1 $ 1 3 f 2 = % & , j Y =.6.*.%.{ } } X.%.*.",
"e.,._ P P R ,.,.R A n M d.v.b.k.-.~ ~ Y B Z *.=.R X.N.P.P.N.X.P ",
"$.$.{ } } { %.[ N C J +.I.R.H.V.u.r.6.<.X.] ..[ s ' G.Y.Y.N.' e ",
"P { N.P.P.N.X.s a N Z +.I.H.K M &.6.r.u.z.j.{ B d P 4.m.m.4.P a ",
"e ' Z.Y.Y.J.a.` d N l o.A.k.2 = -.p.t.u.D.C.3.` d B *.6.,.%.R B ",
"a P 4.m.m.B.J.l.` j Z ! 7.O.= 2 k.K.p.r.9.n.A.l.` B *.,.R R ..$.",
"B R ..>.6.i.K.Z.' s V I &.^ g c d.k.;.( &.y.K.Z.' B [ [ B B *.8.",
"$.%.R R ,.r.m.4.P a t l #.<.) U c q < u Q e.i.8.P a B d d B $.e.",
"e.$.B B [ ,.6.$.B e 7 u Y ) <.) r % # * L ,.1.$.B a a a B R ,.e.",
"e.$.B a B R ,.$.B e 6 9 ; r ) <.) U , * a R ,.*.B a a s [ ,.6.e.",
"e.,._ B a s [ [ B e 4 - @ = -.m.m.5.j > e B [ [ B a a B *.e.e.e.",
"e.6.,.[ B a B B a e 4 * + 2 k.Y.Y.A.| g a a B B a a a P $.e.e.e.",
"e.e.e.,.R B a a a t e 9 % w f.P.P.z. .V P s a a a a B R ,.e.e.e.",
"e.e.e.6.,.[ B a a s L V y p G } ] ' T W $.[ s a a B [ ,.6.e.e.e.",
"e.e.e.e.e.$.B a a B [ Q B a a i a s P Q ,.$.B a a B $.e.e.e.e.e."
};
