/* XPM */
static char *result[] = {
/* columns rows colors chars-per-pixel */
"32 32 177 2 ",
"   c #0E2327",
".  c #122627",
"X  c #15262C",
"o  c #142D2D",
"O  c #192C2E",
"+  c #163331",
"@  c #1D3A33",
"#  c #1A3434",
"$  c #203F35",
"%  c #274234",
"&  c #294535",
"*  c #2B4936",
"=  c #26453B",
"-  c #2C463A",
";  c #254D3E",
":  c #2C4B3A",
">  c #304E39",
",  c #2E503C",
"<  c #35543D",
"1  c #2F4141",
"2  c #264941",
"3  c #2B4D42",
"4  c #314442",
"5  c #374C46",
"6  c #384D46",
"7  c #374E48",
"8  c #3D4F4C",
"9  c #265344",
"0  c #285647",
"q  c #295947",
"w  c #2B5D49",
"e  c #335744",
"r  c #335D45",
"t  c #385B47",
"y  c #3D514C",
"u  c #3B5D48",
"i  c #2E644D",
"p  c #376045",
"a  c #3E6242",
"s  c #35644C",
"d  c #35694E",
"f  c #3A6B4D",
"g  c #3F6053",
"h  c #326A51",
"j  c #3A6E56",
"k  c #3E7553",
"l  c #445D4E",
"z  c #446845",
"x  c #476E48",
"c  c #45704C",
"v  c #4B704E",
"b  c #527D4E",
"n  c #476150",
"m  c #486250",
"M  c #4D6B54",
"N  c #466A59",
"B  c #506D55",
"V  c #437651",
"C  c #487253",
"Z  c #437C56",
"A  c #4B7C53",
"S  c #4A725B",
"D  c #477B5A",
"F  c #5B7C5C",
"G  c #586E63",
"H  c #4D7D64",
"J  c #517D60",
"K  c #5A7963",
"L  c #607667",
"P  c #667A6D",
"I  c #4F8457",
"U  c #478058",
"Y  c #4B825C",
"T  c #558254",
"R  c #578A57",
"E  c #5A8956",
"W  c #548C5B",
"Q  c #5A8D5C",
"!  c #5C8556",
"~  c #5C925C",
"^  c #5F985F",
"/  c #618F57",
"(  c #60865B",
")  c #65965A",
"_  c #659A5D",
"`  c #6A9B5C",
"'  c #6EA15E",
"]  c #538263",
"[  c #578D61",
"{  c #56886A",
"}  c #5B8B69",
"|  c #5C8364",
" . c #5F9860",
".. c #5E906B",
"X. c #5C8C70",
"o. c #628861",
"O. c #61896C",
"+. c #658369",
"@. c #629562",
"#. c #689260",
"$. c #639C61",
"%. c #689F60",
"&. c #61946D",
"*. c #6B9869",
"=. c #709F6B",
"-. c #6F8B71",
";. c #628B72",
":. c #6E9879",
">. c #659471",
",. c #6DA462",
"<. c #6BA268",
"1. c #73AB65",
"2. c #79AD67",
"3. c #77A26C",
"4. c #7AA86A",
"5. c #75A466",
"6. c #76B067",
"7. c #7DB567",
"8. c #7DB469",
"9. c #7FB96A",
"0. c #7CAB75",
"q. c #7AA672",
"w. c #80B76A",
"e. c #82BB6A",
"r. c #88BF6F",
"t. c #81B477",
"y. c #87BE71",
"u. c #8CBF76",
"i. c #81B478",
"p. c #8AB47C",
"a. c #86C06C",
"s. c #8CC372",
"d. c #8FC07A",
"f. c #92C47D",
"g. c #97CA7F",
"h. c #7F9682",
"j. c #7C9F84",
"k. c #7FA085",
"l. c #819683",
"z. c #829884",
"x. c #86A984",
"c. c #88A38A",
"v. c #8DAB8D",
"b. c #84A685",
"n. c #8EB38B",
"m. c #8DAB90",
"M. c #96AF92",
"N. c #91B793",
"B. c #99B691",
"V. c #96B892",
"C. c #9CBD95",
"Z. c #98BF99",
"A. c #A5BDA0",
"S. c #A8BEA2",
"D. c #97C881",
"F. c #9CCD85",
"G. c #93C182",
"H. c #A0CC8D",
"J. c #A1C096",
"K. c #A6C39C",
"L. c #A4CA9D",
"P. c #AAC99F",
"I. c #ADD897",
"U. c #AAC0A4",
"Y. c #A9CDA1",
"T. c #B7CEAE",
"R. c #B7DEA3",
"E. c #B9DFA4",
"W. c #B3D4AF",
"Q. c #B9E0A4",
"!. c #C7E8B4",
"~. c #C9EAB6",
"^. c #CFEDBC",
"/. c #C2E3B1",
"(. c #D2EAC4",
"). c #DAF4C9",
"_. c #E0F8CF",
/* pixels */
"a.a.a.a.a.a.a.e.8. .j h h h h j j U ^ ' 9.a.a.a.a.1.U h h U <.a.",
"a.e.1.1.1.6.e.8.) A s 0 0 9 0 q i s Z R $.1.9.e.6.<.&.X.X...<.1.",
"a.1.W U U Q 1._ r : & # o o o o + $ $ ; f W 6.6.W &.J.W.W.J...U ",
"1.<.&.X.} ..@.I t e < * = % % % & * < p N H $.@.k { L.~.Q.L.{ h ",
"U ..J.W.W.m.D s E ` ` ` ) ) ) ) ` ` ` ) F K ] k h Y 9.F.H.0.Y h ",
"h { L.~.~.J.| T 1.a.e.a.a.a.a.a.a.e.a.2.( P } H j U 1.e.6.<.W U ",
"h U i.F.D.G.p.8.w.a.a.a.a.a.a.a.a.a.a.e.2.5.p.k.{ k 1.6.W Y <.1.",
"U Y _ 1.8.u.f.8.' ) ) ' w.a.a.a.a.a.a.a.a.w.p.z.{ k  . .Z Z 1.a.",
"1.<.Y W ,.w.y.' z % % z ' a.a.a.a.a.a.a.e.e.4.%.D h k Z h U 1.a.",
"a.1.U k ~ 1.e.5.M 8 8 l ! ' 7.s.g.F.F.g.s.7.' ~ k h h j Z [ 6.a.",
"a.1.Z h D  .e.f.K.U.S.z.m a ' g.Q.~.~.Q.g.2.` ~ Z h h k  .6.9.a.",
"a.6.W Z h [ u.F.K.T.(.T.P B 5.F.~._._.~.D.1.~ R k h h k 1.a.a.a.",
"a.e.6.^ k [ L.K.L P T.(.T.J.f.F.~._._.~.g.,.I d h h h U 1.a.a.a.",
"a.a.a.1.W >.W.U.8 l S._._.~.F.F.~.).^.Q.g.1.c i i h Z W 6.a.a.a.",
"a.a.a.9.,.0.W.A.8 8 S._._.~.F.F.~.^.I.g.a.6.V i i Z  .6.9.a.a.a.",
"a.a.a.a.9.0.N.v.G P T.).^.E.D.D.Q.Q.g.w.' / k h k Y $.1.1.6.9.a.",
"a.a.a.a.e.1.o.-.M.T.(.(.I.g.u.s.g.g.s.' a * * a / ' W Z Z ~ 6.a.",
"a.9.6.1.1.` b F c.S.S.M.w.) ) ) ) ) ) T < * < x E ) ..} X...<.1.",
"a.6.~ Z Z T ! M l 8 l 8 $ $ $ $ & % & < b ` ` ) c S v.W.W.Z.&.Z ",
",.<.&.X.X.} Q C l $ X X $ l l 6 & % & a ' r.r.2.A C n./.!.L.{ h ",
"U &.J.W.W.N.] J c.l.1 1 l.U.U.B.=.) ) ' w.a.r.w.,.^ 1.d.D.0.Y h ",
"h { L.!.~.Y.:.;.M.l.1 8 U.).^.E.g.r.a.w.' ' p.g.y.,.<.1.1.<.Y U ",
"h Y 0.F.F.H.Y.z.m 8 X l S.^.I.g.s.r.e.' a B J.E.f.,.,.' W W ,.1.",
"U Y <.6.w.F.E.c.4 X   1 l.B.=.` w.r.a.) & - p.M.q.~ ~ Q k k 1.a.",
"1.$.W W 6.s.D.<.e #   X 1 7 - z ' a.a.) & X - l u r k k h Z 1.a.",
"a.1.U k  .6.9.<.r 2 7 7 - % % a ' a.a.) & O 4 l 2 ; w h k ~ 6.a.",
"a.1.Z h Z W 6.' s N c.B.3.) ) ' w.a.a._ & 4 l.v.S 9 i k  .6.9.a.",
"a.6.W Z h k  .W d S v.P.H.D.s.e.' ` ` b % 7 v.C.F 0 i Z 1.a.a.a.",
"a.e.6. .Z h Z k i s g +.P.E.g.' z * < < & ; D ] j i i U 1.a.a.a.",
"a.a.a.6.W Z h h i i 9 N v.C.4.T , % , < p i i w h h k ~ 6.a.a.a.",
"a.a.a.e.6. .Z h h k I T B l < : p f A R ^ W j i i k  .6.9.a.a.a.",
"a.a.a.a.a.1.Z h h Z ,./ < O . @ d U ~ ,.6.,.U h h U 1.a.a.a.a.a."
};
