/* XPM */
static char *result[] = {
/* columns rows colors chars-per-pixel */
"32 32 195 2 ",
"   c #071821",
".  c #071921",
"X  c #091C23",
"o  c #0C2227",
"O  c #0D2327",
"+  c #0D2428",
"@  c #0E2629",
"#  c #0F282A",
"$  c #122627",
"%  c #14262C",
"&  c #15262C",
"*  c #10292B",
"=  c #102A2B",
"-  c #142928",
";  c #102A2C",
":  c #112B2C",
">  c #1B2D31",
",  c #1F3135",
"<  c #203235",
"1  c #223336",
"2  c #213A30",
"3  c #233D31",
"4  c #264033",
"5  c #274234",
"6  c #284334",
"7  c #284434",
"8  c #294535",
"9  c #2A4635",
"0  c #2A4736",
"q  c #2B4736",
"w  c #2B4836",
"e  c #2A4837",
"r  c #274738",
"t  c #2C453A",
"y  c #2C463A",
"u  c #204A3E",
"i  c #264E3F",
"p  c #2D4B39",
"a  c #2E4B38",
"s  c #2E4C38",
"d  c #2F483C",
"f  c #31503A",
"g  c #34543C",
"h  c #35543C",
"j  c #37573D",
"k  c #2F4141",
"l  c #2F4241",
"z  c #224C40",
"x  c #234F42",
"c  c #304242",
"v  c #314342",
"b  c #354746",
"n  c #374947",
"m  c #374C46",
"M  c #384C46",
"N  c #384D46",
"B  c #384A48",
"V  c #394B49",
"C  c #3C4F4B",
"Z  c #3D4F4C",
"A  c #245042",
"S  c #245142",
"D  c #255243",
"F  c #255344",
"G  c #365141",
"H  c #3D524A",
"J  c #3D504C",
"K  c #3D504D",
"L  c #3F534F",
"P  c #3E6141",
"I  c #3E6142",
"U  c #3F6142",
"Y  c #3F6242",
"T  c #306850",
"R  c #435852",
"E  c #465954",
"W  c #465A54",
"Q  c #475B55",
"!  c #416443",
"~  c #497048",
"^  c #537D4E",
"/  c #537E4F",
"(  c #557F4F",
")  c #476150",
"_  c #486250",
"`  c #4F6C54",
"'  c #4F635B",
"]  c #506C54",
"[  c #50645C",
"{  c #596D63",
"}  c #607667",
"|  c #667A6D",
" . c #568150",
".. c #5B8753",
"X. c #5C8556",
"o. c #5C8853",
"O. c #5F8D55",
"+. c #629157",
"@. c #669559",
"#. c #669659",
"$. c #679659",
"%. c #67975A",
"&. c #67985A",
"*. c #69995B",
"=. c #699A5B",
"-. c #6A9B5B",
";. c #6A9B5C",
":. c #6B9C5C",
">. c #6C9E5D",
",. c #6EA05E",
"<. c #6EA15E",
"1. c #6FA25F",
"2. c #6E8572",
"3. c #6E8274",
"4. c #72A560",
"5. c #74A464",
"6. c #74A861",
"7. c #74A962",
"8. c #78AE64",
"9. c #79AE64",
"0. c #79AF64",
"q. c #79AF65",
"w. c #77A06C",
"e. c #77A16C",
"r. c #79A36D",
"t. c #7BB266",
"y. c #7DB366",
"u. c #7DB567",
"i. c #7EB567",
"p. c #7EB667",
"a. c #7FB668",
"s. c #80B869",
"d. c #82BB6A",
"f. c #83BB6A",
"g. c #83BC6A",
"h. c #85BF6B",
"j. c #80AB73",
"k. c #86C06C",
"l. c #8CC372",
"z. c #8CC472",
"x. c #8CC473",
"c. c #8FC07A",
"v. c #97CA7E",
"b. c #97CA7F",
"n. c #97CB7F",
"m. c #809582",
"M. c #819683",
"N. c #829784",
"B. c #859A86",
"V. c #89A088",
"C. c #92A790",
"Z. c #93A992",
"A. c #96AB93",
"S. c #97AD95",
"D. c #99AF96",
"F. c #99B591",
"G. c #99B691",
"H. c #9AB097",
"J. c #9EBB94",
"K. c #9EBB96",
"L. c #9CB298",
"P. c #A0B69C",
"I. c #A8BEA2",
"U. c #A8BFA2",
"Y. c #A9BFA3",
"T. c #98CB80",
"R. c #9CCD84",
"E. c #9CCE85",
"W. c #9DCE85",
"Q. c #A0CA8C",
"!. c #A2CD8E",
"~. c #A1C096",
"^. c #A6C39C",
"/. c #ADD897",
"(. c #AAC0A3",
"). c #AAC0A4",
"_. c #ACC2A5",
"`. c #AECCA2",
"'. c #B5CCAD",
"]. c #B7CEAE",
"[. c #B9DFA4",
"{. c #BED4B3",
"}. c #B9E0A4",
"|. c #BAE0A5",
" X c #C7E7B4",
".X c #C9EAB6",
"XX c #CAEAB6",
"oX c #CAEAB7",
"OX c #CFEDBC",
"+X c #D2EAC4",
"@X c #DAF2CA",
"#X c #DBF3CB",
"$X c #DAF4C9",
"%X c #E0F8CF",
"&X c None",
/* pixels */
"&X&X&X&X&X&X&X&X&X&XT T T T T T T T &X&X&X&X&X&X&X&X&X&X&X&X&X&X",
"&X&X&X&X&X&X&X&X&X&Xx D F F F F F S u &X&X&X&X&X&X&X&X&X&X&X&X&X",
"&X&X&X&X&X&X&X&X&Xo # ; : : : : : * + @ &X&X&X&X&X&X&X&X&X&X&X&X",
"&X&X&X&X&X&X&X&Xs a 9 6 5 5 5 5 6 8 w e &X&X&X&X&X&X&X&X&X&X&X&X",
"&X&X&X&X&X&X&X&X+.>.=.%.$.#.#.$.%.*.;...p &X&X&X&X&X&X&X&X&X&X&X",
"&X&X&X&X&X&X&X( q.k.k.k.k.k.k.k.k.k.k.7.~ s &X&X&X&X&X&X&X&X&X&X",
"&X&X&X&X&X&X4.0.d.k.k.k.k.k.k.k.k.k.k.s.6.@.&X&X&X&X&X&X&X&X&X&X",
"&X&X&X&X&X&Xg.i.,.#.#.,.p.k.k.k.k.k.k.k.k.t.&X&X&X&X&X&X&X&X&X&X",
"&X&X&X&X&X&Xf.,.P 5 5 Y <.k.k.k.k.k.k.k.k.y.&X&X&X&X&X&X&X&X&X&X",
"&X&X&X&X&X&Xg.5.` K K _ X.,.p.z.n.W.W.n.z.u.&X&X&X&X&X&X&X&X&X&X",
"&X&X&X&X&X&Xh.c.~.).).V.) Y <.n.}.XXXX}.n.p.&X&X&X&X&X&X&X&X&X&X",
"&X&X&X&X&X&XR.Q.^.].+X].| ] 5.W.XX%X%XoXW.a.&X&X&X&X&X&X&X&X&X&X",
"&X&X&X&X&X&X X^.} | ].+X].~.c.W.XX%X%XoXW.a.&X&X&X&X&X&X&X&X&X&X",
"&X&X&X&X&X&X#XY.Z K ).%X%X.XE.W.XX$XOX}.n.p.&X&X&X&X&X&X&X&X&X&X",
"&X&X&X&X&X&X@XU.C K ).%X%X.XE.W.XXOX/.n.z.i.&X&X&X&X&X&X&X&X&X&X",
"&X&X&X&X&X&X'.S.{ | ].$XOX[.b.n.}.[.b.i.,.o.h &X&X&X&X&X&X&X&X&X",
"&X&X&X&X&X&X[ 3.D.].+XOX/.b.l.l.b.b.l.,.I 2 $ &X&X&X&X&X&X&X&X&X",
"&X&X&X&X&X&X&XE C.(.(.F.w.#.#.#.#.#.#. .j 7 q 0 &X&X&X&X&X&X&X&X",
"&X&X&X&X&X&X&X1 B J J M t 5 5 5 5 5 5 j  .&.-.O.g &X&X&X&X&X&X&X",
"&X&X&X&X&X&X&X&XV k % & c K K N y 5 5 Y <.k.k.9.^ &X&X&X&X&X&X&X",
"&X&X&X&X&X&X&X&XP.m.k c M.).).G.e.#.#.<.p.k.k.d.8.<.&X&X&X&X&X&X",
"&X&X&X&X&X&X&X&X_.B.l K ).$XOX[.b.k.k.i.,.5.c.n.x.s.&X&X&X&X&X&X",
"&X&X&X&X&X&X&X&XW b & K ).OX/.v.l.k.k.,.I ` ~.|.T.s.&X&X&X&X&X&X",
"&X&X&X&X&X&X&X&X.     c M.F.w.,.i.k.k.#.5 c N.K.j.:.&X&X&X&X&X&X",
"&X&X&X&X&X&X&X&X&X    & c m t U <.k.k.#.5 & v H G f &X&X&X&X&X&X",
"&X&X&X&X&X&X&X&X&X, n N y 5 5 Y <.k.k.#.5 % k b > &X&X&X&X&X&X&X",
"&X&X&X&X&X&X&X&X&X&XH.G.e.#.#.<.p.k.k.%.6 k m.A.' &X&X&X&X&X&X&X",
"&X&X&X&X&X&X&X&X&X&XI.`.!.n.z.a.1.*.;.( 3 n L.{.&X&X&X&X&X&X&X&X",
"&X&X&X&X&X&X&X&X&X&XQ 2.`.}.b.1.! 8 w 4 - < &X&X&X&X&X&X&X&X&X&X",
"&X&X&X&X&X&X&X&X&X&X&XR Z.J.r./ r * @ O &X&X&X&X&X&X&X&X&X&X&X&X",
"&X&X&X&X&X&X&X&X&X&X&X&XL H d r i A z &X&X&X&X&X&X&X&X&X&X&X&X&X",
"&X&X&X&X&X&X&X&X&X&X&X&XX     = D T T &X&X&X&X&X&X&X&X&X&X&X&X&X"
};
