/* XPM */
static char *result[] = {
/* columns rows colors chars-per-pixel */
"32 32 168 2 ",
"   c #071821",
".  c #0A1D24",
"X  c #0E2327",
"o  c #0F282A",
"O  c #122728",
"+  c #132A2A",
"@  c #15312F",
"#  c #1F3533",
"$  c #1B3B34",
"%  c #20392F",
"&  c #223D32",
"*  c #1F423A",
"=  c #1F483D",
"-  c #274234",
";  c #2A4636",
":  c #234639",
">  c #2C463A",
",  c #274D3D",
"<  c #2D4A3A",
"1  c #314E3B",
"2  c #31523C",
"3  c #334744",
"4  c #384D46",
"5  c #295745",
"6  c #2B5B47",
"7  c #2B5D4A",
"8  c #325C44",
"9  c #3B5E42",
"0  c #315349",
"q  c #3D524D",
"w  c #305F48",
"e  c #395F4F",
"r  c #2E654E",
"t  c #3E6243",
"y  c #34644B",
"u  c #32684F",
"i  c #3B6C4D",
"p  c #356450",
"a  c #386751",
"s  c #326A51",
"d  c #386C55",
"f  c #377052",
"g  c #3D7453",
"h  c #3F7855",
"j  c #3B7158",
"k  c #425C51",
"l  c #466B46",
"z  c #40654B",
"x  c #436B4C",
"c  c #45704B",
"v  c #4C754D",
"b  c #4F794E",
"n  c #507B4E",
"m  c #456352",
"M  c #496352",
"N  c #4E6C53",
"B  c #4B645A",
"V  c #506C54",
"C  c #4D7650",
"Z  c #437B56",
"A  c #4C7B53",
"S  c #44705B",
"D  c #477B5A",
"F  c #587A57",
"G  c #596D63",
"H  c #4D7B64",
"J  c #547E64",
"K  c #597E65",
"L  c #5E7768",
"P  c #5B7366",
"I  c #607667",
"U  c #667A6D",
"Y  c #4E8054",
"T  c #4B815D",
"R  c #558353",
"E  c #5B8555",
"W  c #5B8B56",
"Q  c #538659",
"!  c #58865F",
"~  c #548D5B",
"^  c #5C8E59",
"/  c #57905D",
"(  c #5C925B",
")  c #629157",
"_  c #66965A",
"`  c #65995D",
"'  c #6B9D5D",
"]  c #6EA15E",
"[  c #528163",
"{  c #538469",
"}  c #56886A",
"|  c #5B8A6F",
" . c #5D8562",
".. c #5F9960",
"X. c #5C8C70",
"o. c #68816C",
"O. c #669760",
"+. c #639C61",
"@. c #6F9E60",
"#. c #61936D",
"$. c #6C9A69",
"%. c #6DA562",
"&. c #6FA965",
"*. c #6BA268",
"=. c #72A563",
"-. c #72AB65",
";. c #79AC67",
":. c #76A16C",
">. c #7AA46E",
",. c #7BAC6B",
"<. c #76B067",
"1. c #7DB467",
"2. c #7DB668",
"3. c #7EB869",
"4. c #7CA27C",
"5. c #81B76A",
"6. c #82BB6B",
"7. c #82AF72",
"8. c #85AB7F",
"9. c #82B377",
"0. c #86B972",
"q. c #81B478",
"w. c #8CBC79",
"e. c #8BB37E",
"r. c #86C06C",
"t. c #8CC372",
"y. c #8FC07A",
"u. c #91C17E",
"i. c #97CA7F",
"p. c #789A80",
"a. c #77A381",
"s. c #7DA085",
"d. c #899F89",
"f. c #86A886",
"g. c #89A189",
"h. c #8CAB8F",
"j. c #90B38E",
"k. c #91A790",
"l. c #96B396",
"z. c #99B691",
"x. c #93B997",
"c. c #9CB892",
"v. c #97BD98",
"b. c #99BE99",
"n. c #A0BF96",
"m. c #9CCE85",
"M. c #9FCA8C",
"N. c #A2CF8F",
"B. c #A1C096",
"V. c #A6C39B",
"C. c #A8C79D",
"Z. c #A3C99D",
"A. c #ABCD9C",
"S. c #ADD897",
"D. c #AAC0A4",
"F. c #ACCBA8",
"G. c #B6CDAD",
"H. c #ADD2A5",
"J. c #B9DFA4",
"K. c #B4D4AF",
"L. c #B8D5AD",
"P. c #BDDDAD",
"I. c #B9E0A4",
"U. c #C9EAB6",
"Y. c #CFEDBC",
"T. c #D2EAC4",
"R. c #DAF4C9",
"E. c #E0F8CF",
/* pixels */
"r.r.r.r.r.6.6.=.l - O             . O 1 W 1.6.r.r.&.Z u s Y &.r.",
"6.6.<.-.-.-.=.) l 9 1 - - - ; ; & ; 1 t b ( <.6.-.*.#.| | #.*.&.",
"r.<.~ Z Y Y b v E ' ' @._ _ _ _ _ _ ' E 9 y ` <./ #.v.K.H.B.X.T ",
"-.*.#.X.} [ v b 5.6.6.6.r.r.r.r.r.r.r.=.A m ~ ( Z } Z.U.U.Z.} s ",
"Z #.v.F.b.4.` %.5.6.6.6.r.r.r.r.r.r.r.r.5.@. .i s T 3.m.m.3.{ r ",
"s } Z.L.V.f.,.1.@._ ' @.5.r.r.r.r.r.r.r.6.0.o.k d T -.3.<.+.~ Z ",
"u T q.m.>.>.0.%.t & & t ] r.6.r.r.r.r.t.r.6.e.8.H D &.<.~ ~ +.&.",
"Z ~ +.=.` @.0.=.M k k l E ] 5.r.i.i.i.i.t.6.e.8.{ h ....h T &.r.",
"&.*.Q Q ^ @.5.w.n.D.D.d.M t ] i.I.U.U.I.i.1.;.$.D s h h s Z &.r.",
"r.&.Y f A ` w.N.V.G.T.G.U V =.N.U.E.E.U.m.1.] ( h s s f h ..<.r.",
"r.&.Z r 8  .A.V.I U G.T.L.n.y.m.U.E.E.U.m.-._ ( h s r h ..<.3.r.",
"r.<./ f 5 K L.D.q k D.E.E.U.m.i.U.R.Y.I.i.=.W Y g s s Z -.r.r.r.",
"r.3.<.( y [ K.D.q q D.E.E.U.i.N.U.Y.S.i.t.] A y s s r T &.r.r.r.",
"r.r.r.&.A J h.h.G U G.R.Y.J.i.i.I.I.i.6.&.( i r r f h / <.r.r.r.",
"r.r.r.3.%.Q m L k.G.T.Y.S.i.w.t.i.i.t.;.R c u r r h ( <.6.r.r.r.",
"r.r.r.r.r.( 8 m d.D.D.z.:._ _ _ _ _ _ ) b v Y Y Z ~ *.&.&.<.6.r.",
"r.r.r.r.r.<./ v B k k 3 > - - - - ; 2 l W ' =.-.-.+.~ Y Z / <.r.",
"r.3.<.&.=.-.-.W & # & k k 4 > - - - % 2 Q &.3.6.<.*.X.X.X.X.&.&.",
"r.<...h Y / &.( & k d.D.n.n.>._ _ R 2 ; i ~ <.-.~ #.B.K.H.B.X.T ",
"&.*...X.X.X.*.Y & G G.T.G.n.y.r.6.] t 0 H #.*...Z } Z.U.U.Z.} s ",
"T X.B.K.K.v.X.u & B G.G.U V =.6.r.] N P l.v.#.Z s T 3.m.m.3.T s ",
"s { Z.U.U.H.4.S * k n.z.4 > :.i.t.] N o.Z.H.a.[ j T -.3.<.+.~ D ",
"s T 3.M.m.N.H.d.0 z 7.:.; 4 z.I.i.] v F 9.N.H.x.{ Z &.<...T +.&.",
"Z T *.<.1.i.J.j.e z =.@.t M g.z.>.E l v =.i.J.Z.} h ....h T &.r.",
"-.*.~ ~ <.t.m.&.y i @.5.] E M 4 < 2 y Z *.y.M.3.T f h h f Z &.r.",
"r.&.Z h ( <.r.( 6 8 R @.5.] t % O $ 6 g ..<.3.&.Z r s f h / <.r.",
"r.&.Z f h / <.( 5 @ & t ' 5.] n % % r u h ~ <.&.T r s h ..<.6.r.",
"r.<./ h f h ..Y : o . > :.m.i.>.1 - f h f h ....h s r Z -.r.r.r.",
"r.6.<.+.h s h u $ o X 4 c.U.U.c.k ; R ( h f h h f r s h -.r.r.r.",
"r.r.r.<./ h s r = $ @ 0 h.K.K.h.k 2 ( &./ h f r r f h ..<.r.r.r.",
"r.r.r.6.<.( Z r 7 7 6 p [ X.X.[ a i / &.&...h r s h ..<.3.r.r.r.",
"r.r.r.r.r.-.Z r s s f s s s u u s h / %.3.-.Z s s Z -.r.r.r.r.r."
};
