/* XPM */
static char *result[] = {
/* columns rows colors chars-per-pixel */
"32 32 167 2 ",
"   c #071821",
".  c #091B23",
"X  c #0C2126",
"o  c #122A2B",
"O  c #1B322E",
"+  c #173330",
"@  c #1C3C35",
"#  c #213C34",
"$  c #274234",
"%  c #294536",
"&  c #2B4937",
"*  c #23473A",
"=  c #2B463B",
"-  c #2D4C3B",
";  c #244B3D",
":  c #33553E",
">  c #395B3F",
",  c #354945",
"<  c #384D46",
"1  c #3B4F4B",
"2  c #295746",
"3  c #2D5944",
"4  c #2C5E4A",
"5  c #375240",
"6  c #345B43",
"7  c #385B45",
"8  c #355748",
"9  c #3D524D",
"0  c #3F5B4A",
"q  c #2E644D",
"w  c #3E6243",
"e  c #33644C",
"r  c #3B654B",
"t  c #35694E",
"y  c #396C4E",
"u  c #346550",
"i  c #326A51",
"p  c #3B6F51",
"a  c #3E7352",
"s  c #3B7158",
"d  c #41544F",
"f  c #445C4D",
"g  c #485E52",
"h  c #426947",
"j  c #466F4A",
"k  c #41714E",
"l  c #4C754D",
"z  c #4C784F",
"x  c #517A4D",
"c  c #456353",
"v  c #486250",
"b  c #4D6D53",
"n  c #516E56",
"m  c #437553",
"M  c #497551",
"N  c #437B56",
"B  c #4A7A51",
"V  c #4C745C",
"C  c #457958",
"Z  c #4E7B59",
"A  c #537851",
"S  c #55735B",
"D  c #507C5E",
"F  c #536F61",
"G  c #586D63",
"H  c #497760",
"J  c #4E7E65",
"K  c #5F7566",
"L  c #517E60",
"P  c #5C7968",
"I  c #657B6D",
"U  c #4F8255",
"Y  c #4B825D",
"T  c #4F885B",
"R  c #538253",
"E  c #5A8455",
"W  c #5B8A56",
"Q  c #528459",
"!  c #548D5C",
"~  c #5B8D59",
"^  c #5D935C",
"/  c #5F995F",
"(  c #648E5E",
")  c #619157",
"_  c #659659",
"`  c #64985D",
"'  c #699A5C",
"]  c #6EA05E",
"[  c #548462",
"{  c #5D8C67",
"}  c #528468",
"|  c #5B846B",
" . c #56886A",
".. c #5F8B6C",
"X. c #5F916B",
"o. c #5C8C70",
"O. c #678D61",
"+. c #6B8E68",
"@. c #629C61",
"#. c #61946D",
"$. c #6C9B65",
"%. c #708E74",
"&. c #699275",
"*. c #78907D",
"=. c #729974",
"-. c #6DA463",
";. c #6BA268",
":. c #72A663",
">. c #73AB65",
",. c #77A06C",
"<. c #79A46D",
"1. c #72A968",
"2. c #7DAA6E",
"3. c #76B067",
"4. c #7EB567",
"5. c #7FB66A",
"6. c #7DA478",
"7. c #7EB176",
"8. c #81BB6A",
"9. c #83B576",
"0. c #88BB75",
"q. c #81B478",
"w. c #8CBC79",
"e. c #86C06C",
"r. c #8CC372",
"t. c #8FC07A",
"y. c #97CB7F",
"u. c #77A481",
"i. c #849D84",
"p. c #89A087",
"a. c #8BA38B",
"s. c #87A88C",
"d. c #8BAB8C",
"f. c #92AD8E",
"g. c #93AE92",
"h. c #90B592",
"j. c #99B691",
"k. c #93B997",
"l. c #9CBC95",
"z. c #98BF99",
"x. c #96B88A",
"c. c #A4BB9F",
"v. c #A5BDA0",
"b. c #97C287",
"n. c #9CCE85",
"m. c #9FCA8C",
"M. c #A2CF8F",
"N. c #A1C096",
"B. c #A4C895",
"V. c #A4C39A",
"C. c #A3C99D",
"Z. c #ADD997",
"A. c #ADD29D",
"S. c #ABC1A4",
"D. c #AFCFA9",
"F. c #B6CEAE",
"G. c #AED3A5",
"H. c #B1D1A4",
"J. c #B9DFA4",
"K. c #B4D4AF",
"L. c #BDD5B3",
"P. c #B9E0A4",
"I. c #C9EAB6",
"U. c #CFEEBC",
"Y. c #D2EAC4",
"T. c #DAF5C9",
"R. c #E0F8CF",
/* pixels */
"e.e.e.e.e.e.e.5.>.R @ X . . .         X O > ' 8.8.:.Y i i Y -.e.",
"e.8.3.-.>.3.8.3.^ l 7 - $ $ $ $ $ $ $ & : h ) :.:.-.X. .o.X.;.>.",
"e.>.! Y Y ! 3.` 7 h ( ' ' ' _ _ _ _ _ _ ' ) R R U #.N.K.K.N.X.N ",
">.;.#.o. .X.@.U 7 l 3.e.e.e.e.e.e.e.e.e.8.>.W z a  .C.I.P.C. .i ",
"N X.N.K.K.h.[ a W :.8.e.e.e.e.e.e.e.8.e.e.8.:.( a a 7.n.M.7.Y i ",
"i  .C.I.I.V.| Z >.e.e.e.e.e.e.e.8.8.] _ _ :.8.:.Y a -.5.3.;.T N ",
"i Y q.n.n.b.d.=.>.8.e.e.e.e.8.e.e.' w # $ w ] 0.T a -.3.! T ;.>.",
"Y T ] >.8.w.x.6.3.r.y.n.n.y.r.4.] ) g d d n :.w.[ t / @.N N -.e.",
"-.@.T ! 3.e.3.$.>.y.P.I.I.P.y.] h v a.S.V.c.w.8.Q e a a s Y >.e.",
"e.>.Y a @.] ' ` :.n.I.R.R.I.n.:.b I F.Y.F.V.M.w.Q q q s a ! 3.e.",
"e.3.N i a T ^ ^ >.n.I.R.R.I.n.t.c.F.Y.F.I I V.A.{ q q a / 3.8.e.",
"e.3.! N t a R W :.y.P.U.T.I.n.n.I.R.R.v.1 < c.K...4 q N >.e.e.e.",
"e.8.3./ N i t N -.r.y.Z.U.I.n.n.I.R.R.c.d 1 c.F.} q i N >.e.e.e.",
"e.e.e.3.! a i y W :.4.y.P.P.y.y.J.U.R.F.I G a.s.C q N ! 3.e.e.e.",
"e.e.e.8.3./ a q 3 l :.r.y.y.r.r.y.Z.U.U.F.g.I p i a / 3.8.e.e.e.",
"e.e.e.e.e.3.! a 3 w W ' ' _ _ _ ) ,.c.v.S.f.V 3 a T @.>.-.3.8.e.",
"e.e.e.e.e.8.3.-.` B : & % $ $ $ $ # d d g S E ) -.@.T Y N ! 3.e.",
"e.5.3.>.>.3.8.5.>.Q = O # $ $ & : d d , # - ~ >.>.;.X.X.o.X.;.3.",
"e.3.! Y N ! 3.3.! D v f E _ _ ,.j.v.c.i.9 ; ~ >.! #.z.K.K.N.X.N ",
">.-.#.o.o.#.;.@.N V S S :.8.e.t.c.F.Y.F.F 8 ~ ` N  .S.I.P.C. .i ",
"a #.N.K.K.z.X.a i m b A :.e.e.:.n I F.L.q.G [ m i T 5.n.M.7.Y i ",
"i  .C.I.I.G.u.} s a j x :.r.y.<.# : j.S.p.I &.} s N >.8.3.;.T N ",
"i Y 7.n.n.M.G.k.} a z A :.y.P.j.d # 9.9.O.+.c.j.} N >.3.! T ;.>.",
"N T ;.3.8.y.P.C. .a B z W ,.j.p.g w ' 8.A O.B.B. .N / X.N N >.e.",
"1.@.T ! 3.r.n.7.Y i y q & & 5 v W ] 4.:.R ~ e.7.Y i N N i N >.e.",
"e.>.N N @.3.8.>.N i i q + o # w ] 4.] R h z -.>.Y i i i N ! 3.e.",
"e.1.N i N ! 3.-.Y q q e # $ z ] 4.] w # $ 6 ] ] N i i s / 3.8.e.",
"e.3.! N i a / @.a i i e & : <.n.n.,.= X o * U / N i i N >.e.e.e.",
"e.8.3./ N i N N i i i t - f l.I.I.j.< X o @ t a i i i N >.e.e.e.",
"e.e.e.3.! N i i q s a Y 6 c g.K.K.d.9 + @ ; q i i i N ! 3.e.e.e.",
"e.e.e.8.3./ N i i a / ` m p } o.o.J e 2 q i i i i N / 3.8.e.e.e.",
"e.e.e.e.e.>.N i i N -.-.Y a i i q i i i i N N i i N >.e.e.e.e.e."
};
