/* XPM */
static char *result[] = {
/* columns rows colors chars-per-pixel */
"32 32 162 2 ",
"   c #071821",
".  c #0A1D24",
"X  c #0D2126",
"o  c #132C2C",
"O  c #19322D",
"+  c #173330",
"@  c #1C3D36",
"#  c #233C35",
"$  c #264234",
"%  c #294536",
"&  c #2C453A",
"*  c #244A3C",
"=  c #2D4D3A",
"-  c #314E3C",
";  c #2E533F",
":  c #32523B",
">  c #354945",
",  c #384C46",
"<  c #3C4F4C",
"1  c #2D5944",
"2  c #2C5E49",
"3  c #335343",
"4  c #355D43",
"5  c #385C40",
"6  c #3C514C",
"7  c #2E644D",
"8  c #3D6243",
"9  c #33654C",
"0  c #3A654B",
"q  c #37694D",
"w  c #3A6D4E",
"e  c #346550",
"r  c #326A51",
"t  c #396F51",
"y  c #3E7352",
"u  c #3B7158",
"i  c #40544E",
"p  c #435C51",
"a  c #40664C",
"s  c #446F4A",
"d  c #486A4A",
"f  c #4A764D",
"g  c #4E794E",
"h  c #456252",
"j  c #486250",
"k  c #466D50",
"l  c #4F6C54",
"z  c #506D55",
"x  c #437654",
"c  c #437B56",
"v  c #4B7C53",
"b  c #4E7059",
"n  c #497B59",
"m  c #517D51",
"M  c #55735A",
"N  c #577B5E",
"B  c #586D63",
"V  c #4A7761",
"C  c #4D7D63",
"Z  c #577463",
"A  c #5A7867",
"S  c #607666",
"D  c #657B6D",
"F  c #4D8156",
"G  c #4B815D",
"H  c #4F885B",
"J  c #538454",
"K  c #5C8556",
"L  c #5C8B56",
"P  c #53835C",
"I  c #59835A",
"U  c #548D5B",
"Y  c #5B8E5A",
"T  c #5D935B",
"R  c #5F985F",
"E  c #608F57",
"W  c #638C5C",
"Q  c #659559",
"!  c #6A975D",
"~  c #669B5E",
"^  c #699A5C",
"/  c #6EA05E",
"(  c #558463",
")  c #5D8C67",
"_  c #528468",
"`  c #58846A",
"'  c #56886A",
"]  c #5F8B6C",
"[  c #5F9860",
"{  c #5F926C",
"}  c #5C8C70",
"|  c #68876E",
" . c #6B9763",
".. c #639C61",
"X. c #61946D",
"o. c #6F906B",
"O. c #678671",
"+. c #658C71",
"@. c #6D9678",
"#. c #6DA462",
"$. c #6BA268",
"%. c #72A463",
"&. c #73AB65",
"*. c #78AE64",
"=. c #76A16C",
"-. c #79A46D",
";. c #75AB68",
":. c #7BAF68",
">. c #76B067",
",. c #7DB467",
"<. c #7DB369",
"1. c #7BA37B",
"2. c #7DB075",
"3. c #82BB6A",
"4. c #80A777",
"5. c #80AC72",
"6. c #86AE7F",
"7. c #82B475",
"8. c #87BA74",
"9. c #8BBB77",
"0. c #81B478",
"q. c #8CBF7A",
"w. c #86C06C",
"e. c #8CC372",
"r. c #8FC07A",
"t. c #91C27D",
"y. c #97CB7F",
"u. c #77A481",
"i. c #839E85",
"p. c #89A087",
"a. c #8CA48B",
"s. c #8AAA8E",
"d. c #91AC8D",
"f. c #93B08D",
"g. c #94AD92",
"h. c #94B793",
"j. c #99B691",
"k. c #93B997",
"l. c #98BF99",
"z. c #A6BEA1",
"x. c #9CCE85",
"c. c #9AC689",
"v. c #9FCA8C",
"b. c #A2CF8F",
"n. c #A1C295",
"m. c #A4C49B",
"M. c #A3C99D",
"N. c #ADD997",
"B. c #ACD29C",
"V. c #ABC1A4",
"C. c #B7CEAE",
"Z. c #AED3A5",
"A. c #B9DFA4",
"S. c #B4D4AE",
"D. c #B9D8AE",
"F. c #B9E0A4",
"G. c #C2DAB7",
"H. c #C9EAB6",
"J. c #CFEEBC",
"K. c #D2EAC4",
"L. c #DAF5C9",
"P. c #E0F8CF",
/* pixels */
"w.w.w.w.w.w.w.w.3.Y * o X             . o : E ,.3.&.c r r G #.w.",
"3.3.&.&.&.>.3.>. .J a 3 = $ % % % # % % : 8 K / #.#.{ } } { $.&.",
"w.>.U F n U >...0 s  .%.^ Q Q Q Q Q Q Q ^ L g m F X.n.S.S.n.{ c ",
"&.$.X.} ] X...U 8 m :.w.w.w.w.w.w.w.w.w.w.%.K f w ( M.H.D.M.' r ",
"G { n.S.S.k.( y L &.3.w.w.w.w.w.w.w.w.w.w.3.%.E y y 2.x.x.2.G r ",
"7 ' M.H.H.V.X.P &.3.3.w.w.w.w.w.3.3./ ! Q / 3.%.c t $.3.<.$.U c ",
"r G 2.x.x.c.h.1.*.w.w.w.w.w.3.w.w.^ 8 # % 8 / 8.U w $.>.U H ..>.",
"c H / >.3.r.n.6.*.e.y.y.b.y.e.3./ E p i i l %.8.U w [ [ c c &.w.",
"&...H U >.3.7.$.*.y.F.H.H.F.y./ a j a.V.V.n.r.<.P 7 u y r G &.w.",
"w.&.c c R &./ / &.x.H.L.P.H.x.%.z D C.K.C.m.v.r.P 2 r t c U >.w.",
"w.&.c t y U ~ ~ &.x.H.P.P.H.x.r.n.C.K.C.D S m.B.) 2 7 y R >.3.w.",
"w.>.U c t y F U &.x.F.J.L.H.x.y.H.P.P.z.6 < z.S.] 2 7 F &.w.w.w.",
"w.3.>.R c r q F %.w.y.N.H.H.x.b.H.P.P.z.6 6 z.C._ 7 7 G &.w.w.w.",
"w.w.w.>.U y 7 t L &.3.y.A.A.y.y.A.J.L.C.D B d.s.c r y U >.w.w.w.",
"w.w.w.3.>.[ y 7 4 f &.e.x.y.e.e.c.N.J.K.S.g.D h r y R >.3.w.w.w.",
"w.w.w.w.w.>.U y 1 8 E ^ Q Q Q Q Q -.j.z.V.s.b 1 y H ..&.&.>.,.w.",
"w.w.w.w.w.3.>.&.Q g 5 - % $ # % % % > i p z I Q ....H c G U >.w.",
"w.3.&.&.&.>.,.<.&.U > # # $ % & , i i > # ; Q >.;.$.{ ' } { $.&.",
"w.>.U G G U >.>.U ( B M E Q ^ -.j.z.z.i.p 3 Q &.U X.n.S.S.n.{ G ",
"&.$.{ } } { $.[ y C | o.3.3.3.t.n.C.K.C.A 0 Y ..x ' Z.H.D.M._ r ",
"c { n.S.S.n.{ u t c I  .,.3.w.%.z D C.G.i.| ( x r G 2.x.x.2.H r ",
"r ' Z.D.H.Z.u._ u y m L *.e.y.=.& , j.D.g.4.@._ u G &.3.>.$.H G ",
"r G 2.x.x.b.Z.k._ x K T *.y.F.j., & =.q.4.4.n.k._ c &.>.U H ..&.",
"c H $.>.,.y.F.M.' y J J L -.j.p.p d / *.! =.B.m.' c [ [ c c &.w.",
"&...H U >.e.y.2.G r y 9 ; ; , j K / ,.&.L ^ e.2.G r c y r c >.w.",
"w.>.c c [ >.3.>.c r r 2 @ O $ 8 / ,./ J s F &.&.c r r r c U >.w.",
"w.&.c r y U >.&.G r r q = : J ^ ,./ 8 $ $ 8 / / G r r y R >.3.w.",
"w.>.U c r c R R y 7 r w : f 5.x.x.=.* X o * H R c r r c >.w.w.w.",
"w.3.>.R c r c c r r r r 8 M n.H.H.j., X o @ 7 y r r r c &.w.w.w.",
"w.w.w.>.U c r r r t y F s N k.S.S.s.6 O @ * 7 r r r c U >.3.w.w.",
"w.w.w.3.>.R c r r y R ..F n ' } } C 9 1 7 t r r r c R >.3.w.w.w.",
"w.w.w.w.w.&.c r r F #.>.U c r r r r r r r c c r r c &.w.w.w.w.w."
};
