/* XPM */
static char *result[] = {
/* columns rows colors chars-per-pixel */
"32 32 182 2 ",
"   c #071821",
".  c #091B23",
"X  c #0E2226",
"o  c #112527",
"O  c #13262A",
"+  c #132C2C",
"@  c #182C2F",
"#  c #15312F",
"$  c #1F372F",
"%  c #1F382F",
"&  c #163431",
"*  c #183531",
"=  c #1D3C34",
"-  c #233D33",
";  c #213435",
":  c #1F433A",
">  c #264234",
",  c #274738",
"<  c #2B453A",
"1  c #2D4C3A",
"2  c #2B4736",
"3  c #314F3C",
"4  c #2C503D",
"5  c #35563E",
"6  c #2A4F40",
"7  c #304342",
"8  c #374C46",
"9  c #384D46",
"0  c #275545",
"q  c #295240",
"w  c #2C5A46",
"e  c #2C5B49",
"r  c #325742",
"t  c #355A42",
"y  c #385C43",
"u  c #3D524D",
"i  c #3C594F",
"p  c #3C5A50",
"a  c #2F614B",
"s  c #376046",
"d  c #3F6142",
"f  c #34654B",
"g  c #3C644F",
"h  c #35684D",
"j  c #3A6C4E",
"k  c #326A51",
"l  c #3A6E52",
"z  c #377052",
"x  c #3C7353",
"c  c #3F7855",
"v  c #42564F",
"b  c #40584E",
"n  c #435B51",
"m  c #426A47",
"M  c #486E4A",
"N  c #426848",
"B  c #43724F",
"V  c #4F774B",
"C  c #517C4E",
"Z  c #466252",
"A  c #496251",
"S  c #4E6C55",
"D  c #4D695C",
"F  c #546F5D",
"G  c #506C54",
"H  c #457352",
"J  c #437C56",
"K  c #4B7C52",
"L  c #4F7159",
"P  c #4F7B5C",
"I  c #45765A",
"U  c #537157",
"Y  c #55705F",
"T  c #547D50",
"R  c #596D63",
"E  c #487760",
"W  c #4B7A61",
"Q  c #517D60",
"!  c #5E7668",
"~  c #527762",
"^  c #607767",
"/  c #647F66",
"(  c #667A6D",
")  c #4E8055",
"_  c #4B835C",
"`  c #4F885A",
"'  c #558252",
"]  c #5C8555",
"[  c #568957",
"{  c #5A8B57",
"}  c #528659",
"|  c #548D5B",
" . c #5C8D5A",
".. c #5B945D",
"X. c #5E985F",
"o. c #659659",
"O. c #659A5E",
"+. c #699A5C",
"@. c #6EA15E",
"#. c #70A35F",
"$. c #578B67",
"%. c #598B67",
"&. c #56886A",
"*. c #5E846C",
"=. c #5F9860",
"-. c #5F916B",
";. c #5C8C70",
":. c #69856F",
">. c #648A64",
",. c #649D61",
"<. c #6B9C64",
"1. c #61936D",
"2. c #6D9B6A",
"3. c #74966E",
"4. c #769875",
"5. c #698974",
"6. c #67A062",
"7. c #6CA462",
"8. c #6FA965",
"9. c #6BA268",
"0. c #72A563",
"q. c #72AB65",
"w. c #77A06C",
"e. c #79A36E",
"r. c #7DAA6E",
"t. c #76B067",
"y. c #7EB567",
"u. c #7CB468",
"i. c #7FB969",
"p. c #7FAB71",
"a. c #7EA579",
"s. c #81BA6A",
"d. c #85AE77",
"f. c #82A67A",
"g. c #83B476",
"h. c #81B478",
"j. c #90BF7D",
"k. c #86C06C",
"l. c #8CC372",
"z. c #8FC07A",
"x. c #97CB7F",
"c. c #7CA082",
"v. c #829884",
"b. c #89A087",
"n. c #86A089",
"m. c #89A28A",
"M. c #8EAC8B",
"N. c #85A485",
"B. c #97BA8B",
"V. c #91A790",
"C. c #92A890",
"Z. c #8FB492",
"A. c #97B390",
"S. c #99B591",
"D. c #92BA93",
"F. c #9EBC94",
"G. c #98BF99",
"H. c #A3BC9E",
"J. c #9CCE85",
"K. c #98C388",
"L. c #A0CC8D",
"P. c #A1C096",
"I. c #A5C49C",
"U. c #A3C99D",
"Y. c #A9C99F",
"T. c #ADD997",
"R. c #B1D59F",
"E. c #ABC2A4",
"W. c #B6CDAD",
"Q. c #AFD0AB",
"!. c #B9DFA4",
"~. c #B4D4AF",
"^. c #B4D4A6",
"/. c #BED9B0",
"(. c #B9E0A4",
"). c #C3DEB4",
"_. c #C9EAB6",
"`. c #CFEEBC",
"'. c #C2E3B1",
"]. c #D2EAC4",
"[. c #DAF5C9",
"{. c #E0F8CF",
/* pixels */
"k.k.k.k.k.k.k.s.q.K = X X X X o o o o o + 2 V @.t.8.J k k J q.k.",
"k.s.q.8.q.t.s.q. .B t 1 1 1 1 2 1 1 1 1 3 5 m [ ,.6.-.;.;.-.9.8.",
"k.q.| _ J | q.o.r y ] @.+.+.+.o.+.+.+.+.+.' 5 5 x $.D.~.~.G.1._ ",
"q.9.1.;.;.-.,.) 5 V 0.k.k.k.s.l.k.k.k.s.k.#.m 5 r I D._._.U.&.k ",
"J 1.P.~.~.D.Q j  .#.s.k.k.k.k.k.k.k.s.k.k.s.#.T 4 1 2.J.J.p._ k ",
"k &.U.`._.I.>.P 0.k.k.k.k.k.k.k.s.s.@.o.o.@.s.+.1 : { i.q.6.` _ ",
"k _ p.J.J.K.M.4.0.k.k.k.k.k.s.k.k.@.d - > d @.+.4 = { t.| ` 6.8.",
"J ` ,.t.i.z.B.a.t.l.x.J.J.x.l.s.@.] A v v G #.+.1 = K X.c _ 8.k.",
"8.6.` $.t.s.r.<.q.x.(._._.R.x.#.N A v.E.E.P.z.+.1 * f c k J t.s.",
"k.8.J c X.#.@.o.q.J._.{.{._.J.0.G ( ~.].W.I.L.e.1 * 0 k J | t.l.",
"k.8._ z c ` X.o.q.J._.{.{._.J.z.H.W.].W.( ^ E.F.i & 0 J =.t.s.k.",
"k.t.| c j x ) { #.x.(.`.[._.J.J._.{.{.E.u u E.E.n & 0 J 8.k.k.k.",
"k.s.t.X.c k a B q.l.x.T.`._.J.J._.{.{.E.v u E.E.p * 0 _ q.k.k.k.",
"k.k.k.t.| x w h [ @.s.x.!.!.x.x.!.`.[.W.( R V.v.p : h | q.k.k.k.",
"k.k.k.s.t.X.z a 1 m #.l.x.x.l.l.x.T.`.].~.C.! p e h ..q.s.k.k.k.",
"k.k.k.k.k.t.| h = > C o.o.o.o.o.+.3.S.E.E.M.Z 1 j ` ,.8.8.t.s.k.",
"k.k.k.k.k.i.8.[ 5 % - > > > > > > 2 9 v A U }  .,.,.` J J ..t.k.",
"k.i.t.8.8.q.u.o.5 - - > > $ o     O < 9 < y o.u.q.9.1.;.;.1.9.q.",
"k.t.| _ J | 7.' > 2 T o.o.V $     7 v.v.Z s O.q. .1.G.~.Q.P.-.J ",
"8.9.1.;.;.%.} s # 2 @.k.s.@.d > > A m.C.D g  .X.c &.U._._.E.&.k ",
"J 1.G.~.E.f.9 # X > o.k.s.s.#.+.o.] n v v A ~ I z _ p.J.J.p._ k ",
"k &.U.'.^.f.R i 1 5 ' #.s.k.s.l.x.3.< o ; v ~ E z J t.i.t.6.| J ",
"k _ h.j.f.f.H.F.w.' 5 d #.s.k.x.'.F.9 . . - R :.W _ 8.t.| | 6.8.",
"J ` 6.+.T f.).'.d.' 5 5 ' o.o.w.B.v.A 2 9 n >.4.W c ,.,.c J 8.k.",
"t.,.| ) C 3./.W.F 5 ' ' 5 > > 2 9 n ] w.A.B.d.2.E z c c k J t.k.",
"k.8.J z H >.A.v.7 = V V $     X % N d.J.Y.H.g.6.c k k k c | t.k.",
"k.8.J k j I S 9 + o % % o     % V p.^.Y.:.U ,.7.J k k c ,.t.s.k.",
"k.t.| J k f 5 > * # + # O + + , C e.F.m.g 4 ` =.c k k J 8.k.k.k.",
"k.k.t.X.c h h f 0 0 0 0 0 0 0 q 1 5 Z L h a x c z k k J 8.k.k.k.",
"k.k.k.t.| c k k k k z z k k k w : = 1 N _ c z k k z c | t.k.k.k.",
"k.k.k.s.t.X.c k k x ` | J z k k e f B [ ,.=.x k k c ,.t.s.k.k.k.",
"k.k.k.k.k.8.J k k J 6.6._ z l l z c ` =.t.8.J k k J 8.k.k.k.k.k."
};
