/* XPM */
static char *result[] = {
/* columns rows colors chars-per-pixel */
"32 32 216 2 ",
"   c #071821",
".  c #071921",
"X  c #081922",
"o  c #081A22",
"O  c #091C23",
"+  c #091C24",
"@  c #091D24",
"#  c #0A1D24",
"$  c #0A1E25",
"%  c #0B1F25",
"&  c #0B2026",
"*  c #0C2126",
"=  c #0C2227",
"-  c #0F2226",
";  c #0F2326",
":  c #0E2629",
">  c #0F282A",
",  c #112527",
"<  c #15262C",
"1  c #15272D",
"2  c #10292B",
"3  c #102A2B",
"4  c #102A2C",
"5  c #112B2C",
"6  c #112C2D",
"7  c #122E2E",
"8  c #182A2F",
"9  c #192A2F",
"0  c #1F372F",
"q  c #1F382F",
"w  c #1F3134",
"e  c #193B35",
"r  c #203930",
"t  c #203A30",
"y  c #223C31",
"u  c #274234",
"i  c #284334",
"p  c #284435",
"a  c #294535",
"s  c #2A4635",
"d  c #284536",
"f  c #294636",
"g  c #294637",
"h  c #284737",
"j  c #294737",
"k  c #2A4636",
"l  c #2A4736",
"z  c #2B4736",
"x  c #2B4836",
"c  c #2A4837",
"v  c #2B4937",
"b  c #224438",
"n  c #224539",
"m  c #274738",
"M  c #2C453A",
"N  c #2E473B",
"B  c #244A3C",
"V  c #224C3F",
"C  c #294838",
"Z  c #2F493C",
"A  c #304A3C",
"S  c #37573D",
"D  c #234F41",
"F  c #304242",
"G  c #304342",
"H  c #334544",
"J  c #334644",
"K  c #364947",
"L  c #374C46",
"P  c #384C46",
"I  c #265040",
"U  c #245143",
"Y  c #255243",
"T  c #255343",
"R  c #255344",
"E  c #265444",
"W  c #285847",
"Q  c #285947",
"!  c #3C524A",
"~  c #3D524A",
"^  c #3D504C",
"/  c #3D504D",
"(  c #3F524E",
")  c #3F544F",
"_  c #2D634D",
"`  c #3E6142",
"'  c #3F6142",
"]  c #3F6242",
"[  c #306850",
"{  c #40564D",
"}  c #40544F",
"|  c #415550",
" . c #425651",
".. c #435651",
"X. c #445752",
"o. c #455853",
"O. c #465953",
"+. c #475A54",
"@. c #4A5D57",
"#. c #426644",
"$. c #466B46",
"%. c #446548",
"&. c #4E764B",
"*. c #4E774B",
"=. c #4F774B",
"-. c #517A4D",
";. c #527C4E",
":. c #476150",
">. c #486150",
",. c #486250",
"<. c #4F6C54",
"1. c #506C54",
"2. c #556F5A",
"3. c #556B61",
"4. c #596D63",
"5. c #607767",
"6. c #62766A",
"7. c #63776B",
"8. c #667A6D",
"9. c #568150",
"0. c #578251",
"q. c #588451",
"w. c #5C8456",
"e. c #5C8556",
"r. c #618F56",
"t. c #649358",
"y. c #669659",
"u. c #67975A",
"i. c #68985A",
"p. c #68995A",
"a. c #68995B",
"s. c #69995B",
"d. c #699A5B",
"f. c #6A9A5B",
"g. c #6A9B5B",
"h. c #6A9B5C",
"j. c #6EA05E",
"k. c #6EA15E",
"l. c #70A35F",
"z. c #718874",
"x. c #72A660",
"c. c #74A464",
"v. c #77A06B",
"b. c #77A06C",
"n. c #78A26D",
"m. c #7AA46E",
"M. c #7BB165",
"N. c #7BB266",
"B. c #7CB366",
"V. c #7DB466",
"C. c #7DB467",
"Z. c #7EB567",
"A. c #7EB667",
"S. c #7FB668",
"D. c #7FB768",
"F. c #7FAB71",
"G. c #80B868",
"H. c #85AE77",
"J. c #86C06C",
"K. c #8CC372",
"L. c #8CC472",
"P. c #8FC07A",
"I. c #97CA7F",
"U. c #97CB7F",
"Y. c #819683",
"T. c #849985",
"R. c #89A087",
"E. c #89A088",
"W. c #89A188",
"Q. c #91A690",
"!. c #91A790",
"~. c #92A891",
"^. c #93A991",
"/. c #94A992",
"(. c #99AF96",
"). c #98B590",
"_. c #99B591",
"`. c #9DBA94",
"'. c #9EBB95",
"]. c #9BB298",
"[. c #9EB49A",
"{. c #A1BE97",
"}. c #A0B69C",
"|. c #9CCE85",
" X c #9DCE85",
".X c #A0CB8C",
"XX c #A2CE8E",
"oX c #A1C096",
"OX c #A6C39C",
"+X c #A7C49C",
"@X c #ADD897",
"#X c #ADD997",
"$X c #B1D59F",
"%X c #AAC0A3",
"&X c #AAC0A4",
"*X c #ACC2A5",
"=X c #AFCDA2",
"-X c #AFCDA3",
";X c #AFC6A8",
":X c #B0C6A8",
">X c #B0C7A9",
",X c #B2CAA8",
"<X c #B7CEAE",
"1X c #B9DFA4",
"2X c #B9E0A4",
"3X c #C2DFB2",
"4X c #C4DBB8",
"5X c #C5DCB9",
"6X c #C9EAB6",
"7X c #CAEAB6",
"8X c #CFEDBC",
"9X c #CFEEBC",
"0X c #D2EAC4",
"qX c #DAF5C9",
"wX c #E0F8CF",
"eX c None",
/* pixels */
"eXeXeXeXeXeXeXeXeXeX&                     : V eXeXeXeXeXeXeXeXeX",
"eXeXeXeXeXeXeXeXeXb g l s a p p a a a a k C B eXeXeXeXeXeXeXeXeX",
"eXeXeXeXeXeXeXeX= c q.f.d.a.i.i.i.p.p.s.d.9.h 6 eXeXeXeXeXeXeXeX",
"eXeXeXeXeXeXeXeXv $.x.J.J.J.J.J.J.J.J.J.J.l.#.d n eXeXeXeXeXeXeX",
"eXeXeXeXeXeXeXeXt.x.G.J.J.J.J.J.J.J.J.J.J.S.l.0.j = eXeXeXeXeXeX",
"eXeXeXeXeXeXeXeXM.J.J.J.J.J.J.J.J.Z.j.y.y.k.A.h.x   eXeXeXeXeXeX",
"eXeXeXeXeXeXeXeXN.J.J.J.J.J.J.J.J.j.` u u ] k.g.z   eXeXeXeXeXeX",
"eXeXeXeXeXeXeXeXB.L.U. X XU.K.Z.j.w.>./ / 1.c.d.l   eXeXeXeXeXeX",
"eXeXeXeXeXeXeXeXV.U.2X7X7X1XI.j.` ,.W.&X&XoXP.d.k X eXeXeXeXeXeX",
"eXeXeXeXeXeXeXeXC. X7XwXwX6X|.c.<.8.<X0X<XOX.Xm.A o eXeXeXeXeXeX",
"eXeXeXeXeXeXeXeXC. X7XwXwX6X|.P.oX<X0X<X8.5.+X`.! o eXeXeXeXeXeX",
"eXeXeXeXeXeXeXeXB.U.1X8XqX6X|. X7XwXwX%X^ / &X;X..o eXeXeXeXeXeX",
"eXeXeXeXeXeXeXeXM.K.I.@X9X6X|. X7XwXwX%X^ / &X>XX.o eXeXeXeXeXeX",
"eXeXeXeXeXeXeXeXr.l.D.U.1X1XI.U.2X8XqX<X8.4./.~.} % eXeXeXeXeXeX",
"eXeXeXeXeXeXeXeXf #.l.K.I.I.K.L.I.#X9X0X<X/.6.| eXeXeXeXeXeXeXeX",
"eXeXeXeXeXeXeXeX@ y -.y.y.y.y.y.y.b._.*X:X^.| = eXeXeXeXeXeXeXeX",
"eXeXeXeXeXeXeXeXO , r u u u u u u M P ( X.| eXeXeXeXeXeXeXeXeXeX",
"eXeXeXeXeXeXeXeXO , t u u q ;     < F H 8 + eXeXeXeXeXeXeXeXeXeX",
"eXeXeXeXeXeXeXeX$ y -.y.y.*.0     F Y.Q.o.eXeXeXeXeXeXeXeXeXeXeX",
"eXeXeXeXeXeXeX7 @ a a.J.J.j.] u u ,.E.!.O.eXeXeXeXeXeXeXeXeXeXeX",
"eXeXeXeXeXeX* # X i u.J.J.A.k.y.y.e.:.H 9 o eXeXeXeXeXeXeXeXeXeX",
"eXeXeXeXeXeX .~ N S 9.j.Z.J.J.L.U.b.M     o eXeXeXeXeXeXeXeXeXeX",
"eXeXeXeXeXeX}.'.n.9.S ' k.J.J.U.2X_.P     . o eXeXeXeXeXeXeXeXeX",
"eXeXeXeXeX8.5X3XH.9.S S 9.y.y.b._.R.:.M L K w eXeXeXeXeXeXeXeXeX",
"eXeXeXeXeX7.4X,X2.S 9.9.S u u M L :.e.v.).[.eXeXeXeXeXeXeXeXeXeX",
"eXeXeXeXeX3.].T.G q =.&.0     ; q %.F.XX=X:XeXeXeXeXeXeXeXeXeXeX",
"eXeXeXeXeXeX) J 1 ; q 0 -     q =.F.$X-Xz.@.eXeXeXeXeXeXeXeXeXeX",
"eXeXeXeXeXeX& O O * > 5 5 6 6 m ;.m.{.(.+.eXeXeXeXeXeXeXeXeXeXeX",
"eXeXeXeXeXeXeXeXeXeXD T R E E I m Z { O.eXeXeXeXeXeXeXeXeXeXeXeX",
"eXeXeXeXeXeXeXeXeXeX[ [ [ [ [ Q e 4 2 3 eXeXeXeXeXeXeXeXeXeXeXeX",
"eXeXeXeXeXeXeXeXeXeXeXeX[ [ [ _ W Y U eXeXeXeXeXeXeXeXeXeXeXeXeX",
"eXeXeXeXeXeXeXeXeXeXeXeX[ [ [ [ [ [ [ eXeXeXeXeXeXeXeXeXeXeXeXeX"
};
