/* XPM */
static char *result[] = {
/* columns rows colors chars-per-pixel */
"32 32 181 2 ",
"   c #071821",
".  c #071922",
"X  c #081922",
"o  c #081A22",
"O  c #091C23",
"+  c #0A1D24",
"@  c #102426",
"#  c #112527",
"$  c #132828",
"%  c #17282E",
"&  c #122D2D",
"*  c #122E2E",
"=  c #13302F",
"-  c #203930",
";  c #213A30",
":  c #223B31",
">  c #243E32",
",  c #274234",
"<  c #284334",
"1  c #284435",
"2  c #294535",
"3  c #294736",
"4  c #2A4636",
"5  c #2B4836",
"6  c #2B4837",
"7  c #2D4A37",
"8  c #2C453A",
"9  c #2C463A",
"0  c #2D4B38",
"q  c #2F4E39",
"w  c #314F3A",
"e  c #30493C",
"r  c #31503A",
"t  c #32503A",
"y  c #33533B",
"u  c #32523C",
"i  c #34533C",
"p  c #3A5B3F",
"a  c #324443",
"s  c #384C46",
"d  c #384D46",
"f  c #394E47",
"g  c #3C4F4B",
"h  c #3C4F4C",
"j  c #265545",
"k  c #275645",
"l  c #275746",
"z  c #375241",
"x  c #3D504C",
"c  c #3D504D",
"v  c #3E504D",
"b  c #3E514D",
"n  c #3F534E",
"m  c #3A564D",
"M  c #3E6041",
"N  c #3E6142",
"B  c #3F6242",
"V  c #33624F",
"C  c #386753",
"Z  c #306850",
"A  c #415450",
"S  c #485E53",
"D  c #4A5E57",
"F  c #436845",
"G  c #466B46",
"H  c #4D744A",
"J  c #4F774C",
"K  c #50794C",
"L  c #537D4E",
"P  c #476150",
"I  c #486150",
"U  c #486250",
"Y  c #4F6B54",
"T  c #4F6C54",
"R  c #4E625A",
"E  c #486559",
"W  c #596D63",
"Q  c #4E7E65",
"!  c #607666",
"~  c #63776B",
"^  c #637C68",
"/  c #667A6D",
"(  c #578150",
")  c #5A8652",
"_  c #5C8456",
"`  c #5C8556",
"'  c #5D8A54",
"]  c #5F8D55",
"[  c #639257",
"{  c #669659",
"}  c #679659",
"|  c #67975A",
" . c #68985A",
".. c #68995A",
"X. c #699A5B",
"o. c #6A9B5C",
"O. c #6A9C5C",
"+. c #6C9D5C",
"@. c #6C9D5D",
"#. c #6D9F5D",
"$. c #6EA05E",
"%. c #6EA15E",
"&. c #528268",
"*. c #5C8C70",
"=. c #6C8072",
"-. c #73A364",
";. c #74A464",
":. c #74A861",
">. c #76AA62",
",. c #76AB62",
"<. c #76AB63",
"1. c #77AC63",
"2. c #77AD63",
"3. c #78AE64",
"4. c #79AF64",
"5. c #77A06C",
"6. c #77A16C",
"7. c #7AA46E",
"8. c #7AB065",
"9. c #7BB165",
"0. c #7DB467",
"q. c #7EB567",
"w. c #7EB667",
"e. c #7EB668",
"r. c #7FB668",
"t. c #7FB768",
"y. c #81B969",
"u. c #81BA69",
"i. c #80AB72",
"p. c #8FBE7C",
"a. c #86C06C",
"s. c #8CC372",
"d. c #8CC472",
"f. c #8FC07A",
"g. c #97CA7F",
"h. c #97CB7F",
"j. c #89A087",
"k. c #89A188",
"l. c #8CA28C",
"z. c #8BAA8E",
"x. c #96AC94",
"c. c #97AD94",
"v. c #98AE96",
"b. c #99B591",
"n. c #99B691",
"m. c #9AB792",
"M. c #96B698",
"N. c #A8BFA2",
"B. c #A9BFA3",
"V. c #95C580",
"C. c #9CCE85",
"Z. c #9DCE85",
"A. c #A0CA8D",
"S. c #A1C096",
"D. c #A6C39B",
"F. c #A6C49B",
"G. c #A6C39C",
"H. c #ADD897",
"J. c #ADD997",
"K. c #AAC0A3",
"L. c #AAC0A4",
"P. c #ABC1A4",
"I. c #AEC4A7",
"U. c #B0C7A9",
"Y. c #B7CEAE",
"T. c #B4D3A6",
"R. c #B9DFA4",
"E. c #B4D4AF",
"W. c #BFDFAE",
"Q. c #BFD6B4",
"!. c #B9E0A4",
"~. c #C4DBB8",
"^. c #C9EAB6",
"/. c #CAEAB6",
"(. c #CFEDBC",
"). c #CFEEBC",
"_. c #D2EAC4",
"`. c #D4ECC6",
"'. c #DAF5C9",
"]. c #E0F8CF",
"[. c None",
/* pixels */
"[.[.[.[.[.[.[.[.[.[.o                     + [.[.[.[.[.[.[.[.[.[.",
"[.[.[.[.[.[.[.[.[.[.0 7 2 , , , , , , < 4 3 [.[.[.[.[.[.[.[.[.[.",
"[.[.[.[.[.[.[.[.[.r ] +...} { { { { { | X.' u [.[.[.[.[.[.[.[.[.",
"[.[.[.[.[.[.[.[.y J 1.a.a.a.a.a.a.a.a.a.a.2.K i [.[.[.[.[.[.[.[.",
"[.[.[.[.[.[.[.[.O.1.u.a.a.a.a.a.a.a.a.a.a.u.1.@.[.[.[.[.[.[.[.[.",
"[.[.[.[.[.[.[.[.0.a.a.a.a.a.a.a.a.q.$.{ { $.q.e.[.[.[.[.[.[.[.[.",
"[.[.[.[.[.[.[.[.w.a.a.a.a.a.a.a.a.$.N , , M #.w.[.[.[.[.[.[.[.[.",
"[.[.[.[.[.[.[.[.r.d.h.Z.Z.h.s.q.$._ I c c Y -.r.[.[.[.[.[.[.[.[.",
"[.[.[.[.[.[.[.[.t.h.!././.R.g.$.N U k.L.L.S.f.t.[.[.[.[.[.[.[.[.",
"[.[.[.[.[.[.[.[.r.Z./.].].^.C.;.T / Y._.Y.G.A.V.[.[.[.[.[.[.[.[.",
"[.[.[.[.[.[.[.[.w.Z./.].].^.C.f.S.Y._.Y./ ! D.W.[.[.[.[.[.[.[.[.",
"[.[.[.[.[.[.[.[.q.h.R.(.'.^.C.Z./.].].K.x h B.`.[.[.[.[.[.[.[.[.",
"[.[.[.[.[.[.[.[.q.s.g.H.).^.C.Z./.].].K.x g N.`.[.[.[.[.[.[.[.[.",
"[.[.[.[.[.[.[.[.o.>.y.h.R.R.g.h.!.(.'.Y./ W c.U.[.[.[.[.[.[.[.[.",
"[.[.[.[.[.[.[.[.t H ,.s.g.g.s.d.g.J.)._.Y.v.=.R [.[.[.[.[.[.[.[.",
"[.[.[.[.[.[.[.[.[.q ' o. .{ { { { 5.b.P.I.x.D [.[.[.[.[.[.[.[.[.",
"[.[.[.[.[.[.[.[.[.[.6 5 1 , , , , 8 s b A n [.[.[.[.[.[.[.[.[.[.",
"[.[.[.[.[.[.[.[.[.[.X # ; , , 9 d c c a % O [.[.[.[.[.[.[.[.[.[.",
"[.[.[.[.[.[.[.[.[.[.[.2 ( { { 6.n.L.L.l.v o [.[.[.[.[.[.[.[.[.[.",
"[.[.[.[.[.[.[.[.[.[.[.p :.a.a.f.S.Y._.Q.W [.[.[.[.[.[.[.[.[.[.[.",
"[.[.[.[.[.[.[.[.[.[.[.N <.a.a.;.T / Y.~.~ [.[.[.[.[.[.[.[.[.[.[.",
"[.[.[.[.[.[.[.[.[.[.[.F 3.d.h.5.8 d n.T.^ [.[.[.[.[.[.[.[.[.[.[.",
"[.[.[.[.[.[.[.[.[.[.[.[.8.h.!.b.s 9 6.p.[.[.[.[.[.[.[.[.[.[.[.[.",
"[.[.[.[.[.[.[.[.[.[.[.[.[ 7.m.j.P B %.9.[.[.[.[.[.[.[.[.[.[.[.[.",
"[.[.[.[.[.[.[.[.[.[.[.[.4 e f P ` %.w.4.G [.[.[.[.[.[.[.[.[.[.[.",
"[.[.[.[.[.[.[.[.[.[.[.[.o @ - B %.q.$.) w [.[.[.[.[.[.[.[.[.[.[.",
"[.[.[.[.[.[.[.[.[.[.[.[.. > L %.w.$.N : $ [.[.[.[.[.[.[.[.[.[.[.",
"[.[.[.[.[.[.[.[.[.[.[.[.  z i.Z.Z.5.8     [.[.[.[.[.[.[.[.[.[.[.",
"[.[.[.[.[.[.[.[.[.[.[.[.  S F././.b.s     X [.[.[.[.[.[.[.[.[.[.",
"[.[.[.[.[.[.[.[.[.[.[.[.* E M.E.E.z.m & * = [.[.[.[.[.[.[.[.[.[.",
"[.[.[.[.[.[.[.[.[.[.[.[.k C &.*.*.Q V j k l [.[.[.[.[.[.[.[.[.[.",
"[.[.[.[.[.[.[.[.[.[.[.[.Z Z Z Z Z Z Z Z Z Z [.[.[.[.[.[.[.[.[.[."
};
