/* XPM */
static char *result[] = {
/* columns rows colors chars-per-pixel */
"32 32 201 2 ",
"   c #071821",
".  c #081922",
"X  c #081B23",
"o  c #0B2126",
"O  c #0D2428",
"+  c #0E2629",
"@  c #0F292B",
"#  c #14262C",
"$  c #15262C",
"%  c #142928",
"&  c #122D2D",
"*  c #1A2C31",
"=  c #153331",
"-  c #1E3033",
";  c #1F3134",
":  c #183A35",
">  c #203135",
",  c #223C31",
"<  c #233C31",
"1  c #264133",
"2  c #274234",
"3  c #274334",
"4  c #284334",
"5  c #284434",
"6  c #284435",
"7  c #294435",
"8  c #294535",
"9  c #2A4636",
"0  c #2B4736",
"q  c #2B4836",
"w  c #2B4837",
"e  c #2C4837",
"r  c #2C4A37",
"t  c #274738",
"y  c #2C453A",
"u  c #2C463A",
"i  c #254E3F",
"p  c #2E483B",
"a  c #304E39",
"s  c #304F3A",
"d  c #31503A",
"f  c #32513A",
"g  c #33523B",
"h  c #37573D",
"j  c #2F4141",
"k  c #2F4241",
"l  c #224C40",
"z  c #304242",
"x  c #334544",
"c  c #344745",
"v  c #364846",
"b  c #374947",
"n  c #384C46",
"m  c #384D46",
"M  c #374A48",
"N  c #3B4E4B",
"B  c #3C4E4B",
"V  c #245042",
"C  c #265545",
"Z  c #285746",
"A  c #285947",
"S  c #375242",
"D  c #3B5149",
"F  c #3C504A",
"G  c #3D504C",
"H  c #3D504D",
"J  c #3D514D",
"K  c #3F534F",
"L  c #2D624C",
"P  c #2D634D",
"I  c #3D6041",
"U  c #3E6142",
"Y  c #3F6142",
"T  c #3F6242",
"R  c #306850",
"E  c #425550",
"W  c #435551",
"Q  c #475A54",
"!  c #4C5F58",
"~  c #416443",
"^  c #466C46",
"/  c #4D754A",
"(  c #537E4F",
")  c #557F4F",
"_  c #486150",
"`  c #486250",
"'  c #4F6B54",
"]  c #4F6C54",
"[  c #55685F",
"{  c #556A60",
"}  c #596D63",
"|  c #5F7566",
" . c #667A6D",
".. c #667D6C",
"X. c #6A7E70",
"o. c #568150",
"O. c #598552",
"+. c #5B8753",
"@. c #5C8456",
"#. c #5D8A54",
"$. c #5E8B54",
"%. c #669559",
"&. c #669659",
"*. c #67975A",
"=. c #67985A",
"-. c #68985A",
";. c #68995A",
":. c #69995B",
">. c #6A9B5B",
",. c #6A9C5C",
"<. c #6B9C5C",
"1. c #6D9E5D",
"2. c #6D9F5D",
"3. c #6EA05E",
"4. c #6EA15E",
"5. c #6FA25F",
"6. c #70A35F",
"7. c #73A661",
"8. c #73A364",
"9. c #74A464",
"0. c #75A962",
"q. c #76AA62",
"w. c #76AB63",
"e. c #77A06C",
"r. c #77A16C",
"t. c #79A36D",
"y. c #7AB065",
"u. c #7CB266",
"i. c #7CB366",
"p. c #7DB467",
"a. c #7EB567",
"s. c #7EB667",
"d. c #7FB668",
"f. c #80B868",
"g. c #80B869",
"h. c #81B969",
"j. c #81BA69",
"k. c #82BB6A",
"l. c #83BC6A",
"z. c #84BD6B",
"x. c #84BE6B",
"c. c #82AC74",
"v. c #86C06C",
"b. c #8CC372",
"n. c #8CC472",
"m. c #8CC473",
"M. c #8FC07A",
"N. c #97CA7F",
"B. c #97CB7F",
"V. c #98CB7F",
"C. c #7F9482",
"Z. c #809582",
"A. c #819683",
"S. c #839884",
"D. c #89A188",
"F. c #8EA48E",
"G. c #8FA58E",
"H. c #92A891",
"J. c #96AB93",
"K. c #98AD95",
"L. c #98AE95",
"P. c #99B591",
"I. c #99B691",
"U. c #9DB994",
"Y. c #9EBA95",
"T. c #9BB198",
"R. c #9CB299",
"E. c #A6BCA0",
"W. c #A8BEA2",
"Q. c #96C580",
"!. c #99CC81",
"~. c #9CCE85",
"^. c #9DCE85",
"/. c #A0CA8D",
"(. c #A1CC8D",
"). c #A1C096",
"_. c #A5C29B",
"`. c #A7C39C",
"'. c #AAC79F",
"]. c #ADD897",
"[. c #ADD997",
"{. c #AAC0A3",
"}. c #AAC0A4",
"|. c #AFC5A8",
" X c #B7CEAE",
".X c #B9DFA4",
"XX c #BFD6B4",
"oX c #B9E0A4",
"OX c #BBE1A6",
"+X c #C1E1B0",
"@X c #C9EAB6",
"#X c #CAEAB6",
"$X c #CFEDBC",
"%X c #CFEEBC",
"&X c #D2EAC4",
"*X c #D5EDC6",
"=X c #D7EEC7",
"-X c #DAF4C9",
";X c #DAF5C9",
":X c #E0F8CF",
">X c None",
/* pixels */
">X>X>X>X>X>X>X>X>X>X>X>X                      X >X>X>X>X>X>X>X>X",
">X>X>X>X>X>X>X>X>X>X>X>X8 0 8 7 6 5 4 4 4 8 e w >X>X>X>X>X>X>X>X",
">X>X>X>X>X>X>X>X>X>X>X9 O.>.:.-.-.=.*.*.*.;.<.$.s >X>X>X>X>X>X>X",
">X>X>X>X>X>X>X>X>X>Xr ^ 7.v.v.v.v.v.v.v.v.v.v.w./ d >X>X>X>X>X>X",
">X>X>X>X>X>X>X>X>X>X%.7.f.v.v.v.v.v.v.v.v.v.v.h.q.1.>X>X>X>X>X>X",
">X>X>X>X>X>X>X>X>X>Xp.v.v.v.v.v.v.v.v.a.3.&.&.3.a.k.>X>X>X>X>X>X",
">X>X>X>X>X>X>X>X>X>Xp.v.v.v.v.v.v.v.v.3.U 2 2 I 2.k.>X>X>X>X>X>X",
">X>X>X>X>X>X>X>X>X>Xp.n.B.^.^.B.b.a.3.@._ H H ' 8.j.>X>X>X>X>X>X",
">X>X>X>X>X>X>X>X>X>Xa.B.oX#X#X.XN.3.U ` D.}.}.).M.g.>X>X>X>X>X>X",
">X>X>X>X>X>X>X>X>X>Xs.^.#X:X:X@X~.9.]  . X&X X`./.Q.>X>X>X>X>X>X",
">X>X>X>X>X>X>X>X>X>Xa.^.#X:X:X@X~.M.). X&X X .| _.+X>X>X>X>X>X>X",
">X>X>X>X>X>X>X>X>X>Xi.B.oX$X;X@X~.^.#X:X:X{.G B W.=X>X>X>X>X>X>X",
">X>X>X>X>X>X>X>X>X>Xy.b.N.[.%X@X~.^.#X:X:X{.G N W.*X>X>X>X>X>X>X",
">X>X>X>X>X>X>X>X>Xf +.3.a.B.oX.XN.B.oX$X;X X .} J.|.>X>X>X>X>X>X",
">X>X>X>X>X>X>X>X>X% , Y 4.b.N.N.b.n.N.[.%X&X XK.X.! >X>X>X>X>X>X",
">X>X>X>X>X>X>X>Xg a 8 h o.&.&.&.&.&.&.e.P.{.{.G.W >X>X>X>X>X>X>X",
">X>X>X>X>X>X>X>X-.3.:.o.h 2 2 2 2 2 2 y n G G b > >X>X>X>X>X>X>X",
">X>X>X>X>X>X>X#.i.v.v.3.T 2 2 u m H H z $ # j M >X>X>X>X>X>X>X>X",
">X>X>X>X>X>X0.u.l.v.v.s.4.&.&.r.I.}.}.A.z j C.R.>X>X>X>X>X>X>X>X",
">X>X>X>X>X>Xz.m.V.M.9.3.a.v.v.B..X$X-X{.G j S.E.>X>X>X>X>X>X>X>X",
">X>X>X>X>X>Xx.!.OX).] Y 4.v.v.b.N.].%X{.G $ x E >X>X>X>X>X>X>X>X",
">X>X>X>X>X>X6.c.Y.A.z 2 &.v.v.a.3.e.P.A.z     . >X>X>X>X>X>X>X>X",
">X>X>X>X>X>X>XS F z $ 2 &.v.v.3.U y n z #       >X>X>X>X>X>X>X>X",
">X>X>X>X>X>X>X- v j # 2 &.v.v.3.T 2 2 u m c * >X>X>X>X>X>X>X>X>X",
">X>X>X>X>X>X>X>XT.Z.k 3 *.v.v.s.4.&.&.r.I.H.Q >X>X>X>X>X>X>X>X>X",
">X>X>X>X>X>X>X>XXXL.b < ) ,.:.5.d.n.B.(.'.T.{ >X>X>X>X>X>X>X>X>X",
">X>X>X>X>X>X>X>X>X[ ; % 1 q 8 ~ 5.B.oX'...K >X>X>X>X>X>X>X>X>X>X",
">X>X>X>X>X>X>X>X>X>X>X>XO + @ t ( t.U.F.J o >X>X>X>X>X>X>X>X>X>X",
">X>X>X>X>X>X>X>X>X>X>X>X>Xl V i t p D J >X>X>X>X>X>X>X>X>X>X>X>X",
">X>X>X>X>X>X>X>X>X>X>X>X>X>XR Z : & & = >X>X>X>X>X>X>X>X>X>X>X>X",
">X>X>X>X>X>X>X>X>X>X>X>X>X>XR P A C C A L R >X>X>X>X>X>X>X>X>X>X",
">X>X>X>X>X>X>X>X>X>X>X>X>X>XR R R R R R R R >X>X>X>X>X>X>X>X>X>X"
};
