/* XPM */
static char *result[] = {
/* columns rows colors chars-per-pixel */
"32 32 184 2 ",
"   c #071821",
".  c #071921",
"X  c #081922",
"o  c #081A22",
"O  c #081B23",
"+  c #091B23",
"@  c #091C24",
"#  c #0A1D24",
"$  c #0A1F25",
"%  c #0F2326",
"&  c #102426",
"*  c #122728",
"=  c #17282E",
"-  c #112C2D",
";  c #122D2E",
":  c #132F2F",
">  c #1F382F",
",  c #203930",
"<  c #203A30",
"1  c #213B31",
"2  c #243F32",
"3  c #274234",
"4  c #274334",
"5  c #274435",
"6  c #284334",
"7  c #284434",
"8  c #284435",
"9  c #294535",
"0  c #2A4736",
"q  c #2B4736",
"w  c #2A4737",
"e  c #2C453A",
"r  c #2C463A",
"t  c #2D473B",
"y  c #2D4B38",
"u  c #2D4C39",
"i  c #2E4C39",
"p  c #2F4D39",
"a  c #304F39",
"s  c #30493C",
"d  c #31503A",
"f  c #34543C",
"g  c #34553C",
"h  c #38583E",
"j  c #324443",
"k  c #384C46",
"l  c #384D46",
"z  c #384D47",
"x  c #3A4C49",
"c  c #3B4E4B",
"v  c #265444",
"b  c #265445",
"n  c #265545",
"m  c #275746",
"M  c #385B40",
"N  c #3C5F41",
"B  c #3D5F41",
"V  c #3D524A",
"C  c #3D504C",
"Z  c #3D504D",
"A  c #3F514E",
"S  c #3A564D",
"D  c #3F5B51",
"F  c #3D6041",
"G  c #3E6142",
"H  c #3F6242",
"J  c #33624F",
"K  c #356450",
"L  c #306850",
"P  c #40554F",
"I  c #425550",
"U  c #45634A",
"Y  c #4A7149",
"T  c #4C734A",
"R  c #50794C",
"E  c #537D4E",
"W  c #476150",
"Q  c #486150",
"!  c #486250",
"~  c #4F6B54",
"^  c #4F6C54",
"/  c #4A6058",
"(  c #4E625A",
")  c #50645C",
"_  c #566D5E",
"`  c #596D63",
"'  c #4E7E65",
"]  c #5F7566",
"[  c #507F66",
"{  c #667A6D",
"}  c #598451",
"|  c #5B8753",
" . c #5C8456",
".. c #5C8556",
"X. c #5E8B54",
"o. c #5F8D55",
"O. c #669659",
"+. c #67975A",
"@. c #67985A",
"#. c #68995B",
"$. c #6A9A5B",
"%. c #6A9B5B",
"&. c #6D9F5D",
"*. c #6EA05E",
"=. c #6EA15E",
"-. c #6FA15E",
";. c #71A45F",
":. c #5C8C70",
">. c #6D8173",
",. c #73A761",
"<. c #73A364",
"1. c #74A464",
"2. c #74A962",
"3. c #75AA62",
"4. c #78AE64",
"5. c #79AE64",
"6. c #77A06C",
"7. c #77A16C",
"8. c #78A26C",
"9. c #7AA46E",
"0. c #7BB165",
"q. c #7BB266",
"w. c #7CB266",
"e. c #7CB366",
"r. c #7DB366",
"t. c #7DB567",
"y. c #7EB567",
"u. c #7EB667",
"i. c #7FB668",
"p. c #7FB768",
"a. c #80B969",
"s. c #81B969",
"d. c #82BB6A",
"f. c #88B577",
"g. c #86C06C",
"h. c #8CC372",
"j. c #8CC472",
"k. c #8FC07A",
"l. c #97CA7F",
"z. c #97CB7F",
"x. c #8A9F8A",
"c. c #89A087",
"v. c #89A188",
"b. c #8BAA8E",
"n. c #90AE92",
"m. c #97AC94",
"M. c #97AD95",
"N. c #99AF96",
"B. c #99B591",
"V. c #99B691",
"C. c #9EBB95",
"Z. c #A8BEA2",
"A. c #95C580",
"S. c #9CCE85",
"D. c #9DCE85",
"F. c #A0CA8D",
"G. c #A1C096",
"H. c #A5C29B",
"J. c #A6C39C",
"K. c #ADD897",
"L. c #ADD997",
"P. c #AAC0A3",
"I. c #AAC0A4",
"U. c #ABC1A5",
"Y. c #AEC5A7",
"T. c #AECDA1",
"R. c #B0C7A9",
"E. c #B7CEAE",
"W. c #B9DFA4",
"Q. c #B4D4AF",
"!. c #B9D0B0",
"~. c #BED5B4",
"^. c #B9E0A4",
"/. c #C0DFAF",
"(. c #C9EAB6",
"). c #CAEAB6",
"_. c #CFEDBC",
"`. c #CFEEBC",
"'. c #D2EAC4",
"]. c #D4ECC5",
"[. c #D4ECC6",
"{. c #DAF5C9",
"}. c #E0F8CF",
"|. c None",
/* pixels */
"|.|.|.|.|.|.|.|.|.|.$                     O |.|.|.|.|.|.|.|.|.|.",
"|.|.|.|.|.|.|.|.|.|.w 0 6 3 3 3 3 3 3 7 q 0 |.|.|.|.|.|.|.|.|.|.",
"|.|.|.|.|.|.|.|.|.u | $.+.O.O.O.O.O.O.@.%.o.g |.|.|.|.|.|.|.|.|.",
"|.|.|.|.|.|.|.|.p Y 2.g.g.g.g.g.g.g.g.g.g.5.E |.|.|.|.|.|.|.|.|.",
"|.|.|.|.|.|.|.|.O.2.a.g.g.g.g.g.g.g.g.g.g.d.4.*.|.|.|.|.|.|.|.|.",
"|.|.|.|.|.|.|.|.0.g.g.g.g.g.g.g.g.y.*.O.O.*.y.p.|.|.|.|.|.|.|.|.",
"|.|.|.|.|.|.|.|.q.g.g.g.g.g.g.g.g.*.G 3 3 F &.i.|.|.|.|.|.|.|.|.",
"|.|.|.|.|.|.|.|.w.j.z.D.D.z.h.y.*. .Q Z Z ~ <.i.|.|.|.|.|.|.|.|.",
"|.|.|.|.|.|.|.|.r.z.^.).).W.l.*.G ! v.I.I.G.k.p.|.|.|.|.|.|.|.|.",
"|.|.|.|.|.|.|.|.e.D.).}.}.(.S.1.^ { E.'.E.J.F.A.|.|.|.|.|.|.|.|.",
"|.|.|.|.|.|.|.|.w.D.).}.}.(.S.k.G.E.'.E.{ ] H./.|.|.|.|.|.|.|.|.",
"|.|.|.|.|.|.|.|.e.z.^._.{.(.S.D.).}.}.P.C c Z.[.|.|.|.|.|.|.|.|.",
"|.|.|.|.|.|.|.|.t.j.z.K.`.(.S.D.).}.}.P.C c Z.].|.|.|.|.|.|.|.|.",
"|.|.|.|.|.|.|.|.$.3.s.z.W.W.l.z.^._.{.E.{ ` m.R.|.|.|.|.|.|.|.|.",
"|.|.|.|.|.|.|.|.a T 3.h.l.l.h.j.l.L.`.'.E.N.>.( |.|.|.|.|.|.|.|.",
"|.|.|.|.|.|.|.|.|.i | #.+.O.O.O.O.6.B.U.Y.M./ |.|.|.|.|.|.|.|.|.",
"|.|.|.|.|.|.|.|.|.|.8 9 4 3 3 3 3 e k A I P |.|.|.|.|.|.|.|.|.|.",
"|.|.|.|.|.|.|.|.|.|.o & , 3 3 r l Z Z j = # |.|.|.|.|.|.|.|.|.|.",
"|.|.|.|.|.|.|.|.|.|.. 2 E O.O.7.V.I.I.x.x + |.|.|.|.|.|.|.|.|.|.",
"|.|.|.|.|.|.|.|.|.|.  d -.g.g.k.G.E.'.!.) |.|.|.|.|.|.|.|.|.|.|.",
"|.|.|.|.|.|.|.|.|.|.|.f ;.g.g.1.^ { E.~.` |.|.|.|.|.|.|.|.|.|.|.",
"|.|.|.|.|.|.|.|.|.|.|.h ,.j.z.6.e l V.T._ |.|.|.|.|.|.|.|.|.|.|.",
"|.|.|.|.|.|.|.|.|.|.|.B 3.z.^.B.k r 7.f.U |.|.|.|.|.|.|.|.|.|.|.",
"|.|.|.|.|.|.|.|.|.|.|.M X.8.V.c.W H =.3.N |.|.|.|.|.|.|.|.|.|.|.",
"|.|.|.|.|.|.|.|.|.|.|.|.5 t z W ..=.u.3.F |.|.|.|.|.|.|.|.|.|.|.",
"|.|.|.|.|.|.|.|.|.|.|.|.@ % > H =.y.*.} y |.|.|.|.|.|.|.|.|.|.|.",
"|.|.|.|.|.|.|.|.|.|.|.|.O < R =.u.*.G 1 * |.|.|.|.|.|.|.|.|.|.|.",
"|.|.|.|.|.|.|.|.|.|.|.|.X s 9.D.D.6.e       |.|.|.|.|.|.|.|.|.|.",
"|.|.|.|.|.|.|.|.|.|.|.|.  V C.).).B.k     . |.|.|.|.|.|.|.|.|.|.",
"|.|.|.|.|.|.|.|.|.|.|.|.- D n.Q.Q.b.S - ; : |.|.|.|.|.|.|.|.|.|.",
"|.|.|.|.|.|.|.|.|.|.|.|.v K [ :.:.' J b n m |.|.|.|.|.|.|.|.|.|.",
"|.|.|.|.|.|.|.|.|.|.|.|.L L L L L L L L L L |.|.|.|.|.|.|.|.|.|."
};
