/* XPM */
static char *result[] = {
/* columns rows colors chars-per-pixel */
"32 32 176 2 ",
"   c #0C1F24",
".  c #0E2125",
"X  c #112627",
"o  c #13262B",
"O  c #192B2F",
"+  c #1D352E",
"@  c #192E30",
"#  c #193631",
"$  c #193832",
"%  c #274234",
"&  c #2A4636",
"*  c #2C4937",
"=  c #24453A",
"-  c #2C463A",
";  c #22493D",
":  c #2D4C39",
">  c #314E3C",
",  c #2E513D",
"<  c #36563D",
"1  c #2F4341",
"2  c #274A41",
"3  c #304242",
"4  c #384D46",
"5  c #364E49",
"6  c #3A4E4A",
"7  c #255344",
"8  c #2B5A47",
"9  c #2C5E4A",
"0  c #2D5642",
"q  c #335B43",
"w  c #395B43",
"e  c #3D514C",
"r  c #335F4C",
"t  c #3D584D",
"y  c #2D614C",
"u  c #3F6142",
"i  c #34664C",
"p  c #3C6748",
"a  c #32684F",
"s  c #3D6D4D",
"d  c #3F714F",
"f  c #366550",
"g  c #326A51",
"h  c #3A6E50",
"j  c #3D7453",
"k  c #3F7855",
"l  c #40574B",
"z  c #455F4E",
"x  c #476D47",
"c  c #45684B",
"v  c #436744",
"b  c #4A774E",
"n  c #537F4F",
"m  c #446252",
"M  c #496251",
"N  c #446A54",
"B  c #4F6C54",
"V  c #446A58",
"C  c #4B665A",
"Z  c #506C55",
"A  c #417352",
"S  c #437B56",
"D  c #4B7C53",
"F  c #44705C",
"G  c #49765D",
"H  c #457858",
"J  c #487D5A",
"K  c #507751",
"L  c #547A55",
"P  c #55725C",
"I  c #517E5F",
"U  c #586D62",
"Y  c #4D7C63",
"T  c #5F7666",
"R  c #597A65",
"E  c #657B6C",
"W  c #4D8256",
"Q  c #478058",
"!  c #4A815B",
"~  c #568352",
"^  c #5D8D57",
"/  c #538658",
"(  c #548C5B",
")  c #598B5B",
"_  c #5C8456",
"`  c #5C935E",
"'  c #5E985F",
"]  c #629157",
"[  c #66965A",
"{  c #64985C",
"}  c #6A9B5C",
"|  c #6EA05E",
" . c #538062",
".. c #5A8B67",
"X. c #56826A",
"o. c #56886A",
"O. c #5B8B6D",
"+. c #5C8562",
"@. c #5C8C70",
"#. c #6A8F65",
"$. c #648364",
"%. c #639C61",
"&. c #61946D",
"*. c #6A9B66",
"=. c #729670",
"-. c #7E9D79",
";. c #769975",
":. c #6DA462",
">. c #6FA965",
",. c #6BA368",
"<. c #73A364",
"1. c #72AB65",
"2. c #76A26D",
"3. c #79A46C",
"4. c #78AD6E",
"5. c #76B067",
"6. c #7CB367",
"7. c #7DB569",
"8. c #7FB969",
"9. c #7BAA73",
"0. c #7FB276",
"q. c #83B76C",
"w. c #81BB6A",
"e. c #84B576",
"r. c #86BF71",
"t. c #81B478",
"y. c #8CBE79",
"u. c #86C06C",
"i. c #8CC372",
"p. c #8FC17B",
"a. c #94C77D",
"s. c #97CB7F",
"d. c #7F9581",
"f. c #77A381",
"g. c #819683",
"h. c #829983",
"j. c #86A188",
"k. c #8BA38B",
"l. c #8BA98D",
"z. c #87AB8B",
"x. c #91AB8D",
"c. c #8DB28A",
"v. c #94B28F",
"b. c #91BB87",
"n. c #91A890",
"m. c #8DB291",
"M. c #94B793",
"N. c #99B691",
"B. c #9BBC95",
"V. c #98BE99",
"C. c #A4BC9F",
"Z. c #95C580",
"A. c #9CCE85",
"S. c #9DC78B",
"D. c #9EC496",
"F. c #9DC398",
"G. c #A1CD8E",
"H. c #A1C096",
"J. c #A5C39B",
"K. c #A8C69E",
"L. c #A3C99D",
"P. c #ADD997",
"I. c #AAC0A3",
"U. c #ADCCA9",
"Y. c #B7CEAE",
"T. c #AED3A5",
"R. c #B9DFA4",
"E. c #B3D3AF",
"W. c #B6DDA3",
"Q. c #B9E0A4",
"!. c #C6E7B4",
"~. c #C9EAB6",
"^. c #CFEEBC",
"/. c #D2EAC4",
"(. c #DAF5C9",
"). c #E0F8CF",
/* pixels */
"u.u.u.u.u.u.u.u.u.1.S 8 # X X X X         X + < | :.D g g S 1.u.",
"u.w.1.1.1.5.w.w.1.*. .V w , : : * * * * & * < x ~ ] O.@.@.&.,.>.",
"u.1.( Q Q ( 5.5.) Y T P ] } } [ } } [ [ } } | ] x h z.E.E.V.&.S ",
"1.,.&.@.@.&.,.' j G L L 1.r.r.r.w.u.u.w.u.u.w.<.b N c.!.~.L.o.g ",
"Q &.F.E.E.V.&.j y D *.1.w.u.u.u.u.u.u.u.u.u.q.q.:.] 9.a.A.t.! g ",
"g o.F.~.~.T.f.Y i D 6.w.u.u.u.u.u.u.u.q.| [ [ | 5.1.<.5.1.%.( S ",
"g ! 0.A.A.G.T.m.F D 6.u.u.u.u.u.u.w.u.| u % % u } 1.:.:.( ( %.1.",
"Q ! ,.5.w.s.R.V.G b 6.i.s.A.A.s.i.q.| _ c l l M <.1.%.) j S 1.u.",
"1.,./ ( 5.i.s.9.j j 1.s.Q.~.~.Q.s.| u c j.I.J.C.y.:.W j g S 1.u.",
"u.>.Q k %.5.8.:.d j | A.~.).).~.G.<.Z E Y./.Y.C.S.9.H y j ( 5.u.",
"u.>.Q g k ` 5.:.d d >.A.~.).).~.s.p.C.Y./.Y.E E H.F. .j ' 5.w.u.",
"u.5.( k g k ' ( i d | s.Q.^.(.~.G.s.~.).).I.l 6 C.U.X.A :.u.u.u.",
"u.w.5.%.k g k d 8 s | i.s.P.^.~.s.A.~.).(.I.e 6 C.U.X.j :.u.u.u.",
"u.u.u.5.` k g y 7 q ~ | 8.s.Q.Q.s.s.Q.^.(.Y.E U k.z. .W 1.u.u.u.",
"u.u.u.w.5.%.k 9 ; = * u | i.s.s.i.i.s.P.^./.Y.n.E V ) 1.8.u.u.u.",
"u.u.u.u.u.1.( d p q : < ~ [ [ [ [ [ } 3.N.I.I.j.m q ) >.1.5.w.u.",
"u.u.u.w.u.5.{ ^ } | [ ~ < % % % % % % - 4 l 6 l M b D S Q ( 5.u.",
"u.w.5.1.1.:.} } 6.u.u.| u % % * > l l 3 o o 3 z K / ..@.@.&.,.1.",
"u.5.( S S ) 1.5.8.u.u.8.| [ [ 3.N.I.I.g.3 3 h.n.+.J M.E.E.V.&.Q ",
">.,.&.@.@.*.5.r.a.p.<.| 7.u.u.s.R.^.(.I.l 3 h.n.R Y B.~.~.L.o.g ",
"S &.V.E.Y.b.5.Z.W.H.B u | u.u.i.Z.P./.I.l o 4 z f J 0.A.A.t.! g ",
"g o.I.~.!.C.2.2.N.g.- % [ u.u.6.| ;.n.t.3   O 3 f S >.w.5.%.( S ",
"g Q 0.A.S.y.;.P l 3 o % [ u.u.| u - l 3 o o 3 C V S >.5.( ( %.1.",
"k ( :.5.q.e.t.U 6 3 o % [ u.u.| u % % % 6 l M T Y S %.' k S 1.u.",
"1.,.( ( 5.w.3.=.l.g.- % [ u.u.8.| [ [ 2.B.n.$.L j g k k g Q 5.w.",
"u.>.Q k ' >.1.3.M.j.5 % L } } | 7.i.A.A.K.n.#.~ j g g g S ( 5.u.",
"u.>.Q g S ( 1.,. .V ; ; < < : u | s.Q.J.E m ) { H a a k %.5.w.u.",
"u.5.( k g S ' ) i 7 7 0 < , % , ~ 3.B.j.t ; D ` k g a S >.u.u.u.",
"u.w.5.%.S g S j g y y h D D p i : > t M r 9 j j g g g S 5.u.u.u.",
"u.u.u.5.( k g g g g k / { ' W a = # $ , j j g g g g S ( 5.w.u.u.",
"u.u.u.w.5.' S g g k ' >.5.,.Q h y 8 9 i k Q j g g k ' 5.w.u.u.u.",
"u.u.u.u.u.>.S g g Q >.w.5.| Q h a g g j k Q j g g S 5.u.u.u.u.u."
};
