/* XPM */
static char *result[] = {
/* columns rows colors chars-per-pixel */
"32 32 125 2 ",
"   c #302C2E",
".  c #332D2F",
"X  c #362C31",
"o  c #392E32",
"O  c #3C2F33",
"+  c #3E2E35",
"@  c #412D38",
"#  c #442D3A",
"$  c #472D3C",
"%  c #482E3C",
"&  c #4A2F3C",
"*  c #4A2E3D",
"=  c #4B2F3D",
"-  c #4D2F3E",
";  c #443037",
":  c #403438",
">  c #4A323A",
",  c #4E303E",
"<  c #4F303E",
"1  c #50323D",
"2  c #51313F",
"3  c #52323F",
"4  c #54333F",
"5  c #53343E",
"6  c #55343F",
"7  c #4E3542",
"8  c #4C3642",
"9  c #4C3742",
"0  c #543240",
"q  c #583441",
"w  c #5B3542",
"e  c #5D3742",
"r  c #5D3643",
"t  c #5E3643",
"y  c #503843",
"u  c #523A45",
"i  c #543C47",
"p  c #593C46",
"a  c #5F3F49",
"s  c #603743",
"d  c #613843",
"f  c #633944",
"g  c #653945",
"h  c #643A44",
"j  c #653A45",
"k  c #683C45",
"l  c #6A3C46",
"z  c #6D3E46",
"x  c #6E3E47",
"c  c #6F3F47",
"v  c #484041",
"b  c #4C4646",
"n  c #5F414B",
"m  c #59414C",
"M  c #5F454C",
"N  c #55494D",
"B  c #554A4D",
"V  c #574A4E",
"C  c #5A4B4F",
"Z  c #5D4751",
"A  c #5D4F53",
"S  c #5A5353",
"D  c #5D5053",
"F  c #64434D",
"G  c #66444E",
"H  c #66454F",
"J  c #6A444E",
"K  c #704047",
"L  c #724048",
"P  c #734048",
"I  c #734148",
"U  c #754149",
"Y  c #774349",
"T  c #74444B",
"R  c #72444C",
"E  c #78434A",
"W  c #7A444A",
"Q  c #684750",
"!  c #6B4750",
"~  c #664851",
"^  c #6C4B54",
"/  c #6E4D56",
"(  c #704A52",
")  c #754C52",
"_  c #764C52",
"`  c #625155",
"'  c #645659",
"]  c #635A5A",
"[  c #6D5B5F",
"{  c #6D5C5F",
"}  c #6F5C60",
"|  c #765F63",
" . c #6C6362",
".. c #756165",
"X. c #756266",
"o. c #776266",
"O. c #7A6467",
"+. c #7B6467",
"@. c #746969",
"#. c #786868",
"$. c #7C686B",
"%. c #7D7071",
"&. c #805458",
"*. c #8A5F61",
"=. c #8F6465",
"-. c #8F6566",
";. c #856B6E",
":. c #816F70",
">. c #857475",
",. c #897576",
"<. c #8C7575",
"1. c #847976",
"2. c #867978",
"3. c #8A7A7A",
"4. c #8F7C7B",
"5. c #8F837F",
"6. c #918583",
"7. c #978A87",
"8. c #A0938E",
"9. c #AA958F",
"0. c #BAA59C",
"q. c #BAA69D",
"w. c #BAB0A6",
"e. c #CFC6B8",
"r. c None",
/* pixels */
"r.r.r.r.r.r.r.r.r.r.r.r.r.r.r.r.r.r.r.r.r.r.r.r.r.r.r.r.r.r.r.r.",
"r.r.r.r.r.r.r.r.r.r.r.r.r.r.r.r.r.r.r.r.r.r.r.r.r.r.r.r.r.r.r.r.",
"r.r.r.r.r.r.r.r.r.r.r.r.r.r.%.%.%.%.r.r.r.r.r.r.r.r.r.r.r.r.r.r.",
"r.r.r.r.r.r.r.r.r.r.r.r.r.r.| ....| r.r.r.r.r.r.r.r.r.r.r.r.r.r.",
"e.0.=.W W W W W W W W W W T J G G J T W W W W W W W W W W -.q.e.",
"w.9.*.Y K z z z z z z z z k r q q t k z z z z z z z z K Y *.9.w.",
"6.<.&.K e 4 4 4 4 4 4 4 4 3 , - - , 3 4 4 4 4 4 4 4 4 e K &.<.6.",
"%.O.) k 3 $ $ $ $ $ $ $ $ $ $ $ $ $ $ $ $ $ $ $ $ $ $ 3 k _ +.%.",
"%.o.! r , $ $ $ $ $ $ $ $ $ $ $ $ $ $ $ $ $ $ $ $ $ $ < t ! o.%.",
"%...G q - $ $ $ $ $ $ $ $ $ $ $ $ $ $ $ $ $ $ $ $ $ $ - q H X.%.",
"%...G q - $ $ $ $ $ $ $ $ $ $ $ $ $ $ $ $ $ $ $ $ $ $ - q H X.%.",
"%...G q - $ $ $ $ $ $ $ $ $ $ $ $ $ $ $ $ $ $ $ $ $ $ - q H X.%.",
"%...G q - $ $ $ $ $ $ $ $ $ $ $ $ $ $ $ $ $ $ $ $ $ $ - q H X.%.",
"@.[ n 0 = $ $ $ $ $ $ $ $ $ $ $ $ $ $ $ $ $ $ $ $ $ $ = 0 n { @.",
"] A u = % $ $ $ $ $ $ $ $ $ $ $ $ $ $ $ $ $ $ $ $ $ $ % = u D ] ",
" .' i & # @ @ @ @ @ @ @ @ @ @ @ @ @ @ @ @ @ @ @ @ @ @ # & i '  .",
"5.:.~ 1 + X X X X X X X X X X X X X X X X X X X X X X + 1 ~ :.5.",
"7.,.^ 6 ; O O O O o .                     . o O O O O ; 6 ^ ,.7.",
"2.$.Q w 6 5 5 5 5 > o                     o > 5 5 5 5 6 w Q $.2.",
"%...G t t s f f s 6 ; O O : v b b v : O O ; 6 s f f s t t H X.%.",
"%...G t t f x x f w 6 5 5 M #.1.1.#.M 5 5 6 w f x x f t t H X.%.",
"@.} F t t j I U l f s s f ( ;.4.4.;.( f s s f l U P g t t F } @.",
"] ` a t t j I E U x f f x R ( / / ( R x f f x U E P g t t a ` ] ",
"S C p q q d L W W P g j I U l j j l U P g j I W W L d q q p C S ",
"S V y - - q c W W P g j I E U I I U E P g j I W W c q - - y V S ",
"S N 8 $ $ 2 h z z k r r k z z z z z z k r r k z z h 2 $ $ 9 B S ",
"S N 8 $ $ * 2 4 4 3 , , 3 4 4 4 4 4 4 3 , , 3 4 4 2 * $ $ 9 B S ",
"S N 8 $ $ $ $ $ $ $ $ $ $ $ $ $ $ $ $ $ $ $ $ $ $ $ $ $ $ 9 B S ",
"S N 8 $ $ $ $ $ $ $ $ $ $ $ $ $ $ $ $ $ $ $ $ $ $ $ $ $ $ 9 B S ",
"S N 8 $ $ $ $ $ $ $ $ $ $ 7 m Z Z m 7 $ $ $ $ $ $ $ $ $ $ 9 B S ",
"r.r.r.r.r.r.r.r.r.r.r.r.r.r.>.3.3.>.r.r.r.r.r.r.r.r.r.r.r.r.r.r.",
"r.r.r.r.r.r.r.r.r.r.r.r.r.r.8.8.8.8.r.r.r.r.r.r.r.r.r.r.r.r.r.r."
};
