/* XPM */
static char *result[] = {
/* columns rows colors chars-per-pixel */
"32 32 166 2 ",
"   c #472D3C",
".  c #4D2F3E",
"X  c #4E303E",
"o  c #53323F",
"O  c #4C3742",
"+  c #413C41",
"@  c #573643",
"#  c #5B3542",
"$  c #543A45",
"%  c #5A3B46",
"&  c #573E49",
"*  c #5C3E49",
"=  c #603743",
"-  c #643A45",
";  c #6C3E46",
":  c #36594B",
">  c #3A5D4C",
",  c #316950",
"<  c #3F7458",
"1  c #464042",
"2  c #4D4845",
"3  c #4F4C49",
"4  c #4B4644",
"5  c #524D46",
"6  c #57404B",
"7  c #5C434D",
"8  c #554A4D",
"9  c #5B4C4F",
"0  c #575248",
"q  c #5B594D",
"w  c #5A5353",
"e  c #64444E",
"r  c #6E4048",
"t  c #744148",
"y  c #7A444A",
"u  c #744D53",
"i  c #615155",
"p  c #66525A",
"a  c #6A565D",
"s  c #635A5A",
"d  c #6A5A5F",
"f  c #7B5157",
"g  c #42654F",
"h  c #466A50",
"j  c #5D6354",
"k  c #437C56",
"l  c #587154",
"z  c #5A7F57",
"x  c #616855",
"c  c #656E59",
"v  c #6F5B60",
"b  c #746165",
"n  c #766669",
"m  c #7B676A",
"M  c #746969",
"N  c #697D64",
"B  c #7D7071",
"V  c #82494C",
"C  c #8B4E4E",
"Z  c #8F514F",
"A  c #815659",
"S  c #84585B",
"D  c #8E5F5F",
"F  c #825355",
"G  c #965551",
"H  c #995751",
"J  c #9E5A52",
"K  c #905C59",
"L  c #A05B53",
"P  c #856053",
"I  c #896355",
"U  c #896A5E",
"Y  c #97605B",
"T  c #90695A",
"R  c #98715C",
"E  c #8C6365",
"W  c #846B6B",
"Q  c #8E6D61",
"!  c #947968",
"~  c #9C7969",
"^  c #847676",
"/  c #8C7775",
"(  c #867978",
")  c #8C7E7D",
"_  c #8C7874",
"`  c #957E7C",
"'  c #A26E68",
"]  c #AC766C",
"[  c #568E5C",
"{  c #668B5B",
"}  c #6A8F5C",
"|  c #70895D",
" . c #6B915E",
".. c #72975E",
"X. c #5A8668",
"o. c #5E9262",
"O. c #5C8C70",
"+. c #6C846B",
"@. c #72846E",
"#. c #718566",
"$. c #609A60",
"%. c #61946D",
"&. c #68906F",
"*. c #789063",
"=. c #769C61",
"-. c #7B9869",
";. c #6D9473",
":. c #7F9178",
">. c #769A77",
",. c #6CA269",
"<. c #7BA465",
"1. c #73AC66",
"2. c #7EAB6E",
"3. c #7CA46F",
"4. c #76B067",
"5. c #808F6C",
"6. c #8F807F",
"7. c #8E897F",
"8. c #AB8D78",
"9. c #81BA6A",
"0. c #8EAA7F",
"q. c #87B476",
"w. c #8BB47B",
"e. c #8DB575",
"r. c #86C06C",
"t. c #98C17F",
"y. c #898E80",
"u. c #928582",
"i. c #978A87",
"p. c #9F8985",
"a. c #998C89",
"s. c #839985",
"d. c #97968A",
"f. c #9E918C",
"g. c #979987",
"h. c #A28A85",
"j. c #A89F96",
"k. c #A49C92",
"l. c #B19C95",
"z. c #8BA680",
"x. c #97B382",
"c. c #9DA693",
"v. c #9FB392",
"b. c #98BF99",
"n. c #A2AD8A",
"m. c #A7A297",
"M. c #ADA29A",
"N. c #A7AE9E",
"B. c #B8A096",
"V. c #BAA69D",
"C. c #B2AE95",
"Z. c #AFB09F",
"A. c #B3B59E",
"S. c #B9B29B",
"D. c #AEAEA0",
"F. c #ADB4A0",
"G. c #BCB2A5",
"H. c #B7BFA3",
"J. c #C3AB9F",
"K. c #ADC196",
"L. c #ABC29D",
"P. c #BCC4A5",
"I. c #B4D4AF",
"U. c #C2CDA3",
"Y. c #CFC6B8",
"T. c #C7DAB0",
/* pixels */
"r.t.P.P.t.9.9.r.r.1.[ , , < 1.r.r.r.r.r.9.r.r.r.r.1.k X.N.F.w.9.",
"e.x.A.A.0.q.9.9.4.,.O.O.O.o.,.4.9.9.1.1.1.1.9.9.4.,.;.s.D.Z.z.3.",
"g.g.m.k.d.5.9.<.[ o.b.I.I.b.%.[ 4.4.[ k k o.4.4.[ ;.m.m.M.j.d.y.",
"i.a.f.f.a.u.*.| l #.K.T.I.n.N l | *.#.@.>.>.-.| l @.d.i.f.f.a.i.",
"( ) a.a.) ( Q I S ! C.S.8.R I S I T ~ 8.G.S.~ I I U _ ) a.a.) ( ",
"B ^ u.u.( W K L L ] J.J.] L L L L L L ] J.J.] L L K W ^ u.u.^ B ",
"B B ^ ^ ^ W Y L L ] J.J.] L L L L L L ] J.J.] L L Y W ^ ^ ^ B B ",
"( ( ( ^ B W K J J ] J.J.] L L L L L L ] J.J.] L H K W B ^ ( ( ( ",
"i.i.i.u.^ m F C H ] J.J.] L L L L L L ] J.J.] H C F m ^ u.i.i.i.",
"i.a.a.a.) W f V Z ' l.l.' H H G G G G ' B.l.' Z V f W 6.i.f.a.i.",
"( ) a.f.a.` S y V D h.h.E V V V V V V K h.h.D V y F ` a.f.i.6.( ",
"B ^ ^ u.a.` S V y D ` ` S y y y y y V S ` u.S y y S ` i.6.^ ^ B ",
"B b p v 6.` S ; y S ` ` S y y y y y y S ` ` S y y S ` u.v p n B ",
"B b & 7 m W y - ; f / ` E S E E E E S E ` / f ; ; u W m 7 * b B ",
"B b 7 # 7 & @ @ # e n ) 6.h.l.V.V.l.h.` ( m e @ @ @ 7 & # 7 b B ",
"B b e # @ O O . . @ p n ^ u.l.G.G.l.i.^ n p $ . .     @ # e b B ",
"B b ; # # # # # o @ & 6 7 a ^ u.u.B v 7 $ @ @ # # @ # # # e n B ",
"B b e = # = = - = # o   X * d M M v & O O @ @ # - = = = # ; b B ",
"B b e = = = ; ; - # # # @ % q s s i & @ # # # - ; ; ; # - e n B ",
"M v e = = - y ; ; - = % - - e 9 9 7 - = = = - ; ; ; ; = # * v n ",
"s i * = # = ; y ; ; ; - r r - % * - r ; - - ; t y ; = # % * p p ",
"w 9 & # # # y y y ; - - t t ; - - ; t ; - - t y y ; = # # % 9 w ",
"w 8 $   . # ; V y ; - - t y t r t t y t - - t y y ; # . O $ 8 w ",
"w 8 O     # = ; ; ; = = - r ; r ; ; ; ; = # ; ; ; ; O     O 8 w ",
"w 8 O     O O o o o X X o o o o o o o o X X o o # @ .     O 8 9 ",
"w 8 O                                                     O 8 w ",
"w 8 O     .                                               O 8 w ",
"c q 8 1 + + 4 4 X :   1 0 0 0 0 0 0 4 1 + 1 4 4 + + + + 5 q x c ",
"9.<.} [ g : g g : : : h { =.=.-.....} [ > > h h > > : h { <.<.<.",
"e.x.e.q.$.k , , , < X.>.w.t.t.x.t.t.e.e.>.X.< , , , < o.q.x.t.t.",
"U.U.P.K.q. .k , , X.v.P.P.P.P.U.P.H.U.U.H.c.[ , , < $.q.K.P.P.P.",
"Y.Y.Y.P.t.,.k , , &.H.Y.Y.Y.Y.Y.Y.Y.Y.Y.Y.H.%., , [ 1.t.P.Y.Y.Y."
};
