/* XPM */
static char *result[] = {
/* columns rows colors chars-per-pixel */
"32 32 153 2 ",
"   c #472D3C",
".  c #4A2E3D",
"X  c #4D2F3E",
"o  c #4E303E",
"O  c #51313F",
"+  c #52323F",
"@  c #54333F",
"#  c #4C3642",
"$  c #4C3742",
"%  c #573643",
"&  c #583441",
"*  c #5A3442",
"=  c #5D3543",
"-  c #5D3643",
";  c #5E3643",
":  c #503843",
">  c #563844",
",  c #553B47",
"<  c #593845",
"1  c #593C46",
"2  c #5D3D47",
"3  c #573E49",
"4  c #5B3D48",
"5  c #593F4B",
"6  c #5F3F49",
"7  c #603743",
"8  c #613843",
"9  c #633944",
"0  c #653945",
"q  c #643A44",
"w  c #653A45",
"e  c #623E47",
"r  c #633E47",
"t  c #683C45",
"y  c #6A3C46",
"u  c #6D3E46",
"i  c #6E3E47",
"p  c #6F3F47",
"a  c #57404B",
"s  c #59404B",
"d  c #5B424C",
"f  c #5C424D",
"g  c #5B444F",
"h  c #5E474C",
"j  c #55494D",
"k  c #554A4D",
"l  c #574A4E",
"z  c #5A4B4F",
"x  c #5B4C4F",
"c  c #5A5353",
"v  c #61434D",
"b  c #64434D",
"n  c #60444E",
"m  c #66444E",
"M  c #66454F",
"N  c #6E4048",
"B  c #724048",
"V  c #734048",
"C  c #734148",
"Z  c #754149",
"A  c #78434A",
"S  c #7A444A",
"D  c #7C454B",
"F  c #744D53",
"G  c #605154",
"H  c #625155",
"J  c #655159",
"K  c #67535A",
"L  c #6A565D",
"P  c #635A5A",
"I  c #6A5A5F",
"U  c #785157",
"Y  c #7D5156",
"T  c #6E5A60",
"R  c #6F5C60",
"E  c #716064",
"W  c #746165",
"Q  c #756165",
"!  c #756266",
"~  c #756669",
"^  c #766669",
"/  c #79676A",
"(  c #7A676A",
")  c #7A676B",
"_  c #7F6668",
"`  c #746969",
"'  c #7D7071",
"]  c #7F7273",
"[  c #81484C",
"{  c #834A4C",
"}  c #8B4E4E",
"|  c #8F514F",
" . c #825355",
".. c #815659",
"X. c #83585B",
"o. c #84585B",
"O. c #865B5E",
"+. c #8E5F5F",
"@. c #965551",
"#. c #995751",
"$. c #9E5A52",
"%. c #905C59",
"&. c #A05B53",
"*. c #97605A",
"=. c #97605B",
"-. c #98645E",
";. c #8C6163",
":. c #886466",
">. c #8F6566",
",. c #836969",
"<. c #866B69",
"1. c #866B6A",
"2. c #836B6D",
"3. c #836C6D",
"4. c #807273",
"5. c #837374",
"6. c #847676",
"7. c #847776",
"8. c #877777",
"9. c #8B7371",
"0. c #8D7777",
"q. c #867978",
"w. c #8A7A79",
"e. c #8C7F7E",
"r. c #907978",
"t. c #927E7C",
"y. c #967F7D",
"u. c #977F7D",
"i. c #A26E68",
"p. c #AC766C",
"a. c #8F807F",
"s. c #918481",
"d. c #918583",
"f. c #968785",
"g. c #988783",
"h. c #978A87",
"j. c #9F8985",
"k. c #998C89",
"l. c #9A8D89",
"z. c #9E918C",
"x. c #A28A85",
"c. c #A0938E",
"v. c #A49791",
"b. c #A99D96",
"n. c #B19C95",
"m. c #AEA39B",
"M. c #B8A096",
"N. c #BAA69D",
"B. c #BAB0A6",
"V. c #C3AB9F",
"C. c #C1B6AB",
"Z. c #CFC6B8",
"A. c None",
/* pixels */
"A.A.Z.Z.A.A.A.A.A.A.A.A.A.A.A.A.A.A.A.A.A.A.A.A.A.A.A.A.Z.Z.A.A.",
"A.A.C.C.A.A.A.A.A.A.A.A.A.A.A.A.A.A.A.A.A.A.A.A.A.A.A.A.C.C.A.A.",
"c.v.b.b.v.c.A.A.A.A.A.A.A.A.A.A.A.A.A.A.A.A.A.A.A.A.c.v.b.b.v.c.",
"h.k.z.z.k.g.A.A.A.A.A.A.A.A.A.A.A.A.A.A.A.A.A.A.A.A.g.k.z.z.k.h.",
"q.e.k.k.e.9.-.&.&.p.V.V.p.&.&.&.&.&.&.p.V.V.p.&.&.-.9.e.k.k.e.q.",
"' 7.s.s.7.<.*.&.&.p.V.V.p.&.&.&.&.&.&.p.V.V.p.&.&.=.1.7.s.s.7.' ",
"' ] 7.7.] <.*.&.&.p.V.V.p.&.&.&.&.&.&.p.V.V.p.&.&.=.1.] 7.7.] ' ",
"q.q.q.7.] ,.%.#.$.p.V.V.p.&.&.&.&.&.&.p.V.V.p.$.#.%.,.] 7.q.q.q.",
"h.h.h.s.7._  .} #.p.V.V.p.&.&.&.&.&.&.p.V.V.p.#.}  ._ 7.s.h.h.h.",
"h.k.z.k.e.3.Y [ | i.M.M.i.@.@.@.@.@.@.i.M.M.i.| [ Y 3.e.k.z.k.h.",
"q.e.k.z.k.r...D [ +.x.x.+.{ { { { { { +.x.x.+.[ D ..r.k.z.k.e.q.",
"' 4.8.a.l.y.X.S S o.u.y.X.S S S S S S o.u.y.X.S S o.u.l.a.8.4.' ",
"' ~ J T a.y.X.S S o.u.y.X.S S S S S S o.u.y.X.S S o.u.a.T J ~ ' ",
"' E 5 f ) 2.F u u U 0.t.:.O.;.>.>.;.O.:.t.0.U u u F 2.( f s E ' ",
"' W v < f d > @ @ n / w.t.j.n.N.N.n.j.t.w./ n @ @ > d f < v W ' ",
"' Q m * O X X X X , K ^ 5.f.m.B.B.m.f.5.^ K , X X X X O * M ! ' ",
"' Q m = * & & & & % , a g L 6.d.d.6.L g a , % & & & & * = M ! ' ",
"' Q m ; ; 7 9 9 7 * O X X 3 I ` ` I 3 X X O * 7 9 9 7 ; ; M ! ' ",
"' Q m ; ; 9 i i 9 = * & & 4 G P P G 4 & & * = 9 i i 9 ; ; M ! ' ",
"` R b ; ; w C Z y 9 7 7 9 r h x x h r 9 7 7 9 y Z V 0 ; ; b R ` ",
"P H 6 ; ; w C A Z i 9 9 i N e 2 2 r N i 9 9 i Z A V 0 ; ; 6 H P ",
"c z 1 & & 8 B S S V 0 w C Z y w w y Z V 0 w C S S B 8 & & 1 z c ",
"c l : X X & p S S V 0 w C A Z C C Z A V 0 w C S S p & X X : l c ",
"c j #     O q u u t - - t u u u u u u t - - t u u q O     $ k c ",
"c j #     . O @ @ + o o + @ @ @ @ @ @ + o o + @ @ O .     $ k c ",
"c j #                                                     $ k c ",
"c j #                                                     $ k c ",
"c j #                                                     $ k c ",
"A.A.A.A.A.A.A.A.A.A.A.A.A.A.A.A.A.A.A.A.A.A.A.A.A.A.A.A.A.A.A.A.",
"A.A.A.A.A.A.A.A.A.A.A.A.A.A.A.A.A.A.A.A.A.A.A.A.A.A.A.A.A.A.A.A.",
"Z.Z.Z.Z.A.A.A.A.A.A.Z.Z.Z.Z.Z.Z.Z.Z.Z.Z.Z.Z.A.A.A.A.A.A.Z.Z.Z.Z.",
"Z.Z.Z.Z.A.A.A.A.A.A.Z.Z.Z.Z.Z.Z.Z.Z.Z.Z.Z.Z.A.A.A.A.A.A.Z.Z.Z.Z."
};
