/* XPM */
static char *result[] = {
/* columns rows colors chars-per-pixel */
"32 32 58 1 ",
"  c #86C06C",
". c #70AA65",
"X c #457E57",
"o c #306850",
"O c #467E57",
"+ c #71AA65",
"@ c #81BA6A",
"# c #76AF67",
"$ c #76B067",
"% c #81BB6A",
"& c #6BA268",
"* c #61936D",
"= c #5C8C70",
"- c #61946D",
"; c #6BA368",
": c #568E5C",
"> c #568F5C",
", c #98BF99",
"< c #B4D4AF",
"1 c #98BE99",
"2 c #609960",
"3 c #407855",
"4 c #56896A",
"5 c #A3CA9D",
"6 c #C9EAB6",
"7 c #A3C99D",
"8 c #56886A",
"9 c #407955",
"0 c #609A60",
"q c #568869",
"w c #356D52",
"e c #4B825D",
"r c #81B578",
"t c #9CCE85",
"y c #81B478",
"u c #4B815D",
"i c #356E52",
"p c #AED2A5",
"a c #77A381",
"s c #518368",
"d c #3B7158",
"f c #669F61",
"g c #50895A",
"h c #A2CF8F",
"j c #AED3A5",
"k c #93B997",
"l c #50895B",
"z c #669F62",
"x c #A2D08F",
"c c #97CB7F",
"v c #B9DFA4",
"b c #B9E0A4",
"n c #8CC372",
"m c #97CA7F",
"M c #8CC472",
"N c #99BF99",
"B c #81B477",
"V c #77A481",
/* pixels */
"         .XooO+          .XooO+ ",
" @#..$%@#&*==-;$%@#..$%@#&*==-;.",
" #:XX>$#:-,<<1*>$#:XX>$#:-,<<1*X",
".&-==-;2345667890&*==-;2345667qo",
"X*,<<1*3werttyui9-,<<1*3werttyuo",
"o4566pasdO+@#fg9w4566pasdO+@#fgO",
"oeytthjksO+#:lz23erttxjksO+#:lz+",
"Olf#@cv789023O+#:lz#%cb7q9023O+ ",
"+zg:$nmyui33wO+@$fg>$Mmyui93wO+ ",
" .X92#@.Xooi9>$  .X90#%.Xooi9>$ ",
" .Xw3:$.Xoo90$%  .Xi3>$.Xoo90$% ",
" $>9i9223ooO+    #:9w9023ooO+   ",
" %$03w33wooO+    @$23i33wooO+   ",
"   $>9iooi9>$      #:9wooi9>$   ",
"   %$03oo90$%      @$23oo90$%   ",
"     #>OOlf..#@      #:OOlz..#% ",
"     %$++zgXX:$      @$++fgXX>$ ",
" @#..#@@#&-==-&#@@#..#%@#&-==-;.",
" #:XX:$#:-,<<,*:$#:XX>$#:-N<<1*X",
".&-==-&2345667892&-==-;2345667qo",
"X*,<<,*3werttBuw3-N<<1*3werttBuo",
"o8766pVsdO+@#fl9i4566pasdO+@#fgO",
"ouytthjksO+#:gz03ertthjksO+#:lz+",
"Olf#@mv789223O+#>lf#@cv7q9023O+ ",
"+zg:#nmBuw33wO+%$zg:$nmBui33wO+ ",
" .X32#@.Xooi9>$  .X92#@.Xooi9>$ ",
" .Xw3:#.Xoo90$%  .Xw3:$.Xoo90$% ",
" $>9i3223ooO+    #>9i9223ooO+   ",
" %$09w33wooO+    %$03w33wooO+   ",
"   $>9iooi9>$      #>9iooi9>$   ",
"   %$09oo90$%      %$03oo90$%   ",
"     .XooO+          .XooO+     "
};
