/* XPM */
static char *result[] = {
/* columns rows colors chars-per-pixel */
"32 32 140 2 ",
"   c #071821",
".  c #0A1D24",
"X  c #0F272A",
"o  c #102A2C",
"O  c #112C2D",
"+  c #17312E",
"@  c #17322F",
"#  c #163633",
"$  c #193B36",
"%  c #213C32",
"&  c #213D32",
"*  c #243F32",
"=  c #1E4037",
"-  c #1E4137",
";  c #1E453B",
":  c #274234",
">  c #264638",
",  c #274738",
"<  c #2C453A",
"1  c #2C463A",
"2  c #20483D",
"3  c #214A3E",
"4  c #294B3B",
"5  c #2E513D",
"6  c #264F40",
"7  c #374C46",
"8  c #384D46",
"9  c #394C49",
"0  c #265040",
"q  c #265444",
"w  c #285947",
"e  c #2E5E49",
"r  c #345443",
"t  c #395C40",
"y  c #3D504D",
"u  c #3A564D",
"i  c #2D634D",
"p  c #366449",
"a  c #366549",
"s  c #36654A",
"d  c #33624F",
"f  c #38694C",
"g  c #386A4C",
"h  c #3E6F4E",
"j  c #306850",
"k  c #356D52",
"l  c #356E52",
"z  c #3E7352",
"x  c #3E7452",
"c  c #446548",
"v  c #517B4E",
"b  c #517C4E",
"n  c #537D4E",
"m  c #4F6C54",
"M  c #407855",
"N  c #407955",
"B  c #457E57",
"V  c #467E57",
"C  c #4F7961",
"Z  c #4F7E65",
"A  c #607667",
"S  c #4E8458",
"D  c #4B815D",
"F  c #4B825D",
"G  c #568554",
"H  c #568654",
"J  c #598A57",
"K  c #50895A",
"L  c #50895B",
"P  c #568E5C",
"I  c #568F5C",
"U  c #5E9059",
"Y  c #5E945D",
"T  c #5E955D",
"R  c #669659",
"E  c #699B5C",
"W  c #568869",
"Q  c #56886A",
"!  c #56896A",
"~  c #5B9262",
"^  c #609960",
"/  c #609A60",
"(  c #669F61",
")  c #669F62",
"_  c #66996F",
"`  c #67996F",
"'  c #6EA562",
"]  c #74A464",
"[  c #70AA65",
"{  c #71AA65",
"}  c #76AF67",
"|  c #77A06C",
" . c #77A16C",
".. c #7AA56F",
"X. c #76B067",
"o. c #7BB36D",
"O. c #7CB36D",
"+. c #7FAB70",
"@. c #7FAB71",
"#. c #81BA6A",
"$. c #81BB6A",
"%. c #81B477",
"&. c #81B478",
"*. c #81B578",
"=. c #87BA79",
"-. c #8CC372",
";. c #8CC472",
":. c #8FC07A",
">. c #91C57D",
",. c #92C57D",
"<. c #97CA7F",
"1. c #97CB7F",
"2. c #899E89",
"3. c #8BAA8F",
"4. c #99B591",
"5. c #99B691",
"6. c #A0CA8C",
"7. c #A1C096",
"8. c #A1C49A",
"9. c #A6C39C",
"0. c #A6C49C",
"q. c #A3C99D",
"w. c #A3CA9D",
"e. c #A8CF9E",
"r. c #A9CF9E",
"t. c #A9CF9F",
"y. c #A8D591",
"u. c #ADD897",
"i. c #ADD997",
"p. c #B1D59F",
"a. c #AAC0A4",
"s. c #B3DAA2",
"d. c #B9DFA4",
"f. c #B9E0A4",
"g. c #BEE3AA",
"h. c #CFEDBC",
"j. c #CFEEBC",
"k. c #DAF4C9",
"l. c #DAF5C9",
"z. c None",
/* pixels */
"z.z.z.z.z.z.z.z.z.z.z.z.                z.z.z.z.z.z.z.z.z.z.z.z.",
"z.z.z.z.z.z.z.z.z.z.z.z.* 1 8 y y y y 9 z.z.z.z.z.z.z.z.z.z.z.z.",
"z.z.z.z.z.z.z.z.z.z.  * n  .5.a.a.a.a.2.9   z.z.z.z.z.z.z.z.z.z.",
"z.z.z.z.z.z.z.z.z.z.* c @.y.g.j.l.k.h.9.A 9 z.z.z.z.z.z.z.z.z.z.",
"z.z.z.z.z.z.z.z.  * n @.p.g.y.i.j.h.u.6.0.2.9   z.z.z.z.z.z.z.z.",
"z.z.z.z.z.z.z.z.o 5 E 1.f.g.y.y.g.g.y.y.g.7.m * z.z.z.z.z.z.z.z.",
"z.z.z.z.z.z.  o 2 h ' ;.<.y.g.g.y.y.g.g.y.:.] n *   z.z.z.z.z.z.",
"z.z.z.z.z.z.  O q N / } $.,.e.q.&.=.s.d.<.#.} G %   z.z.z.z.z.z.",
"z.z.z.z.z.z.  O q l M I X.o._ Q D ~ =.<.-.} P p +   z.z.z.z.z.z.",
"z.z.z.z.z.z.o - g N k F *.=.~ V V L ) [ [ ^ M d u 9 z.z.z.z.z.z.",
"z.z.z.z.  o 2 g T / M ! w.s.=.{ { ( K B B M k Z 3.2.9   z.z.z.z.",
"z.z.z.z.  X ; f Y ( L ` r.s.=.O.,.=.~ N k l N ` r.4.7   z.z.z.z.",
"z.z.z.z.  . X = f K ) O.>.=.~ ` t.s.=.^ M N / O.,.| <   z.z.z.z.",
"z.z.z.z.  . X # 3 f Y ' E J z ! w.p.+.U S ~ =.1.-.R :   z.z.z.z.",
"z.z.z.z.  X ; 3 # = f h 5 4 e F *.+.c t U =.s.d.<.R :   z.z.z.z.",
"z.z.z.z.o # 3 3 # # 3 3 # $ w x J v > , b ..8.q.%.U t * z.z.z.z.",
"z.z.  o 2 3 # # 3 3 # # 3 w i e 4 > 0 6 > r C W D S U n *   z.z.",
"z.z.  X ; 3 # # 3 3 # $ w j j w $ $ w w $ $ w i w g T G %   z.z.",
"z.z.  . X # 3 3 # # 3 w i j j i w w i i w w i w $ - g p +   z.z.",
"z.z.      X ; ; X X ; w i i w w i i w w i i w 3 # # 3 ; X   z.z.",
"z.z.      . X X . . X $ w w $ $ w w $ $ w w $ # 3 3 # X .   z.z.",
"z.z.                  X ; 3 # # 3 3 # $ w w $ # 3 ; X       z.z.",
"z.z.                  . X # 3 3 # # 3 w i i w 3 # X .       z.z.",
"z.z.                      X ; ; X X ; q q q q ; X           z.z.",
"z.z.z.z.                  . X X . . X O O O O X .       z.z.z.z.",
"z.z.z.z.                  . X O O X .                   z.z.z.z.",
"z.z.z.z.z.z.z.z.          X ; q q ; X           z.z.z.z.z.z.z.z.",
"z.z.z.z.z.z.z.z.O O O X . @ s V V a + . X O O O z.z.z.z.z.z.z.z.",
"z.z.z.z.z.z.z.z.q q q ; X & H { { G % X ; q q q z.z.z.z.z.z.z.z.",
"z.z.z.z.z.z.z.z.j j j w $ , v R R v > $ w j j j z.z.z.z.z.z.z.z.",
"z.z.z.z.z.z.z.z.z.z.j i w 0 > : : > 0 w i j z.z.z.z.z.z.z.z.z.z.",
"z.z.z.z.z.z.z.z.z.z.j j j q O     O q j j j z.z.z.z.z.z.z.z.z.z."
};
