/* XPM */
static char *result[] = {
/* columns rows colors chars-per-pixel */
"32 32 128 2 ",
"   c #071821",
".  c #0A1D24",
"X  c #0E2125",
"o  c #0F272A",
"O  c #112C2D",
"+  c #17312E",
"@  c #1C342E",
"#  c #163633",
"$  c #1B3632",
"%  c #1A3B36",
"&  c #233E33",
"*  c #1E4137",
"=  c #1E453B",
"-  c #274234",
";  c #254538",
":  c #2B443C",
">  c #214A3E",
",  c #2B4C3B",
"<  c #2D513E",
"1  c #32533D",
"2  c #2C4440",
"3  c #254E40",
"4  c #364B44",
"5  c #384D46",
"6  c #265343",
"7  c #2C5446",
"8  c #285947",
"9  c #2C5D49",
"0  c #345443",
"q  c #345B42",
"w  c #3A5B42",
"e  c #37514A",
"r  c #3C524D",
"t  c #33594C",
"y  c #3F5B4A",
"u  c #2D634D",
"i  c #3E6142",
"p  c #34654B",
"a  c #3A654E",
"s  c #32684F",
"d  c #3A6B4C",
"f  c #3F6452",
"g  c #316950",
"h  c #396F51",
"j  c #3B7252",
"k  c #435E4E",
"l  c #415A50",
"z  c #426A47",
"x  c #446548",
"c  c #42724E",
"v  c #49744C",
"b  c #517C4E",
"n  c #466155",
"m  c #426C57",
"M  c #4F6C54",
"N  c #426C58",
"B  c #50695A",
"V  c #427450",
"C  c #4D7454",
"Z  c #437C56",
"A  c #4C7B51",
"S  c #4A745A",
"D  c #517C54",
"F  c #507D5F",
"G  c #4F7C63",
"H  c #607667",
"J  c #4F8154",
"K  c #4C825C",
"L  c #568454",
"P  c #598254",
"I  c #5A8A56",
"U  c #548D5B",
"Y  c #5D8F58",
"T  c #5D925B",
"R  c #639459",
"E  c #6A9A5D",
"W  c #6EA05E",
"Q  c #56896A",
"!  c #5B9262",
"~  c #5C8C70",
"^  c #62896F",
"/  c #639C61",
"(  c #61946D",
")  c #67996F",
"_  c #739E67",
"`  c #6CA362",
"'  c #6BA368",
"]  c #74A464",
"[  c #72AB66",
"{  c #77A16C",
"}  c #7AA56F",
"|  c #76B067",
" . c #7BB266",
".. c #7CB36D",
"X. c #7FAB71",
"o. c #81BB6A",
"O. c #85AD7A",
"+. c #81B477",
"@. c #81B578",
"#. c #87BA79",
"$. c #86C06C",
"%. c #8CC372",
"&. c #8FC07A",
"*. c #92C57D",
"=. c #97CA7F",
"-. c #849C86",
";. c #8AA08A",
":. c #8BAA8F",
">. c #99B691",
",. c #98BF99",
"<. c #9CCE85",
"1. c #A0CA8C",
"2. c #A1C096",
"3. c #A4C49C",
"4. c #A3CA9D",
"5. c #A9CF9E",
"6. c #A8D591",
"7. c #ADD997",
"8. c #B1D59F",
"9. c #AAC0A4",
"0. c #B3DAA2",
"q. c #B9DFA4",
"w. c #B4D4AF",
"e. c #B9E0A4",
"r. c #BEE3AA",
"t. c #C9EAB6",
"y. c #CFEEBC",
"u. c #DAF5C9",
/* pixels */
"$.$.$.$.$.$.$.$.o.[ A 6 O             - E o.$.$.$.[ K g g Z [ $.",
"$.o.[ [ [ | o...| / G n , , 4 r r r r k A R  .o.| ' ! ~ ~ ( ' [ ",
"$.[ U K Z !  .| U F n y P { >.9.9.9.9.-.r , R  .U ( 2.w.w.2.~ Z ",
"[ ' ( ~ ~ ! ' T p a w z O.6.r.y.u.u.y.3.H r C A j Q 9.t.r.4.Q g ",
"Z ( 2.w.w.,.( p % , L X.8.r.6.7.y.y.7.1.3.-.k ; 9 K ..<.<...Q g ",
"g Q 4.t.t.4.^ t % < E =.e.r.6.6.q.t.6.1.t.2.M , 8 h [  .../ K Z ",
"g K ..<.<.O.B 2 = j [ %.=.6.r.r.6.6.q.t.6.%.] D , ; U | U U ' [ ",
"K K ` | .._ 4 O 8 Z T  . .*.4.4.+.#.0.q.*.o. .P % + J / j Z [ $.",
"[ / K U | E - O 6 j j T | ..) Q K ! ..<.%.| ! p + O q j h K ` $.",
"$.[ K j J v ; * d j h K @.#.! K K K ' ` [ ! j g r e 8 9 j ! | $.",
"$.[ Z u * * > d T ! j Q 4.0.#.[ [ ` U K K j h K :.-.e ; J  . .$.",
"$.| U u + o = d T ' U ) 5.0.#...<...! j h h j ) 5.>.5 + U $.$.$.",
"$. . .v + X o * h U ` ..*.%.! ) 4.0.#.! Z j W ..*.{ , + L $.$.$.",
"$.$.$.I $   o # > s T W E U j Q 4.8...T K T #.=.%.R - @ I $.$.$.",
"$.$.$.R * o = > # * d j < , 9 K +.+.z w Y #.8.e.=.R , - T $.$.$.",
"$. .` L - # > > # # = > # % 8 j I b ; ; b } 3.3.+.R 1 1 v R  .$.",
"$.W i ; 6 > # # > > # # = 8 u u , ; < 3 ; 0 G Q K K Y J , , R $.",
"$.R & o = > # # > = # # u g u 8 # % 8 8 % % 8 u 8 s T L & @ L [ ",
"$.I # X o # = = # # = u u u g u 8 8 u u 8 8 u 8 % * d p # : S Z ",
"[ D %     o = = o o = 8 u u 8 8 u u 8 8 u u 8 > # # > = o 2 m u ",
"Z S :     X o o X X o # 8 8 * # 8 8 % % 8 8 % # > > # o . & a s ",
"s m 2                 o = = # # 3 = # % 8 8 % # > = o     & d Z ",
"g a &                 X o # > > # # = 8 u u 8 > # o .     $ D [ ",
"Z V 1 $ X               X o = = o o = 6 6 8 6 = o     . O ; Y $.",
"[ R c q @                 X o o   X o o O O O o .     O > d ` o.",
"$.[ Z s < - - @ X           o O O o X         X O O O % p T | $.",
"$.[ Z g s V I z O         o = > 8 = o         + < 6 6 s T | o.$.",
"$.| U Z h j R A * O O o X O p K J u + X o O o = p s g Z [ $.$.$.",
"$.o. .! Z g Z h 8 6 6 = o * L | ` L & o = 8 6 u g g u K [ $.$.$.",
"$.$.$.| U Z g g g g g 8 % ; b R T J - % 8 g g g g j j T | $.$.$.",
"$.$.$.o. .! Z g g j h u 8 , ; - - = < 8 u j j g g j R | ..$.$.$.",
"$.$.$.$.$.[ Z g g Z j g g 6 O     O 6 g g Z j g g Z [ $.$.$.$.$."
};
